SplineFontDB: 3.0
FontName: LeagueScript
FullName: League Script
FamilyName: League Script
Weight: Book
Copyright: 
Version: 1.0
ItalicAngle: 0
UnderlinePosition: -50
UnderlineWidth: 50
Ascent: 1228
Descent: 308
sfntRevision: 0x00010000
LayerCount: 2
Layer: 0 1 "Back"  1
Layer: 1 1 "Fore"  0
XUID: [1021 496 529952750 15012616]
FSType: 0
OS2Version: 3
OS2_WeightWidthSlopeOnly: 0
OS2_UseTypoMetrics: 1
CreationTime: 1277695241
ModificationTime: 1299869569
PfmFamily: 81
TTFWeight: 400
TTFWidth: 5
LineGap: 0
VLineGap: 0
Panose: 0 0 0 0 0 0 0 0 0 0
OS2TypoAscent: 1100
OS2TypoAOffset: 0
OS2TypoDescent: -600
OS2TypoDOffset: 0
OS2TypoLinegap: 0
OS2WinAscent: 1100
OS2WinAOffset: 0
OS2WinDescent: 600
OS2WinDOffset: 0
HheadAscent: 1100
HheadAOffset: 0
HheadDescent: -600
HheadDOffset: 0
OS2SubXSize: 700
OS2SubYSize: 650
OS2SubXOff: 0
OS2SubYOff: 140
OS2SupXSize: 700
OS2SupYSize: 650
OS2SupXOff: 0
OS2SupYOff: 477
OS2StrikeYSize: 50
OS2StrikeYPos: 250
OS2Vendor: 'pyrs'
OS2CodePages: 00000001.00000000
OS2UnicodeRanges: 80000027.48000002.14000000.00000000
Lookup: 4 0 0 "'dlig' Discretionary Ligatures in Latin lookup 0"  {"'dlig' Discretionary Ligatures in Latin lookup 0 subtable"  } ['dlig' ('latn' <'dflt' > ) ]
Lookup: 258 0 0 "'kern' Horizontal Kerning in Latin lookup 0"  {"'kern' Horizontal Kerning in Latin lookup 0 subtable"  } ['kern' ('latn' <'dflt' > ) ]
MarkAttachClasses: 1
DEI: 91125
TtTable: prep
PUSHW_1
 0
CALL
SVTCA[y-axis]
PUSHW_3
 1
 4
 7
CALL
PUSHW_1
 0
DUP
RCVT
RDTG
ROUND[Black]
RTG
WCVTP
EndTTInstrs
TtTable: fpgm
PUSHW_1
 0
FDEF
MPPEM
PUSHW_1
 9
LT
IF
PUSHB_2
 1
 1
INSTCTRL
EIF
PUSHW_1
 511
SCANCTRL
PUSHW_1
 68
SCVTCI
PUSHW_2
 9
 3
SDS
SDB
ENDF
PUSHW_1
 1
FDEF
DUP
DUP
RCVT
ROUND[Black]
WCVTP
PUSHB_1
 1
ADD
ENDF
PUSHW_1
 2
FDEF
PUSHW_1
 1
LOOPCALL
POP
ENDF
PUSHW_1
 3
FDEF
DUP
GC[cur]
PUSHB_1
 3
CINDEX
GC[cur]
GT
IF
SWAP
EIF
DUP
ROLL
DUP
ROLL
MD[grid]
ABS
ROLL
DUP
GC[cur]
DUP
ROUND[Grey]
SUB
ABS
PUSHB_1
 4
CINDEX
GC[cur]
DUP
ROUND[Grey]
SUB
ABS
GT
IF
SWAP
NEG
ROLL

StartChar: exclam
Encoding: 33 33 4
Width: 622
VWidth: 1700
GlyphClass: 2
Flags: W
LayerCount: 2
Fore
SplineSet
200 174 m 0,0,1
 196 174 196 174 193.5 177 c 128,-1,2
 191 180 191 180 191 183 c 256,3,4
 191 186 191 186 192 187 c 0,5,6
 218 250 218 250 250.5 313.5 c 128,-1,7
 283 377 283 377 318.5 437 c 128,-1,8
 354 497 354 497 389 551.5 c 128,-1,9
 424 606 424 606 455 650 c 0,10,11
 488 698 488 698 517.5 738.5 c 128,-1,12
 547 779 547 779 569.5 808 c 128,-1,13
 592 837 592 837 605 853.5 c 128,-1,14
 618 870 618 870 618 870 c 2,15,16
 621 873 621 873 625 873 c 0,17,18
 634 873 634 873 634 864 c 0,19,20
 634 862 634 862 632 858 c 2,21,22
 632 858 632 858 619 841.5 c 128,-1,23
 606 825 606 825 584 796.5 c 128,-1,24
 562 768 562 768 532.5 728 c 128,-1,25
 503 688 503 688 470 640 c 0,26,27
 440 596 440 596 405 542 c 128,-1,28
 370 488 370 488 335 428.5 c 128,-1,29
 300 369 300 369 267 306 c 128,-1,30
 234 243 234 243 209 180 c 1,31,32
 205 174 205 174 200 174 c 0,0,1
190 46 m 0,33,34
 190 23 190 23 173 6.5 c 128,-1,35
 156 -10 156 -10 133 -10 c 256,36,37
 110 -10 110 -10 93.5 6.5 c 128,-1,38
 77 23 77 23 77 46 c 0,39,40
 77 70 77 70 93.5 86.5 c 128,-1,41
 110 103 110 103 133 103 c 256,42,43
 156 103 156 103 173 86.5 c 128,-1,44
 190 70 190 70 190 46 c 0,33,34
EndSplineSet
EndChar

StartChar: quotedbl
Encoding: 34 34 5
Width: 407
VWidth: 1700
GlyphClass: 2
Flags: W
LayerCount: 2
Fore
SplineSet
56 504 m 0,0,1
 53 504 53 504 49.5 506 c 128,-1,2
 46 508 46 508 46 513 c 0,3,4
 46 517 46 517 50 520 c 0,5,6
 104 561 104 561 134.5 598 c 128,-1,7
 165 635 165 635 180 666 c 128,-1,8
 195 697 195 697 198.5 719.5 c 128,-1,9
 202 742 202 742 202 755 c 0,10,11
 202 779 202 779 200 783 c 128,-1,12
 198 787 198 787 198 788 c 0,13,14
 198 791 198 791 199.5 794 c 128,-1,15
 201 797 201 797 206 797 c 0,16,17
 207 797 207 797 209.5 797.5 c 128,-1,18
 212 798 212 798 214.5 794.5 c 128,-1,19
 217 791 217 791 218.5 782 c 128,-1,20
 220 773 220 773 220 755 c 0,21,22
 220 699 220 699 181 633 c 128,-1,23
 142 567 142 567 61 506 c 0,24,25
 57 504 57 504 56 504 c 0,0,1
165 504 m 0,26,27
 162 504 162 504 158.5 506 c 128,-1,28
 155 508 155 508 155 513 c 0,29,30
 155 517 155 517 159 520 c 0,31,32
 213 561 213 561 243.5 598 c 128,-1,33
 274 635 274 635 289 666 c 128,-1,34
 304 697 304 697 307.5 719.5 c 128,-1,35
 311 742 311 742 311 755 c 0,36,37
 311 779 311 779 309 783 c 128,-1,38
 307 787 307 787 307 788 c 0,39,40
 307 791 307 791 308.5 794 c 128,-1,41
 310 797 310 797 315 797 c 0,42,43
 316 797 316 797 318.5 797.5 c 128,-1,44
 321 798 321 798 323.5 794.5 c 128,-1,45
 326 791 326 791 327.5 782 c 128,-1,46
 329 773 329 773 329 755 c 0,47,48
 329 699 329 699 290 633 c 128,-1,49
 251 567 251 567 170 506 c 0,50,51
 166 504 166 504 165 504 c 0,26,27
EndSplineSet
EndChar

StartChar: numbersign
Encoding: 35 35 6
Width: 962
VWidth: 1700
GlyphClass: 2
Flags: W
LayerCount: 2
Fore
SplineSet
41 -74 m 0,0,1
 37 -74 37 -74 34.5 -71 c 128,-1,2
 32 -68 32 -68 32 -65 c 0,3,4
 32 -61 32 -61 33 -60 c 2,5,-1
 628 856 l 1,6,7
 632 860 632 860 635 860 c 0,8,9
 645 860 645 860 645 851 c 0,10,11
 645 848 645 848 643 846 c 2,12,-1
 48 -70 l 2,13,14
 46 -74 46 -74 41 -74 c 0,0,1
338 -74 m 0,15,16
 336 -74 336 -74 332.5 -72 c 128,-1,17
 329 -70 329 -70 329 -65 c 0,18,19
 329 -64 329 -64 331 -60 c 2,20,-1
 926 856 l 2,21,22
 928 860 928 860 933 860 c 0,23,24
 942 860 942 860 942 850 c 0,25,26
 942 847 942 847 941 846 c 2,27,-1
 346 -70 l 1,28,29
 342 -74 342 -74 338 -74 c 0,15,16
884 556 m 2,30,-1
 279 556 l 2,31,32
 270 556 270 556 270 565 c 256,33,34
 270 574 270 574 279 574 c 2,35,-1
 884 574 l 2,36,37
 893 574 893 574 893 565 c 256,38,39
 893 556 893 556 884 556 c 2,30,-1
711 234 m 2,40,-1
 106 234 l 2,41,42
 97 234 97 234 97 243 c 256,43,44
 97 252 97 252 106 252 c 2,45,-1
 711 252 l 2,46,47
 720 252 720 252 720 243 c 256,48,49
 720 234 720 234 711 234 c 2,40,-1
EndSplineSet
EndChar

StartChar: dollar
Encoding: 36 36 7
Width: 950
VWidth: 1700
GlyphClass: 2
Flags: W
LayerCount: 2
Fore
SplineSet
241 -94 m 1,0,1
 202 -93 202 -93 164 -81.5 c 128,-1,2
 126 -70 126 -70 95.5 -47 c 128,-1,3
 65 -24 65 -24 46 10 c 128,-1,4
 27 44 27 44 27 89 c 0,5,6
 27 127 27 127 44 160 c 128,-1,7
 61 193 61 193 82 218 c 128,-1,8
 103 243 103 243 122 258 c 128,-1,9
 141 273 141 273 144 275 c 0,10,11
 145 276 145 276 148 276 c 0,12,13
 158 276 158 276 158 267 c 0,14,15
 158 262 158 262 153.5 259.5 c 128,-1,16
 149 257 149 257 139.5 251 c 128,-1,17
 130 245 130 245 116 231.5 c 128,-1,18
 102 218 102 218 83 193 c 0,19,20
 45 141 45 141 45 90 c 0,21,22
 45 55 45 55 60 24.5 c 128,-1,23
 75 -6 75 -6 102.5 -28.5 c 128,-1,24
 130 -51 130 -51 168.5 -63.5 c 128,-1,25
 207 -76 207 -76 254 -76 c 0,26,27
 288 -76 288 -76 325.5 -67.5 c 128,-1,28
 363 -59 363 -59 398.5 -40.5 c 128,-1,29
 434 -22 434 -22 466 8.5 c 128,-1,30
 498 39 498 39 521 84 c 0,31,32
 554 147 554 147 566.5 204.5 c 128,-1,33
 579 262 579 262 579 317 c 0,34,35
 579 364 579 364 572.5 410 c 128,-1,36
 566 456 566 456 557.5 502 c 128,-1,37
 549 548 549 548 542.5 595.5 c 128,-1,38
 536 643 536 643 536 693 c 0,39,40
 536 775 536 775 558.5 836 c 128,-1,41
 581 897 581 897 616 937.5 c 128,-1,42
 651 978 651 978 694.5 997.5 c 128,-1,43
 738 1017 738 1017 780 1017 c 0,44,45
 816 1017 816 1017 847 1006 c 128,-1,46
 878 995 878 995 901.5 975 c 128,-1,47
 925 955 925 955 938.5 927.5 c 128,-1,48
 952 900 952 900 952 868 c 0,49,50
 952 834 952 834 941 806.5 c 128,-1,51
 930 779 930 779 913.5 758 c 128,-1,52
 897 737 897 737 877 722 c 128,-1,53
 857 707 857 707 839.5 697.5 c 128,-1,54
 822 688 822 688 809 683 c 128,-1,55
 796 678 796 678 793 677 c 0,56,57
 792 676 792 676 790 676 c 0,58,59
 787 676 787 676 784 678.5 c 128,-1,60
 781 681 781 681 781 686 c 256,61,62
 781 691 781 691 787 694 c 1,63,64
 792 694 792 694 815 705 c 128,-1,65
 838 716 838 716 864 737.5 c 128,-1,66
 890 759 890 759 911 792 c 128,-1,67
 932 825 932 825 932 869 c 0,68,69
 932 896 932 896 921 919.5 c 128,-1,70
 910 943 910 943 890 960.5 c 128,-1,71
 870 978 870 978 843 988.5 c 128,-1,72
 816 999 816 999 785 999 c 0,73,74
 745 999 745 999 704 980.5 c 128,-1,75
 663 962 663 962 630 924 c 128,-1,76
 597 886 597 886 576 827.5 c 128,-1,77
 555 769 555 769 555 690 c 0,78,79
 555 641 555 641 561.5 595 c 128,-1,80
 568 549 568 549 576 503 c 128,-1,81
 584 457 584 457 590.5 411 c 128,-1,82
 597 365 597 365 597 316 c 0,83,84
 597 191 597 191 537 76 c 0,85,86
 490 -13 490 -13 412 -53.5 c 128,-1,87
 334 -94 334 -94 241 -94 c 1,0,1
107 -186 m 1,88,89
 103 -185 103 -185 103 -179 c 0,90,91
 103 -178 103 -178 105 -174 c 2,92,-1
 918 1096 l 2,93,94
 921 1100 921 1100 926 1100 c 0,95,96
 935 1100 935 1100 935 1092 c 0,97,98
 935 1088 935 1088 933 1086 c 2,99,-1
 120 -184 l 2,100,101
 117 -188 117 -188 113 -188 c 256,102,103
 109 -188 109 -188 107 -186 c 1,88,89
EndSplineSet
EndChar

StartChar: percent
Encoding: 37 37 8
Width: 833
VWidth: 1700
GlyphClass: 2
Flags: W
LayerCount: 2
Fore
SplineSet
495 793 m 256,0,1
 495 772 495 772 487 753 c 128,-1,2
 479 734 479 734 464.5 720 c 128,-1,3
 450 706 450 706 431 698 c 128,-1,4
 412 690 412 690 391 690 c 256,5,6
 370 690 370 690 351.5 698 c 128,-1,7
 333 706 333 706 318.5 720 c 128,-1,8
 304 734 304 734 296 753 c 128,-1,9
 288 772 288 772 288 793 c 256,10,11
 288 814 288 814 296 833 c 128,-1,12
 304 852 304 852 318.5 866 c 128,-1,13
 333 880 333 880 351.5 888 c 128,-1,14
 370 896 370 896 391 896 c 256,15,16
 412 896 412 896 431 888 c 128,-1,17
 450 880 450 880 464 866 c 128,-1,18
 478 852 478 852 486.5 833 c 128,-1,19
 495 814 495 814 495 793 c 256,0,1
503 71 m 256,20,21
 503 50 503 50 495 31 c 128,-1,22
 487 12 487 12 473 -2 c 128,-1,23
 459 -16 459 -16 440 -24 c 128,-1,24
 421 -32 421 -32 400 -32 c 256,25,26
 379 -32 379 -32 360 -24 c 128,-1,27
 341 -16 341 -16 327 -2 c 128,-1,28
 313 12 313 12 305 31 c 128,-1,29
 297 50 297 50 297 71 c 256,30,31
 297 92 297 92 305 111 c 128,-1,32
 313 130 313 130 327 144 c 128,-1,33
 341 158 341 158 360 166 c 128,-1,34
 379 174 379 174 400 174 c 256,35,36
 421 174 421 174 440 166 c 128,-1,37
 459 158 459 158 473 144 c 128,-1,38
 487 130 487 130 495 111 c 128,-1,39
 503 92 503 92 503 71 c 256,20,21
106 -34 m 256,40,41
 101 -34 101 -34 99 -31 c 128,-1,42
 97 -28 97 -28 97 -25 c 0,43,44
 97 -24 97 -24 99 -20 c 2,45,-1
 686 895 l 2,46,47
 689 899 689 899 694 899 c 256,48,49
 699 899 699 899 701 896 c 128,-1,50
 703 893 703 893 703 890 c 256,51,52
 703 887 703 887 702 885 c 2,53,-1
 114 -30 l 2,54,55
 111 -34 111 -34 106 -34 c 256,40,41
EndSplineSet
EndChar

StartChar: ampersand
Encoding: 38 38 9
Width: 1163
VWidth: 1700
GlyphClass: 2
Flags: W
LayerCount: 2
Fore
SplineSet
385 -140 m 0,0,1
 330 -140 330 -140 280 -125.5 c 128,-1,2
 230 -111 230 -111 192.5 -80.5 c 128,-1,3
 155 -50 155 -50 133 -3 c 128,-1,4
 111 44 111 44 111 108 c 0,5,6
 111 140 111 140 117 173 c 128,-1,7
 123 206 123 206 136 240 c 0,8,9
 161 309 161 309 202.5 361.5 c 128,-1,10
 244 414 244 414 295.5 454 c 128,-1,11
 347 494 347 494 407 523.5 c 128,-1,12
 467 553 467 553 529.5 575.5 c 128,-1,13
 592 598 592 598 655.5 615 c 128,-1,14
 719 632 719 632 777 648 c 1,15,16
 825 727 825 727 864 779.5 c 128,-1,17
 903 832 903 832 935 863.5 c 128,-1,18
 967 895 967 895 995 907.5 c 128,-1,19
 1023 920 1023 920 1050 920 c 0,20,21
 1091 920 1091 920 1110.5 898 c 128,-1,22
 1130 876 1130 876 1130 847 c 0,23,24
 1130 781 1130 781 1046.5 731.5 c 128,-1,25
 963 682 963 682 788 633 c 1,26,27
 742 559 742 559 694 476 c 128,-1,28
 646 393 646 393 608 311 c 0,29,30
 565 219 565 219 543 147.5 c 128,-1,31
 521 76 521 76 521 23 c 0,32,33
 521 -49 521 -49 564 -85 c 1,34,35
 644 -52 644 -52 703 -1.5 c 128,-1,36
 762 49 762 49 800.5 96.5 c 128,-1,37
 839 144 839 144 858 178.5 c 128,-1,38
 877 213 877 213 878 214 c 0,39,40
 880 219 880 219 886 219 c 0,41,42
 895 219 895 219 895 209 c 0,43,44
 895 208 895 208 894.5 207.5 c 128,-1,45
 894 207 894 207 894 206 c 0,46,47
 893 204 893 204 885 189 c 128,-1,48
 877 174 877 174 861 150 c 128,-1,49
 845 126 845 126 821 95.5 c 128,-1,50
 797 65 797 65 766 33 c 0,51,52
 725 -9 725 -9 677.5 -44.5 c 128,-1,53
 630 -80 630 -80 583 -97 c 1,54,55
 617 -116 617 -116 675 -116 c 0,56,57
 723 -116 723 -116 762.5 -102.5 c 128,-1,58
 802 -89 802 -89 834 -68.5 c 128,-1,59
 866 -48 866 -48 889.5 -24 c 128,-1,60
 913 0 913 0 929.5 20 c 128,-1,61
 946 40 946 40 954 52.5 c 128,-1,62
 962 65 962 65 963 64 c 1,63,64
 966 68 966 68 971 68 c 0,65,66
 980 68 980 68 980 59 c 0,67,68
 980 56 980 56 979 55 c 256,69,70
 978 54 978 54 972.5 45.5 c 128,-1,71
 967 37 967 37 956.5 23.5 c 128,-1,72
 946 10 946 10 930.5 -7.5 c 128,-1,73
 915 -25 915 -25 895 -43 c 0,74,75
 848 -85 848 -85 792 -109.5 c 128,-1,76
 736 -134 736 -134 675 -134 c 0,77,78
 605 -134 605 -134 562 -106 c 1,79,80
 474 -140 474 -140 385 -140 c 0,0,1
762 625 m 1,81,82
 667 601 667 601 573.5 572.5 c 128,-1,83
 480 544 480 544 398.5 500 c 128,-1,84
 317 456 317 456 253 392 c 128,-1,85
 189 328 189 328 153 234 c 0,86,87
 129 169 129 169 129 108 c 0,88,89
 129 54 129 54 147 11 c 128,-1,90
 165 -32 165 -32 198.5 -61.5 c 128,-1,91
 232 -91 232 -91 279 -106.5 c 128,-1,92
 326 -122 326 -122 385 -122 c 0,93,94
 430 -122 430 -122 470 -114.5 c 128,-1,95
 510 -107 510 -107 545 -93 c 1,96,97
 525 -73 525 -73 514 -44 c 128,-1,98
 503 -15 503 -15 503 24 c 0,99,100
 503 80 503 80 525 152.5 c 128,-1,101
 547 225 547 225 592 319 c 0,102,103
 629 397 629 397 673.5 475.5 c 128,-1,104
 718 554 718 554 762 625 c 1,81,82
1009 893 m 256,105,106
 991 885 991 885 971.5 870.5 c 128,-1,107
 952 856 952 856 927 829.5 c 128,-1,108
 902 803 902 803 872 761 c 128,-1,109
 842 719 842 719 803 656 c 1,110,111
 905 685 905 685 966 712 c 128,-1,112
 1027 739 1027 739 1059.5 763 c 128,-1,113
 1092 787 1092 787 1102 808 c 128,-1,114
 1112 829 1112 829 1112 847 c 0,115,116
 1112 877 1112 877 1091.5 889 c 128,-1,117
 1071 901 1071 901 1050 901 c 0,118,119
 1027 901 1027 901 1009 893 c 256,105,106
EndSplineSet
EndChar

StartChar: quotesingle
Encoding: 39 39 10
Width: 243
VWidth: 1700
GlyphClass: 2
Flags: W
LayerCount: 2
Fore
SplineSet
276 560 m 0,0,1
 267 560 267 560 267 569 c 0,2,3
 267 572 267 572 268 573 c 2,4,-1
 405 848 l 2,5,6
 407 853 407 853 413 853 c 0,7,8
 416 853 416 853 419 850.5 c 128,-1,9
 422 848 422 848 422 845 c 0,10,11
 422 841 422 841 421 840 c 2,12,-1
 284 565 l 2,13,14
 282 560 282 560 276 560 c 0,0,1
EndSplineSet
EndChar

StartChar: parenleft
Encoding: 40 40 11
Width: 384
VWidth: 1700
GlyphClass: 2
Flags: W
LayerCount: 2
Fore
SplineSet
119 -145 m 0,0,1
 113 -145 113 -145 110 -132 c 128,-1,2
 107 -119 107 -119 105.5 -101.5 c 128,-1,3
 104 -84 104 -84 104 -66 c 128,-1,4
 104 -48 104 -48 104 -37 c 0,5,6
 104 146 104 146 181.5 324.5 c 128,-1,7
 259 503 259 503 411 675 c 0,8,9
 481 754 481 754 545.5 813 c 128,-1,10
 610 872 610 872 660 911 c 128,-1,11
 710 950 710 950 741 969.5 c 128,-1,12
 772 989 772 989 775 989 c 256,13,14
 778 989 778 989 781 986.5 c 128,-1,15
 784 984 784 984 784 980 c 256,16,17
 784 976 784 976 780.5 973.5 c 128,-1,18
 777 971 777 971 765 963 c 128,-1,19
 753 955 753 955 729.5 938.5 c 128,-1,20
 706 922 706 922 667 891 c 0,21,22
 620 854 620 854 556 796 c 128,-1,23
 492 738 492 738 424 662 c 0,24,25
 371 602 371 602 317 526.5 c 128,-1,26
 263 451 263 451 219.5 362.5 c 128,-1,27
 176 274 176 274 149 173.5 c 128,-1,28
 122 73 122 73 122 -37 c 0,29,30
 122 -62 122 -62 125 -86.5 c 128,-1,31
 128 -111 128 -111 128 -136 c 0,32,33
 128 -139 128 -139 125.5 -142 c 128,-1,34
 123 -145 123 -145 119 -145 c 0,0,1
EndSplineSet
EndChar

StartChar: parenright
Encoding: 41 41 12
Width: 593
VWidth: 1700
GlyphClass: 2
Flags: W
LayerCount: 2
Fore
SplineSet
-156 -183 m 0,0,1
 -160 -183 -160 -183 -162.5 -179.5 c 128,-1,2
 -165 -176 -165 -176 -165 -173 c 256,3,4
 -165 -170 -165 -170 -163.5 -169 c 128,-1,5
 -162 -168 -162 -168 -151 -161 c 128,-1,6
 -140 -154 -140 -154 -116 -137 c 128,-1,7
 -92 -120 -92 -120 -47 -84 c 0,8,9
 -1 -48 -1 -48 63.5 10 c 128,-1,10
 128 68 128 68 196 144 c 0,11,12
 249 204 249 204 303 279.5 c 128,-1,13
 357 355 357 355 400 443.5 c 128,-1,14
 443 532 443 532 470 632.5 c 128,-1,15
 497 733 497 733 497 843 c 0,16,17
 497 891 497 891 491 941 c 0,18,19
 491 949 491 949 499 951 c 1,20,21
 505 951 505 951 508.5 937.5 c 128,-1,22
 512 924 512 924 513.5 906 c 128,-1,23
 515 888 515 888 515 869.5 c 128,-1,24
 515 851 515 851 515 841 c 0,25,26
 515 661 515 661 438 482 c 128,-1,27
 361 303 361 303 209 131 c 0,28,29
 138 51 138 51 73.5 -8 c 128,-1,30
 9 -67 9 -67 -41.5 -106 c 128,-1,31
 -92 -145 -92 -145 -122.5 -164 c 128,-1,32
 -153 -183 -153 -183 -156 -183 c 0,0,1
EndSplineSet
EndChar

StartChar: asterisk
Encoding: 42 42 13
Width: 431
VWidth: 1700
GlyphClass: 2
Flags: W
LayerCount: 2
Fore
SplineSet
399 696 m 1,0,1
 398 679 398 679 386 671 c 128,-1,2
 374 663 374 663 357 663 c 0,3,4
 346 663 346 663 332.5 667 c 128,-1,5
 319 671 319 671 304 675.5 c 128,-1,6
 289 680 289 680 272.5 684.5 c 128,-1,7
 256 689 256 689 240 691 c 1,8,9
 258 677 258 677 278.5 666.5 c 128,-1,10
 299 656 299 656 317 645.5 c 128,-1,11
 335 635 335 635 346.5 624 c 128,-1,12
 358 613 358 613 358 597 c 0,13,14
 358 585 358 585 349 575 c 2,15,-1
 347 573 l 1,16,17
 336 564 336 564 325 564 c 0,18,19
 309 564 309 564 297.5 575.5 c 128,-1,20
 286 587 286 587 276 605 c 128,-1,21
 266 623 266 623 255.5 643.5 c 128,-1,22
 245 664 245 664 231 682 c 1,23,24
 232 666 232 666 237 649.5 c 128,-1,25
 242 633 242 633 246.5 618 c 128,-1,26
 251 603 251 603 255 589 c 128,-1,27
 259 575 259 575 259 565 c 0,28,29
 259 548 259 548 251 536 c 128,-1,30
 243 524 243 524 226 523 c 1,31,-1
 223 523 l 1,32,33
 206 524 206 524 197.5 536 c 128,-1,34
 189 548 189 548 189 565 c 0,35,36
 189 575 189 575 192.5 588.5 c 128,-1,37
 196 602 196 602 201 617.5 c 128,-1,38
 206 633 206 633 211 649.5 c 128,-1,39
 216 666 216 666 218 682 c 1,40,41
 203 664 203 664 192.5 643.5 c 128,-1,42
 182 623 182 623 172 605 c 128,-1,43
 162 587 162 587 150.5 575 c 128,-1,44
 139 563 139 563 123 563 c 0,45,46
 110 563 110 563 100 573 c 128,-1,47
 90 583 90 583 90 595 c 0,48,49
 90 612 90 612 102 623.5 c 128,-1,50
 114 635 114 635 132 645.5 c 128,-1,51
 150 656 150 656 170.5 666.5 c 128,-1,52
 191 677 191 677 208 691 c 1,53,54
 192 689 192 689 175.5 684.5 c 128,-1,55
 159 680 159 680 143.5 675.5 c 128,-1,56
 128 671 128 671 114.5 667 c 128,-1,57
 101 663 101 663 91 663 c 0,58,59
 74 663 74 663 62.5 671 c 128,-1,60
 51 679 51 679 49 696 c 1,61,62
 49 715 49 715 61.5 724 c 128,-1,63
 74 733 74 733 91 733 c 0,64,65
 101 733 101 733 115 729.5 c 128,-1,66
 129 726 129 726 144.5 721 c 128,-1,67
 160 716 160 716 176.5 711 c 128,-1,68
 193 706 193 706 208 704 c 1,69,70
 191 719 191 719 170.5 729 c 128,-1,71
 150 739 150 739 132 749 c 128,-1,72
 114 759 114 759 102 770 c 128,-1,73
 90 781 90 781 90 798 c 0,74,75
 90 809 90 809 99 820 c 1,76,-1
 102 823 l 2,77,78
 111 831 111 831 124 831 c 0,79,80
 140 831 140 831 151.5 819 c 128,-1,81
 163 807 163 807 172.5 789 c 128,-1,82
 182 771 182 771 192.5 750.5 c 128,-1,83
 203 730 203 730 218 714 c 1,84,85
 216 729 216 729 211 745.5 c 128,-1,86
 206 762 206 762 201 777.5 c 128,-1,87
 196 793 196 793 192.5 807 c 128,-1,88
 189 821 189 821 189 831 c 0,89,90
 189 848 189 848 197.5 859.5 c 128,-1,91
 206 871 206 871 223 873 c 1,92,93
 241 873 241 873 250 861 c 128,-1,94
 259 849 259 849 259 831 c 0,95,96
 259 821 259 821 255 807.5 c 128,-1,97
 251 794 251 794 246.5 778.5 c 128,-1,98
 242 763 242 763 237 746.5 c 128,-1,99
 232 730 232 730 231 714 c 1,100,101
 245 731 245 731 255.5 751.5 c 128,-1,102
 266 772 266 772 276 789.5 c 128,-1,103
 286 807 286 807 297.5 819 c 128,-1,104
 309 831 309 831 325 831 c 0,105,106
 338 831 338 831 347 823 c 2,107,-1
 350 820 l 1,108,109
 359 809 359 809 359 798 c 0,110,111
 359 782 359 782 347 771 c 128,-1,112
 335 760 335 760 317 750 c 128,-1,113
 299 740 299 740 278.5 729.5 c 128,-1,114
 258 719 258 719 240 704 c 1,115,116
 256 706 256 706 272.5 710.5 c 128,-1,117
 289 715 289 715 304.5 720 c 128,-1,118
 320 725 320 725 333.5 729 c 128,-1,119
 347 733 347 733 357 733 c 0,120,121
 374 733 374 733 386 724.5 c 128,-1,122
 398 716 398 716 399 699 c 1,123,-1
 399 696 l 1,0,1
EndSplineSet
EndChar

StartChar: plus
Encoding: 43 43 14
Width: 833
VWidth: 1700
GlyphClass: 2
Flags: W
LayerCount: 2
Fore
SplineSet
204 59 m 0,0,1
 202 59 202 59 198.5 61 c 128,-1,2
 195 63 195 63 195 68 c 0,3,4
 195 69 195 69 197 73 c 2,5,-1
 573 651 l 2,6,7
 575 655 575 655 580 655 c 0,8,9
 589 655 589 655 589 645 c 0,10,11
 589 642 589 642 588 641 c 2,12,-1
 212 63 l 1,13,14
 208 59 208 59 204 59 c 0,0,1
725 367 m 2,15,-1
 120 367 l 2,16,17
 111 367 111 367 111 376 c 256,18,19
 111 385 111 385 120 385 c 2,20,-1
 725 385 l 2,21,22
 734 385 734 385 734 376 c 256,23,24
 734 367 734 367 725 367 c 2,15,-1
EndSplineSet
EndChar

StartChar: comma
Encoding: 44 44 15
Width: 203
VWidth: 1700
GlyphClass: 2
Flags: W
LayerCount: 2
Fore
SplineSet
182 52 m 0,0,1
 182 47 182 47 178.5 33.5 c 128,-1,2
 175 20 175 20 164 4.5 c 128,-1,3
 153 -11 153 -11 131.5 -27 c 128,-1,4
 110 -43 110 -43 73 -53 c 1,5,6
 62 -53 62 -53 62 -44 c 0,7,8
 62 -40 62 -40 69 -36 c 1,9,10
 92 -30 92 -30 107.5 -21.5 c 128,-1,11
 123 -13 123 -13 134 -3 c 1,12,13
 131 -4 131 -4 125 -4 c 0,14,15
 102 -4 102 -4 85.5 12.5 c 128,-1,16
 69 29 69 29 69 52 c 0,17,18
 69 76 69 76 85.5 92.5 c 128,-1,19
 102 109 102 109 125 109 c 0,20,21
 149 109 149 109 165.5 92.5 c 128,-1,22
 182 76 182 76 182 52 c 0,0,1
EndSplineSet
EndChar

StartChar: hyphen
Encoding: 45 45 16
Width: 716
VWidth: 1700
GlyphClass: 2
Flags: W
LayerCount: 2
Fore
SplineSet
661 303 m 2,0,-1
 56 303 l 2,1,2
 47 303 47 303 47 312 c 256,3,4
 47 321 47 321 56 321 c 2,5,-1
 661 321 l 2,6,7
 670 321 670 321 670 312 c 256,8,9
 670 303 670 303 661 303 c 2,0,-1
EndSplineSet
EndChar

StartChar: period
Encoding: 46 46 17
Width: 223
VWidth: 1700
GlyphClass: 2
Flags: W
LayerCount: 2
Fore
SplineSet
190 46 m 0,0,1
 190 23 190 23 173 6.5 c 128,-1,2
 156 -10 156 -10 133 -10 c 256,3,4
 110 -10 110 -10 93.5 6.5 c 128,-1,5
 77 23 77 23 77 46 c 0,6,7
 77 70 77 70 93.5 86.5 c 128,-1,8
 110 103 110 103 133 103 c 256,9,10
 156 103 156 103 173 86.5 c 128,-1,11
 190 70 190 70 190 46 c 0,0,1
EndSplineSet
EndChar

StartChar: slash
Encoding: 47 47 18
Width: 969
VWidth: 1700
GlyphClass: 2
Flags: W
LayerCount: 2
Fore
SplineSet
176 -225 m 0,0,1
 167 -225 167 -225 167 -216 c 0,2,3
 167 -215 167 -215 169 -211 c 2,4,-1
 982 1059 l 1,5,6
 986 1063 986 1063 989 1063 c 0,7,8
 999 1063 999 1063 999 1054 c 0,9,10
 999 1051 999 1051 997 1049 c 2,11,-1
 184 -221 l 2,12,13
 181 -225 181 -225 176 -225 c 0,0,1
EndSplineSet
EndChar

StartChar: zero
Encoding: 48 48 19
Width: 778
VWidth: 1700
GlyphClass: 2
Flags: W
LayerCount: 2
Fore
SplineSet
266 -22 m 0,0,1
 173 -22 173 -22 120 38 c 128,-1,2
 67 98 67 98 67 213 c 0,3,4
 67 290 67 290 92 377 c 128,-1,5
 117 464 117 464 160.5 549 c 128,-1,6
 204 634 204 634 263 712 c 128,-1,7
 322 790 322 790 390.5 849.5 c 128,-1,8
 459 909 459 909 534 944.5 c 128,-1,9
 609 980 609 980 684 980 c 0,10,11
 706 980 706 980 717 978.5 c 128,-1,12
 728 977 728 977 732.5 975 c 128,-1,13
 737 973 737 973 736.5 971 c 128,-1,14
 736 969 736 969 736 967 c 0,15,16
 736 956 736 956 726 956 c 1,17,18
 726 956 726 956 725 956.5 c 128,-1,19
 724 957 724 957 720.5 957.5 c 128,-1,20
 717 958 717 958 708 958.5 c 128,-1,21
 699 959 699 959 683 959 c 0,22,23
 668 959 668 959 642 956.5 c 128,-1,24
 616 954 616 954 582.5 944 c 128,-1,25
 549 934 549 934 508 913.5 c 128,-1,26
 467 893 467 893 422 857 c 128,-1,27
 377 821 377 821 328.5 766.5 c 128,-1,28
 280 712 280 712 231 634 c 0,29,30
 162 524 162 524 124.5 414 c 128,-1,31
 87 304 87 304 87 213 c 0,32,33
 87 110 87 110 133.5 53.5 c 128,-1,34
 180 -3 180 -3 266 -3 c 0,35,36
 328 -3 328 -3 388.5 28 c 128,-1,37
 449 59 449 59 505.5 117.5 c 128,-1,38
 562 176 562 176 614 261.5 c 128,-1,39
 666 347 666 347 711 456 c 0,40,41
 741 529 741 529 752.5 585.5 c 128,-1,42
 764 642 764 642 764 687 c 0,43,44
 764 720 764 720 759 746 c 128,-1,45
 754 772 754 772 746.5 791.5 c 128,-1,46
 739 811 739 811 730 824.5 c 128,-1,47
 721 838 721 838 714 846 c 0,48,49
 694 869 694 869 667.5 880.5 c 128,-1,50
 641 892 641 892 613 892 c 0,51,52
 596 892 596 892 578 887 c 1,53,-1
 577 887 l 1,54,55
 563 882 563 882 552 872 c 0,56,57
 542 864 542 864 534.5 849.5 c 128,-1,58
 527 835 527 835 527 812 c 0,59,60
 527 790 527 790 542.5 776 c 128,-1,61
 558 762 558 762 576.5 753.5 c 128,-1,62
 595 745 595 745 611 742 c 128,-1,63
 627 739 627 739 627 739 c 2,64,65
 636 737 636 737 636 729 c 0,66,67
 636 719 636 719 626 719 c 1,68,69
 631 719 631 719 613 721 c 128,-1,70
 595 723 595 723 566 737 c 0,71,72
 507 766 507 766 507 813 c 0,73,74
 507 842 507 842 517.5 860.5 c 128,-1,75
 528 879 528 879 540 889 c 128,-1,76
 552 899 552 899 562 902.5 c 128,-1,77
 572 906 572 906 572 906 c 1,78,79
 593 912 593 912 614 912 c 0,80,81
 650 912 650 912 681.5 895.5 c 128,-1,82
 713 879 713 879 735.5 850 c 128,-1,83
 758 821 758 821 771 779.5 c 128,-1,84
 784 738 784 738 784 689 c 0,85,86
 784 637 784 637 771 579 c 128,-1,87
 758 521 758 521 735.5 462.5 c 128,-1,88
 713 404 713 404 684 347.5 c 128,-1,89
 655 291 655 291 623 240.5 c 128,-1,90
 591 190 591 190 559 149.5 c 128,-1,91
 527 109 527 109 498 82 c 0,92,93
 385 -22 385 -22 266 -22 c 0,0,1
EndSplineSet
EndChar

StartChar: one
Encoding: 49 49 20
Width: 567
VWidth: 1700
GlyphClass: 2
Flags: W
LayerCount: 2
Fore
SplineSet
87 -8 m 0,0,1
 82 -5 82 -5 82 0 c 0,2,3
 82 2 82 2 84 6 c 0,4,5
 136 84 136 84 195 168.5 c 128,-1,6
 254 253 254 253 314.5 337.5 c 128,-1,7
 375 422 375 422 434.5 503.5 c 128,-1,8
 494 585 494 585 548 658 c 128,-1,9
 602 731 602 731 648 792 c 128,-1,10
 694 853 694 853 727 897 c 1,11,12
 659 848 659 848 574.5 811 c 128,-1,13
 490 774 490 774 385 751 c 0,14,15
 333 739 333 739 287.5 732.5 c 128,-1,16
 242 726 242 726 207.5 723 c 128,-1,17
 173 720 173 720 153 719.5 c 128,-1,18
 133 719 133 719 133 719 c 2,19,20
 123 719 123 719 123 729 c 0,21,22
 123 738 123 738 133.5 739 c 128,-1,23
 144 740 144 740 172.5 741 c 128,-1,24
 201 742 201 742 251.5 747 c 128,-1,25
 302 752 302 752 381 770 c 0,26,27
 428 780 428 780 482 797.5 c 128,-1,28
 536 815 536 815 591 840.5 c 128,-1,29
 646 866 646 866 698 901.5 c 128,-1,30
 750 937 750 937 793 984 c 1,31,-1
 808 972 l 1,32,33
 807 970 807 970 773 925.5 c 128,-1,34
 739 881 739 881 683 806.5 c 128,-1,35
 627 732 627 732 555 634 c 128,-1,36
 483 536 483 536 404.5 427.5 c 128,-1,37
 326 319 326 319 247.5 207.5 c 128,-1,38
 169 96 169 96 101 -6 c 0,39,40
 99 -10 99 -10 94 -10 c 0,41,42
 90 -10 90 -10 87 -8 c 0,0,1
EndSplineSet
EndChar

StartChar: two
Encoding: 50 50 21
Width: 806
VWidth: 1700
GlyphClass: 2
Flags: W
LayerCount: 2
Fore
SplineSet
614 -41 m 1,0,1
 589 -39 589 -39 561.5 -26 c 128,-1,2
 534 -13 534 -13 501 2 c 128,-1,3
 468 17 468 17 429.5 29 c 128,-1,4
 391 41 391 41 343 41 c 0,5,6
 308 41 308 41 268.5 31 c 128,-1,7
 229 21 229 21 192.5 8.5 c 128,-1,8
 156 -4 156 -4 124.5 -14 c 128,-1,9
 93 -24 93 -24 74 -24 c 0,10,11
 62 -24 62 -24 53 -18.5 c 128,-1,12
 44 -13 44 -13 44 -1 c 0,13,14
 44 10 44 10 50.5 20.5 c 128,-1,15
 57 31 57 31 61 36 c 0,16,17
 102 90 102 90 160 143 c 128,-1,18
 218 196 218 196 285.5 247 c 128,-1,19
 353 298 353 298 425 345.5 c 128,-1,20
 497 393 497 393 565 436 c 128,-1,21
 633 479 633 479 693 517.5 c 128,-1,22
 753 556 753 556 796 588 c 0,23,24
 860 636 860 636 895 694.5 c 128,-1,25
 930 753 930 753 930 809 c 0,26,27
 930 843 930 843 917 870.5 c 128,-1,28
 904 898 904 898 881 917.5 c 128,-1,29
 858 937 858 937 825 947 c 128,-1,30
 792 957 792 957 753 957 c 0,31,32
 709 957 709 957 664.5 945 c 128,-1,33
 620 933 620 933 579 910.5 c 128,-1,34
 538 888 538 888 503 854 c 128,-1,35
 468 820 468 820 445 777 c 0,36,37
 433 754 433 754 433 732 c 0,38,39
 433 709 433 709 451 690.5 c 128,-1,40
 469 672 469 672 510 672 c 0,41,42
 570 672 570 672 614 744 c 0,43,44
 632 774 632 774 639 792.5 c 128,-1,45
 646 811 646 811 648.5 821 c 128,-1,46
 651 831 651 831 652 834 c 128,-1,47
 653 837 653 837 660 837 c 0,48,49
 670 837 670 837 670 828 c 2,50,-1
 670 825 l 2,51,52
 670 824 670 824 667.5 816 c 128,-1,53
 665 808 665 808 660.5 795 c 128,-1,54
 656 782 656 782 648.5 765.5 c 128,-1,55
 641 749 641 749 631 733 c 0,56,57
 606 693 606 693 576 672 c 128,-1,58
 546 651 546 651 511 651 c 0,59,60
 485 651 485 651 466.5 658.5 c 128,-1,61
 448 666 448 666 436 678 c 128,-1,62
 424 690 424 690 418.5 704.5 c 128,-1,63
 413 719 413 719 413 734 c 0,64,65
 413 761 413 761 427 787 c 0,66,67
 452 833 452 833 487.5 868.5 c 128,-1,68
 523 904 523 904 564 928 c 128,-1,69
 605 952 605 952 651.5 964.5 c 128,-1,70
 698 977 698 977 746 977 c 0,71,72
 785 977 785 977 821.5 967.5 c 128,-1,73
 858 958 858 958 886.5 938 c 128,-1,74
 915 918 915 918 932.5 886 c 128,-1,75
 950 854 950 854 950 808 c 0,76,77
 950 772 950 772 937.5 738 c 128,-1,78
 925 704 925 704 905 673.5 c 128,-1,79
 885 643 885 643 859.5 617 c 128,-1,80
 834 591 834 591 808 572 c 0,81,82
 766 541 766 541 706.5 503.5 c 128,-1,83
 647 466 647 466 578.5 423 c 128,-1,84
 510 380 510 380 438 332.5 c 128,-1,85
 366 285 366 285 299 234.5 c 128,-1,86
 232 184 232 184 174 131 c 128,-1,87
 116 78 116 78 77 24 c 0,88,89
 72 17 72 17 67 11 c 128,-1,90
 62 5 62 5 62 1 c 1,91,92
 61 -1 61 -1 62 -2 c 0,93,94
 63 -5 63 -5 73 -5 c 0,95,96
 87 -5 87 -5 117 5.5 c 128,-1,97
 147 16 147 16 185.5 28 c 128,-1,98
 224 40 224 40 266 50.5 c 128,-1,99
 308 61 308 61 345 61 c 0,100,101
 395 61 395 61 435.5 48 c 128,-1,102
 476 35 476 35 510 20 c 128,-1,103
 544 5 544 5 571 -8 c 128,-1,104
 598 -21 598 -21 621 -21 c 0,105,106
 637 -21 637 -21 651.5 -13.5 c 128,-1,107
 666 -6 666 -6 680 13 c 0,108,109
 683 16 683 16 688 16 c 0,110,111
 698 16 698 16 698 7 c 0,112,113
 698 4 698 4 696 0 c 0,114,115
 679 -21 679 -21 660 -31 c 128,-1,116
 641 -41 641 -41 614 -41 c 1,0,1
EndSplineSet
EndChar

StartChar: three
Encoding: 51 51 22
Width: 833
VWidth: 1700
GlyphClass: 2
Flags: W
LayerCount: 2
Fore
SplineSet
259 -87 m 0,0,1
 149 -87 149 -87 87.5 -38 c 128,-1,2
 26 11 26 11 26 108 c 1,3,4
 29 156 29 156 44.5 189.5 c 128,-1,5
 60 223 60 223 78 244.5 c 128,-1,6
 96 266 96 266 111.5 277 c 128,-1,7
 127 288 127 288 130 290 c 0,8,9
 131 291 131 291 146.5 298 c 128,-1,10
 162 305 162 305 183 305 c 0,11,12
 198 305 198 305 212.5 299 c 128,-1,13
 227 293 227 293 238.5 281 c 128,-1,14
 250 269 250 269 257.5 252 c 128,-1,15
 265 235 265 235 265 213 c 0,16,17
 265 189 265 189 253.5 171.5 c 128,-1,18
 242 154 242 154 228.5 142.5 c 128,-1,19
 215 131 215 131 203 125 c 128,-1,20
 191 119 191 119 190 119 c 0,21,22
 189 118 189 118 187 118 c 0,23,24
 184 118 184 118 180 121 c 128,-1,25
 176 124 176 124 176 128 c 0,26,27
 176 134 176 134 183 138 c 2,28,29
 183 138 183 138 193 143 c 128,-1,30
 203 148 203 148 215 157.5 c 128,-1,31
 227 167 227 167 236.5 181 c 128,-1,32
 246 195 246 195 246 213 c 0,33,34
 246 230 246 230 240 243.5 c 128,-1,35
 234 257 234 257 224.5 266 c 128,-1,36
 215 275 215 275 204 279.5 c 128,-1,37
 193 284 193 284 184 284 c 256,38,39
 175 284 175 284 167 282 c 128,-1,40
 159 280 159 280 153 278 c 0,41,42
 146 275 146 275 140 273 c 0,43,44
 138 273 138 273 123.5 263 c 128,-1,45
 109 253 109 253 91.5 231 c 128,-1,46
 74 209 74 209 60 175.5 c 128,-1,47
 46 142 46 142 46 95 c 0,48,49
 46 60 46 60 59.5 30.5 c 128,-1,50
 73 1 73 1 99.5 -21 c 128,-1,51
 126 -43 126 -43 166 -55 c 128,-1,52
 206 -67 206 -67 260 -67 c 0,53,54
 340 -67 340 -67 422 -35 c 0,55,56
 450 -24 450 -24 483.5 -5.5 c 128,-1,57
 517 13 517 13 551.5 40.5 c 128,-1,58
 586 68 586 68 620 106 c 128,-1,59
 654 144 654 144 683 195 c 0,60,61
 713 249 713 249 725 295 c 128,-1,62
 737 341 737 341 737 379 c 0,63,64
 737 410 737 410 730.5 439.5 c 128,-1,65
 724 469 724 469 714.5 491.5 c 128,-1,66
 705 514 705 514 694 527.5 c 128,-1,67
 683 541 683 541 674 541 c 1,68,69
 668 539 668 539 636 539 c 0,70,71
 617 539 617 539 591 542.5 c 128,-1,72
 565 546 565 546 541 554 c 128,-1,73
 517 562 517 562 500 576.5 c 128,-1,74
 483 591 483 591 483 613 c 1,75,76
 483 613 483 613 483.5 619.5 c 128,-1,77
 484 626 484 626 489.5 634 c 128,-1,78
 495 642 495 642 508 648.5 c 128,-1,79
 521 655 521 655 546 655 c 0,80,81
 579 655 579 655 605.5 641.5 c 128,-1,82
 632 628 632 628 651 611 c 128,-1,83
 670 594 670 594 681 579.5 c 128,-1,84
 692 565 692 565 694 563 c 1,85,86
 704 565 704 565 723.5 570 c 128,-1,87
 743 575 743 575 766.5 587.5 c 128,-1,88
 790 600 790 600 816.5 621.5 c 128,-1,89
 843 643 843 643 868 677 c 0,90,91
 887 702 887 702 896 731.5 c 128,-1,92
 905 761 905 761 905 790 c 0,93,94
 905 825 905 825 893.5 853 c 128,-1,95
 882 881 882 881 861 900.5 c 128,-1,96
 840 920 840 920 811 930 c 128,-1,97
 782 940 782 940 748 940 c 0,98,99
 707 940 707 940 677.5 929.5 c 128,-1,100
 648 919 648 919 628.5 906.5 c 128,-1,101
 609 894 609 894 599 883.5 c 128,-1,102
 589 873 589 873 586 873 c 0,103,104
 575 873 575 873 575 883 c 0,105,106
 575 890 575 890 584 898.5 c 128,-1,107
 593 907 593 907 605.5 915.5 c 128,-1,108
 618 924 618 924 631 931.5 c 128,-1,109
 644 939 644 939 652 942 c 0,110,111
 695 960 695 960 746 960 c 0,112,113
 781 960 781 960 813.5 950 c 128,-1,114
 846 940 846 940 870.5 919 c 128,-1,115
 895 898 895 898 910 866 c 128,-1,116
 925 834 925 834 925 790 c 0,117,118
 925 739 925 739 904 699 c 128,-1,119
 883 659 883 659 854 630 c 128,-1,120
 825 601 825 601 794.5 582.5 c 128,-1,121
 764 564 764 564 745 557 c 1,122,123
 724 548 724 548 707 545 c 1,124,125
 725 518 725 518 741 473.5 c 128,-1,126
 757 429 757 429 757 380 c 0,127,128
 757 321 757 321 737 263.5 c 128,-1,129
 717 206 717 206 682 154.5 c 128,-1,130
 647 103 647 103 599.5 58.5 c 128,-1,131
 552 14 552 14 496.5 -18 c 128,-1,132
 441 -50 441 -50 380.5 -68.5 c 128,-1,133
 320 -87 320 -87 259 -87 c 0,0,1
548 635 m 0,134,135
 527 635 527 635 515 629.5 c 128,-1,136
 503 624 503 624 503 612 c 0,137,138
 503 596 503 596 518.5 586 c 128,-1,139
 534 576 534 576 555.5 570 c 128,-1,140
 577 564 577 564 600 561.5 c 128,-1,141
 623 559 623 559 638 559 c 0,142,143
 650 559 650 559 658 559.5 c 128,-1,144
 666 560 666 560 670 560 c 1,145,-1
 667 563 l 1,146,-1
 666 566 l 2,147,148
 665 566 665 566 657 577.5 c 128,-1,149
 649 589 649 589 633 603 c 0,150,151
 595 635 595 635 548 635 c 0,134,135
EndSplineSet
EndChar

StartChar: four
Encoding: 52 52 23
Width: 822
VWidth: 1700
GlyphClass: 2
Flags: W
LayerCount: 2
Fore
SplineSet
299 -25 m 256,0,1
 294 -25 294 -25 291.5 -21.5 c 128,-1,2
 289 -18 289 -18 289 -15 c 0,3,4
 289 -13 289 -13 291 -9 c 2,5,-1
 605 392 l 1,6,7
 557 401 557 401 501.5 405 c 128,-1,8
 446 409 446 409 380 409 c 0,9,10
 322 409 322 409 269.5 405.5 c 128,-1,11
 217 402 217 402 176.5 398.5 c 128,-1,12
 136 395 136 395 112 391.5 c 128,-1,13
 88 388 88 388 88 388 c 1,14,-1
 84 408 l 1,15,16
 163 429 163 429 248.5 465 c 128,-1,17
 334 501 334 501 417.5 544.5 c 128,-1,18
 501 588 501 588 579 635.5 c 128,-1,19
 657 683 657 683 722 726 c 0,20,21
 793 772 793 772 853.5 815 c 128,-1,22
 914 858 914 858 958 891 c 128,-1,23
 1002 924 1002 924 1027.5 944 c 128,-1,24
 1053 964 1053 964 1053 964 c 1,25,-1
 1067 950 l 1,26,-1
 640 405 l 1,27,28
 676 393 676 393 705 382 c 128,-1,29
 734 371 734 371 756.5 358 c 128,-1,30
 779 345 779 345 795.5 329 c 128,-1,31
 812 313 812 313 824 291 c 0,32,33
 825 289 825 289 825 286 c 0,34,35
 825 282 825 282 822.5 278.5 c 128,-1,36
 820 275 820 275 815 275 c 0,37,38
 808 275 808 275 807 281 c 1,39,40
 787 319 787 319 742.5 344 c 128,-1,41
 698 369 698 369 627 387 c 1,42,-1
 307 -21 l 2,43,44
 304 -25 304 -25 299 -25 c 256,0,1
387 430 m 0,45,46
 523 430 523 430 619 409 c 1,47,-1
 1002 899 l 1,48,49
 974 877 974 877 933 848 c 128,-1,50
 892 819 892 819 842.5 785.5 c 128,-1,51
 793 752 793 752 738.5 716 c 128,-1,52
 684 680 684 680 628.5 645 c 128,-1,53
 573 610 573 610 519 578.5 c 128,-1,54
 465 547 465 547 417 522 c 0,55,56
 356 490 356 490 299.5 464 c 128,-1,57
 243 438 243 438 190 420 c 1,58,59
 231 424 231 424 281.5 427 c 128,-1,60
 332 430 332 430 387 430 c 0,45,46
EndSplineSet
EndChar

StartChar: five
Encoding: 53 53 24
Width: 857
VWidth: 1700
GlyphClass: 2
Flags: W
LayerCount: 2
Fore
SplineSet
264 -54 m 0,0,1
 183 -54 183 -54 110 -9 c 0,2,3
 109 -9 109 -9 99 -1.5 c 128,-1,4
 89 6 89 6 78 20.5 c 128,-1,5
 67 35 67 35 57.5 56.5 c 128,-1,6
 48 78 48 78 48 107 c 0,7,8
 48 192 48 192 145 292 c 0,9,10
 148 295 148 295 152 295 c 0,11,12
 162 295 162 295 162 285 c 0,13,14
 162 281 162 281 159 278 c 0,15,16
 67 183 67 183 67 106 c 0,17,18
 67 82 67 82 75.5 63.5 c 128,-1,19
 84 45 84 45 93.5 33 c 128,-1,20
 103 21 103 21 111.5 14.5 c 128,-1,21
 120 8 120 8 120 8 c 1,22,23
 158 -15 158 -15 194 -24.5 c 128,-1,24
 230 -34 230 -34 264 -34 c 0,25,26
 303 -34 303 -34 339 -23 c 128,-1,27
 375 -12 375 -12 406 4.5 c 128,-1,28
 437 21 437 21 462.5 41 c 128,-1,29
 488 61 488 61 508 79 c 0,30,31
 547 116 547 116 578.5 157 c 128,-1,32
 610 198 610 198 632 233 c 128,-1,33
 654 268 654 268 666.5 291 c 128,-1,34
 679 314 679 314 679 315 c 256,35,36
 679 316 679 316 685.5 330 c 128,-1,37
 692 344 692 344 700 367.5 c 128,-1,38
 708 391 708 391 714.5 422 c 128,-1,39
 721 453 721 453 721 487 c 0,40,41
 721 520 721 520 711 551.5 c 128,-1,42
 701 583 701 583 680 607 c 128,-1,43
 659 631 659 631 626.5 646 c 128,-1,44
 594 661 594 661 550 661 c 0,45,46
 508 661 508 661 466 644 c 128,-1,47
 424 627 424 627 390 607 c 128,-1,48
 356 587 356 587 334 569.5 c 128,-1,49
 312 552 312 552 312 552 c 1,50,-1
 297 565 l 1,51,-1
 533 869 l 2,52,53
 534 870 534 870 537 874.5 c 128,-1,54
 540 879 540 879 546 884 c 128,-1,55
 552 889 552 889 561.5 892.5 c 128,-1,56
 571 896 571 896 585 896 c 256,57,58
 599 896 599 896 619 890 c 0,59,60
 653 879 653 879 687.5 874.5 c 128,-1,61
 722 870 722 870 754 870 c 0,62,63
 802 870 802 870 842.5 876 c 128,-1,64
 883 882 883 882 913.5 889.5 c 128,-1,65
 944 897 944 897 962.5 903.5 c 128,-1,66
 981 910 981 910 984 910 c 0,67,68
 988 910 988 910 991.5 907 c 128,-1,69
 995 904 995 904 995 900 c 0,70,71
 995 899 995 899 995 896 c 128,-1,72
 995 893 995 893 984.5 887.5 c 128,-1,73
 974 882 974 882 946.5 875 c 128,-1,74
 919 868 919 868 865 859 c 0,75,76
 808 850 808 850 756 850 c 0,77,78
 676 850 676 850 612 871 c 0,79,80
 598 876 598 876 584 876 c 0,81,82
 564 876 564 876 557 868 c 128,-1,83
 550 860 550 860 550 859 c 2,84,-1
 357 610 l 1,85,86
 409 643 409 643 459.5 662 c 128,-1,87
 510 681 510 681 552 681 c 0,88,89
 601 681 601 681 636.5 664 c 128,-1,90
 672 647 672 647 695.5 620 c 128,-1,91
 719 593 719 593 730.5 558.5 c 128,-1,92
 742 524 742 524 742 488 c 0,93,94
 742 458 742 458 735 426.5 c 128,-1,95
 728 395 728 395 720 368.5 c 128,-1,96
 712 342 712 342 704.5 324.5 c 128,-1,97
 697 307 697 307 697 306 c 0,98,99
 645 205 645 205 578 126 c 0,100,101
 549 92 549 92 515 60 c 128,-1,102
 481 28 481 28 441 2.5 c 128,-1,103
 401 -23 401 -23 356.5 -38.5 c 128,-1,104
 312 -54 312 -54 264 -54 c 0,0,1
EndSplineSet
EndChar

StartChar: six
Encoding: 54 54 25
Width: 697
VWidth: 1700
GlyphClass: 2
Flags: W
LayerCount: 2
Fore
SplineSet
251 -69 m 0,0,1
 160 -69 160 -69 115 -22 c 128,-1,2
 70 25 70 25 70 112 c 0,3,4
 70 180 70 180 90.5 253 c 128,-1,5
 111 326 111 326 145 398.5 c 128,-1,6
 179 471 179 471 223.5 540 c 128,-1,7
 268 609 268 609 315.5 668.5 c 128,-1,8
 363 728 363 728 409.5 775.5 c 128,-1,9
 456 823 456 823 496 853 c 0,10,11
 530 879 530 879 558.5 894.5 c 128,-1,12
 587 910 587 910 610 918 c 128,-1,13
 633 926 633 926 650 928.5 c 128,-1,14
 667 931 667 931 678 931 c 0,15,16
 731 931 731 931 759 906 c 128,-1,17
 787 881 787 881 787 835 c 0,18,19
 787 814 787 814 782 792.5 c 128,-1,20
 777 771 777 771 770.5 753.5 c 128,-1,21
 764 736 764 736 758.5 724.5 c 128,-1,22
 753 713 753 713 752 712 c 0,23,24
 750 706 750 706 744 706 c 0,25,26
 739 706 739 706 736 709.5 c 128,-1,27
 733 713 733 713 733 717 c 0,28,29
 733 718 733 718 735 722 c 2,30,31
 735 722 735 722 740 732.5 c 128,-1,32
 745 743 745 743 751 759.5 c 128,-1,33
 757 776 757 776 762 796 c 128,-1,34
 767 816 767 816 767 836 c 0,35,36
 767 911 767 911 676 911 c 0,37,38
 633 911 633 911 581 884 c 128,-1,39
 529 857 529 857 472 806.5 c 128,-1,40
 415 756 415 756 355.5 684.5 c 128,-1,41
 296 613 296 613 239 525 c 0,42,43
 206 475 206 475 179 419.5 c 128,-1,44
 152 364 152 364 132 309.5 c 128,-1,45
 112 255 112 255 101 204 c 128,-1,46
 90 153 90 153 90 113 c 0,47,48
 90 -49 90 -49 252 -49 c 0,49,50
 320 -49 320 -49 375.5 -21 c 128,-1,51
 431 7 431 7 474.5 49 c 128,-1,52
 518 91 518 91 549 138.5 c 128,-1,53
 580 186 580 186 600 225 c 0,54,55
 624 273 624 273 636.5 319 c 128,-1,56
 649 365 649 365 649 404 c 0,57,58
 649 476 649 476 610.5 514 c 128,-1,59
 572 552 572 552 505 552 c 0,60,61
 400 552 400 552 316 480 c 0,62,63
 287 455 287 455 273.5 438.5 c 128,-1,64
 260 422 260 422 254 412 c 128,-1,65
 248 402 248 402 246 398 c 128,-1,66
 244 394 244 394 238 394 c 0,67,68
 233 394 233 394 230.5 397.5 c 128,-1,69
 228 401 228 401 228 405 c 0,70,71
 228 408 228 408 229 410 c 0,72,73
 230 413 230 413 239.5 426 c 128,-1,74
 249 439 249 439 266 457 c 128,-1,75
 283 475 283 475 306.5 495 c 128,-1,76
 330 515 330 515 360 532.5 c 128,-1,77
 390 550 390 550 426 561 c 128,-1,78
 462 572 462 572 503 572 c 0,79,80
 581 572 581 572 625 527.5 c 128,-1,81
 669 483 669 483 669 402 c 0,82,83
 669 360 669 360 655.5 312.5 c 128,-1,84
 642 265 642 265 617 216 c 0,85,86
 596 176 596 176 563.5 126.5 c 128,-1,87
 531 77 531 77 485.5 33.5 c 128,-1,88
 440 -10 440 -10 381.5 -39.5 c 128,-1,89
 323 -69 323 -69 251 -69 c 0,0,1
EndSplineSet
EndChar

StartChar: seven
Encoding: 55 55 26
Width: 467
VWidth: 1700
GlyphClass: 2
Flags: W
LayerCount: 2
Fore
SplineSet
42 -108 m 0,0,1
 32 -108 32 -108 32 -98 c 0,2,3
 32 -94 32 -94 35 -91 c 0,4,5
 36 -90 36 -90 69.5 -50.5 c 128,-1,6
 103 -11 103 -11 157.5 54 c 128,-1,7
 212 119 212 119 280.5 202 c 128,-1,8
 349 285 349 285 419 373 c 0,9,10
 502 476 502 476 566.5 561.5 c 128,-1,11
 631 647 631 647 675.5 711.5 c 128,-1,12
 720 776 720 776 743 818 c 128,-1,13
 766 860 766 860 766 877 c 0,14,15
 766 880 766 880 764 880 c 256,16,17
 762 880 762 880 758.5 879.5 c 128,-1,18
 755 879 755 879 750 877 c 0,19,20
 703 860 703 860 646 851.5 c 128,-1,21
 589 843 589 843 520 843 c 0,22,23
 467 843 467 843 412.5 848 c 128,-1,24
 358 853 358 853 314.5 859.5 c 128,-1,25
 271 866 271 866 243.5 871.5 c 128,-1,26
 216 877 216 877 218 877 c 1,27,28
 210 879 210 879 210 887 c 0,29,30
 210 896 210 896 220 896 c 0,31,32
 223 896 223 896 248 891 c 128,-1,33
 273 886 273 886 313.5 879.5 c 128,-1,34
 354 873 354 873 407.5 868 c 128,-1,35
 461 863 461 863 520 863 c 0,36,37
 577 863 577 863 634.5 870 c 128,-1,38
 692 877 692 877 743 896 c 0,39,40
 752 900 752 900 763 900 c 0,41,42
 773 900 773 900 779.5 894 c 128,-1,43
 786 888 786 888 786 876 c 0,44,45
 786 868 786 868 782 854.5 c 128,-1,46
 778 841 778 841 767 820 c 128,-1,47
 756 799 756 799 737 768.5 c 128,-1,48
 718 738 718 738 689 696 c 0,49,50
 644 632 644 632 581 548 c 128,-1,51
 518 464 518 464 435 360 c 0,52,53
 388 301 388 301 341.5 244.5 c 128,-1,54
 295 188 295 188 252.5 136.5 c 128,-1,55
 210 85 210 85 173 41 c 128,-1,56
 136 -3 136 -3 109 -35 c 128,-1,57
 82 -67 82 -67 66 -85.5 c 128,-1,58
 50 -104 50 -104 50 -105 c 0,59,60
 47 -108 47 -108 42 -108 c 0,0,1
EndSplineSet
EndChar

StartChar: eight
Encoding: 56 56 27
Width: 1000
VWidth: 1700
GlyphClass: 2
Flags: W
LayerCount: 2
Fore
SplineSet
225 -123 m 0,0,1
 119 -123 119 -123 63 -81 c 128,-1,2
 7 -39 7 -39 7 46 c 0,3,4
 7 64 7 64 9.5 79.5 c 128,-1,5
 12 95 12 95 15 107.5 c 128,-1,6
 18 120 18 120 21 128 c 128,-1,7
 24 136 24 136 24 138 c 0,8,9
 26 143 26 143 34 161 c 128,-1,10
 42 179 42 179 58 205 c 128,-1,11
 74 231 74 231 97.5 263 c 128,-1,12
 121 295 121 295 153.5 327.5 c 128,-1,13
 186 360 186 360 229 391.5 c 128,-1,14
 272 423 272 423 325 447 c 0,15,16
 400 481 400 481 458.5 498 c 128,-1,17
 517 515 517 515 558 528 c 1,18,19
 537 570 537 570 520.5 611 c 128,-1,20
 504 652 504 652 504 697 c 0,21,22
 504 737 504 737 520.5 776.5 c 128,-1,23
 537 816 537 816 566 846.5 c 128,-1,24
 595 877 595 877 635.5 896 c 128,-1,25
 676 915 676 915 723 915 c 0,26,27
 758 915 758 915 790 904.5 c 128,-1,28
 822 894 822 894 849 874 c 1,29,30
 843 903 843 903 833 929 c 128,-1,31
 823 955 823 955 814 974 c 0,32,33
 803 996 803 996 791 1015 c 0,34,35
 788 1018 788 1018 788 1021 c 256,36,37
 788 1024 788 1024 790.5 1027.5 c 128,-1,38
 793 1031 793 1031 798 1031 c 0,39,40
 801 1031 801 1031 807 1027 c 0,41,42
 807 1026 807 1026 816 1012.5 c 128,-1,43
 825 999 825 999 836 975.5 c 128,-1,44
 847 952 847 952 857.5 920.5 c 128,-1,45
 868 889 868 889 872 853 c 1,46,47
 926 793 926 793 926 705 c 0,48,49
 926 699 926 699 926 689.5 c 128,-1,50
 926 680 926 680 925 671.5 c 128,-1,51
 924 663 924 663 921 657 c 128,-1,52
 918 651 918 651 913 651 c 256,53,54
 908 651 908 651 905.5 654.5 c 128,-1,55
 903 658 903 658 903 663 c 0,56,57
 906 685 906 685 906 705 c 0,58,59
 906 741 906 741 897 769 c 128,-1,60
 888 797 888 797 873 820 c 1,61,62
 873 775 873 775 858.5 733.5 c 128,-1,63
 844 692 844 692 817 654 c 0,64,65
 800 631 800 631 775.5 611.5 c 128,-1,66
 751 592 751 592 720.5 575.5 c 128,-1,67
 690 559 690 559 656 544.5 c 128,-1,68
 622 530 622 530 586 517 c 1,69,70
 610 468 610 468 630 415 c 128,-1,71
 650 362 650 362 650 298 c 0,72,73
 650 254 650 254 637.5 204 c 128,-1,74
 625 154 625 154 597.5 105 c 128,-1,75
 570 56 570 56 527 11.5 c 128,-1,76
 484 -33 484 -33 424 -66 c 0,77,78
 375 -93 375 -93 323 -108 c 128,-1,79
 271 -123 271 -123 225 -123 c 0,0,1
567 510 m 1,80,81
 527 495 527 495 467.5 479 c 128,-1,82
 408 463 408 463 334 429 c 0,83,84
 271 400 271 400 225.5 366.5 c 128,-1,85
 180 333 180 333 148 300 c 128,-1,86
 116 267 116 267 96.5 236 c 128,-1,87
 77 205 77 205 65.5 182 c 128,-1,88
 54 159 54 159 49.5 145 c 128,-1,89
 45 131 45 131 43 132 c 1,90,-1
 43 131 l 2,91,92
 43 130 43 130 35 105 c 128,-1,93
 27 80 27 80 27 45 c 0,94,95
 27 -25 27 -25 76 -64 c 128,-1,96
 125 -103 125 -103 225 -103 c 0,97,98
 266 -103 266 -103 315 -89.5 c 128,-1,99
 364 -76 364 -76 411.5 -50.5 c 128,-1,100
 459 -25 459 -25 500.5 11.5 c 128,-1,101
 542 48 542 48 568 94 c 0,102,103
 602 154 602 154 616 203.5 c 128,-1,104
 630 253 630 253 630 298 c 0,105,106
 630 360 630 360 610 411.5 c 128,-1,107
 590 463 590 463 567 510 c 1,80,81
723 895 m 0,108,109
 691 895 691 895 656 882.5 c 128,-1,110
 621 870 621 870 591.5 845 c 128,-1,111
 562 820 562 820 543 783 c 128,-1,112
 524 746 524 746 524 697 c 0,113,114
 524 655 524 655 540 616 c 128,-1,115
 556 577 556 577 577 535 c 1,116,117
 611 548 611 548 644.5 562 c 128,-1,118
 678 576 678 576 707.5 591.5 c 128,-1,119
 737 607 737 607 761 625.5 c 128,-1,120
 785 644 785 644 801 666 c 0,121,122
 853 739 853 739 853 822 c 0,123,124
 853 827 853 827 852.5 832.5 c 128,-1,125
 852 838 852 838 852 844 c 1,126,127
 825 871 825 871 791 883 c 128,-1,128
 757 895 757 895 723 895 c 0,108,109
EndSplineSet
EndChar

StartChar: nine
Encoding: 57 57 28
Width: 553
VWidth: 1700
GlyphClass: 2
Flags: W
LayerCount: 2
Fore
SplineSet
133 -60 m 0,0,1
 123 -60 123 -60 123 -50 c 0,2,3
 123 -48 123 -48 125 -44 c 2,4,-1
 695 733 l 1,5,6
 561 599 561 599 456 532 c 128,-1,7
 351 465 351 465 269 465 c 0,8,9
 231 465 231 465 199.5 476.5 c 128,-1,10
 168 488 168 488 144.5 509 c 128,-1,11
 121 530 121 530 108 559 c 128,-1,12
 95 588 95 588 95 624 c 0,13,14
 95 681 95 681 130.5 740 c 128,-1,15
 166 799 166 799 228 847 c 128,-1,16
 290 895 290 895 374 925.5 c 128,-1,17
 458 956 458 956 554 956 c 0,18,19
 595 956 595 956 630 951.5 c 128,-1,20
 665 947 665 947 690 941.5 c 128,-1,21
 715 936 715 936 729.5 931 c 128,-1,22
 744 926 744 926 745 926 c 0,23,24
 752 922 752 922 752 917 c 256,25,26
 752 912 752 912 748.5 909 c 128,-1,27
 745 906 745 906 741 906 c 0,28,29
 739 906 739 906 738 907 c 0,30,31
 714 915 714 915 685 921 c 0,32,33
 660 926 660 926 626.5 931 c 128,-1,34
 593 936 593 936 554 936 c 0,35,36
 496 936 496 936 425 920.5 c 128,-1,37
 354 905 354 905 281 859 c 0,38,39
 203 809 203 809 159 747.5 c 128,-1,40
 115 686 115 686 115 625 c 0,41,42
 115 593 115 593 127 567 c 128,-1,43
 139 541 139 541 160 523 c 128,-1,44
 181 505 181 505 209 495 c 128,-1,45
 237 485 237 485 269 485 c 0,46,47
 337 485 337 485 428 538 c 128,-1,48
 519 591 519 591 636 703 c 0,49,50
 674 739 674 739 706.5 773.5 c 128,-1,51
 739 808 739 808 763 835 c 128,-1,52
 787 862 787 862 800.5 879 c 128,-1,53
 814 896 814 896 814 896 c 1,54,-1
 830 884 l 1,55,-1
 141 -56 l 2,56,57
 138 -60 138 -60 133 -60 c 0,0,1
EndSplineSet
EndChar

StartChar: colon
Encoding: 58 58 29
Width: 324
VWidth: 1700
GlyphClass: 2
Flags: W
LayerCount: 2
Fore
SplineSet
231 103 m 0,0,1
 231 80 231 80 214 63.5 c 128,-1,2
 197 47 197 47 174 47 c 256,3,4
 151 47 151 47 134.5 63.5 c 128,-1,5
 118 80 118 80 118 103 c 0,6,7
 118 127 118 127 134.5 143.5 c 128,-1,8
 151 160 151 160 174 160 c 256,9,10
 197 160 197 160 214 143.5 c 128,-1,11
 231 127 231 127 231 103 c 0,0,1
296 376 m 0,12,13
 296 353 296 353 279 336.5 c 128,-1,14
 262 320 262 320 239 320 c 256,15,16
 216 320 216 320 199.5 336.5 c 128,-1,17
 183 353 183 353 183 376 c 0,18,19
 183 400 183 400 199.5 416.5 c 128,-1,20
 216 433 216 433 239 433 c 256,21,22
 262 433 262 433 279 416.5 c 128,-1,23
 296 400 296 400 296 376 c 0,12,13
EndSplineSet
EndChar

StartChar: semicolon
Encoding: 59 59 30
Width: 332
VWidth: 1700
GlyphClass: 2
Flags: W
LayerCount: 2
Fore
SplineSet
296 376 m 0,0,1
 296 353 296 353 279 336.5 c 128,-1,2
 262 320 262 320 239 320 c 256,3,4
 216 320 216 320 199.5 336.5 c 128,-1,5
 183 353 183 353 183 376 c 0,6,7
 183 400 183 400 199.5 416.5 c 128,-1,8
 216 433 216 433 239 433 c 256,9,10
 262 433 262 433 279 416.5 c 128,-1,11
 296 400 296 400 296 376 c 0,0,1
182 52 m 0,12,13
 182 76 182 76 165.5 92.5 c 128,-1,14
 149 109 149 109 125 109 c 0,15,16
 102 109 102 109 85.5 92.5 c 128,-1,17
 69 76 69 76 69 52 c 0,18,19
 69 29 69 29 85.5 12.5 c 128,-1,20
 102 -4 102 -4 125 -4 c 0,21,22
 131 -4 131 -4 134 -3 c 1,23,24
 123 -13 123 -13 107.5 -21.5 c 128,-1,25
 92 -30 92 -30 69 -36 c 1,26,27
 62 -40 62 -40 62 -44 c 0,28,29
 62 -53 62 -53 73 -53 c 1,30,31
 110 -43 110 -43 131.5 -27 c 128,-1,32
 153 -11 153 -11 164 4.5 c 128,-1,33
 175 20 175 20 178.5 33.5 c 128,-1,34
 182 47 182 47 182 52 c 0,12,13
EndSplineSet
EndChar

StartChar: less
Encoding: 60 60 31
Width: 833
VWidth: 1700
GlyphClass: 2
Flags: W
LayerCount: 2
Fore
SplineSet
380 85 m 256,0,1
 371 85 371 85 371 93 c 0,2,3
 368 135 368 135 346 173.5 c 128,-1,4
 324 212 324 212 293 244 c 128,-1,5
 262 276 262 276 227 302 c 128,-1,6
 192 328 192 328 162.5 346.5 c 128,-1,7
 133 365 133 365 114 375.5 c 128,-1,8
 95 386 95 386 97 387 c 1,9,10
 92 390 92 390 92 396 c 0,11,12
 92 404 92 404 102 404 c 1,13,14
 127 401 127 401 154 401 c 0,15,16
 208 401 208 401 259 411 c 128,-1,17
 310 421 310 421 356.5 437.5 c 128,-1,18
 403 454 403 454 443.5 474.5 c 128,-1,19
 484 495 484 495 517 515 c 0,20,21
 557 539 557 539 590 563.5 c 128,-1,22
 623 588 623 588 646 607 c 128,-1,23
 669 626 669 626 681.5 638.5 c 128,-1,24
 694 651 694 651 694 651 c 2,25,26
 696 652 696 652 697.5 653 c 128,-1,27
 699 654 699 654 701 654 c 0,28,29
 709 654 709 654 709 645 c 0,30,31
 709 642 709 642 707 638 c 1,32,33
 707 638 707 638 694 625.5 c 128,-1,34
 681 613 681 613 657.5 593.5 c 128,-1,35
 634 574 634 574 601 549.5 c 128,-1,36
 568 525 568 525 527 500 c 0,37,38
 433 443 433 443 340 413 c 128,-1,39
 247 383 247 383 156 384 c 1,40,-1
 139 384 l 1,41,42
 178 360 178 360 220.5 327.5 c 128,-1,43
 263 295 263 295 299.5 257 c 128,-1,44
 336 219 336 219 361 177.5 c 128,-1,45
 386 136 386 136 389 95 c 0,46,47
 389 85 389 85 380 85 c 256,0,1
EndSplineSet
EndChar

StartChar: equal
Encoding: 61 61 32
Width: 833
VWidth: 1700
GlyphClass: 2
Flags: W
LayerCount: 2
Fore
SplineSet
774 443 m 2,0,-1
 169 443 l 2,1,2
 160 443 160 443 160 452 c 256,3,4
 160 461 160 461 169 461 c 2,5,-1
 774 461 l 2,6,7
 783 461 783 461 783 452 c 256,8,9
 783 443 783 443 774 443 c 2,0,-1
651 234 m 2,10,-1
 46 234 l 2,11,12
 37 234 37 234 37 243 c 256,13,14
 37 252 37 252 46 252 c 2,15,-1
 651 252 l 2,16,17
 660 252 660 252 660 243 c 256,18,19
 660 234 660 234 651 234 c 2,10,-1
EndSplineSet
EndChar

StartChar: greater
Encoding: 62 62 33
Width: 833
VWidth: 1700
GlyphClass: 2
Flags: W
LayerCount: 2
Fore
SplineSet
85 117 m 256,0,1
 81 117 81 117 78.5 120 c 128,-1,2
 76 123 76 123 76 126 c 256,3,4
 76 129 76 129 79 132 c 0,5,6
 79 133 79 133 93.5 146.5 c 128,-1,7
 108 160 108 160 133 180.5 c 128,-1,8
 158 201 158 201 193.5 226 c 128,-1,9
 229 251 229 251 270 275.5 c 128,-1,10
 311 300 311 300 357.5 322 c 128,-1,11
 404 344 404 344 452 359 c 0,12,13
 497 373 497 373 541 380.5 c 128,-1,14
 585 388 585 388 629 387 c 1,15,-1
 646 387 l 1,16,17
 608 410 608 410 565.5 442.5 c 128,-1,18
 523 475 523 475 487 512.5 c 128,-1,19
 451 550 451 550 425.5 592 c 128,-1,20
 400 634 400 634 397 676 c 0,21,22
 397 684 397 684 405 686 c 1,23,24
 415 686 415 686 415 677 c 0,25,26
 418 636 418 636 440 598 c 128,-1,27
 462 560 462 560 492.5 527.5 c 128,-1,28
 523 495 523 495 558 468.5 c 128,-1,29
 593 442 593 442 622.5 423 c 128,-1,30
 652 404 652 404 671 394 c 128,-1,31
 690 384 690 384 689 384 c 1,32,33
 694 381 694 381 694 375 c 0,34,35
 694 372 694 372 691 369.5 c 128,-1,36
 688 367 688 367 685 367 c 0,37,38
 671 367 671 367 658.5 368.5 c 128,-1,39
 646 370 646 370 632 370 c 0,40,41
 553 370 553 370 483 351.5 c 128,-1,42
 413 333 413 333 354 305 c 128,-1,43
 295 277 295 277 247 245 c 128,-1,44
 199 213 199 213 165 185 c 128,-1,45
 131 157 131 157 112 138.5 c 128,-1,46
 93 120 93 120 91 120 c 1,47,48
 89 117 89 117 85 117 c 256,0,1
EndSplineSet
EndChar

StartChar: question
Encoding: 63 63 34
Width: 836
VWidth: 1700
GlyphClass: 2
Flags: W
LayerCount: 2
Fore
SplineSet
188 173 m 0,0,1
 185 173 185 173 182 175.5 c 128,-1,2
 179 178 179 178 179 182 c 256,3,4
 179 186 179 186 180 187 c 2,5,-1
 320 411 l 1,6,-1
 325 411 l 1,7,8
 349 408 349 408 372 408 c 0,9,10
 425 408 425 408 476 423.5 c 128,-1,11
 527 439 527 439 572.5 464.5 c 128,-1,12
 618 490 618 490 656 524 c 128,-1,13
 694 558 694 558 721 595 c 128,-1,14
 748 632 748 632 763.5 670 c 128,-1,15
 779 708 779 708 779 742 c 0,16,17
 779 767 779 767 769 789.5 c 128,-1,18
 759 812 759 812 739 829 c 128,-1,19
 719 846 719 846 688 856 c 128,-1,20
 657 866 657 866 615 866 c 0,21,22
 568 866 568 866 520.5 850 c 128,-1,23
 473 834 473 834 430.5 803.5 c 128,-1,24
 388 773 388 773 354 727.5 c 128,-1,25
 320 682 320 682 300 623 c 1,26,27
 296 616 296 616 292 616 c 0,28,29
 283 616 283 616 283 625 c 2,30,-1
 283 628 l 1,31,32
 301 681 301 681 333.5 728 c 128,-1,33
 366 775 366 775 409.5 809.5 c 128,-1,34
 453 844 453 844 504.5 864 c 128,-1,35
 556 884 556 884 612 884 c 0,36,37
 660 884 660 884 695 872.5 c 128,-1,38
 730 861 730 861 753 842 c 128,-1,39
 776 823 776 823 787 797.5 c 128,-1,40
 798 772 798 772 798 745 c 0,41,42
 798 708 798 708 782 667.5 c 128,-1,43
 766 627 766 627 737.5 587.5 c 128,-1,44
 709 548 709 548 669.5 512.5 c 128,-1,45
 630 477 630 477 583 449.5 c 128,-1,46
 536 422 536 422 483.5 406 c 128,-1,47
 431 390 431 390 376 390 c 0,48,49
 352 390 352 390 330 393 c 1,50,-1
 196 178 l 2,51,52
 193 173 193 173 188 173 c 0,0,1
172 46 m 0,53,54
 172 23 172 23 155 6.5 c 128,-1,55
 138 -10 138 -10 115 -10 c 256,56,57
 92 -10 92 -10 75.5 6.5 c 128,-1,58
 59 23 59 23 59 46 c 0,59,60
 59 70 59 70 75.5 86.5 c 128,-1,61
 92 103 92 103 115 103 c 256,62,63
 138 103 138 103 155 86.5 c 128,-1,64
 172 70 172 70 172 46 c 0,53,54
EndSplineSet
EndChar

StartChar: at
Encoding: 64 64 35
Width: 1143
VWidth: 1700
GlyphClass: 2
Flags: W
LayerCount: 2
Fore
SplineSet
121 424 m 0,0,1
 171 496 171 496 244 558.5 c 128,-1,2
 317 621 317 621 402.5 667.5 c 128,-1,3
 488 714 488 714 581 740.5 c 128,-1,4
 674 767 674 767 764 767 c 0,5,6
 838 767 838 767 902 749 c 128,-1,7
 966 731 966 731 1013 699.5 c 128,-1,8
 1060 668 1060 668 1087 626 c 128,-1,9
 1114 584 1114 584 1114 537 c 0,10,11
 1114 485 1114 485 1081 422 c 0,12,13
 1067 396 1067 396 1045 366.5 c 128,-1,14
 1023 337 1023 337 994.5 307.5 c 128,-1,15
 966 278 966 278 932.5 250.5 c 128,-1,16
 899 223 899 223 864 201.5 c 128,-1,17
 829 180 829 180 794 167.5 c 128,-1,18
 759 155 759 155 726 155 c 0,19,20
 689 155 689 155 669 170 c 128,-1,21
 649 185 649 185 649 207 c 0,22,23
 649 234 649 234 685 275 c 1,24,25
 656 252 656 252 624.5 227.5 c 128,-1,26
 593 203 593 203 559 183.5 c 128,-1,27
 525 164 525 164 488.5 151.5 c 128,-1,28
 452 139 452 139 415 139 c 0,29,30
 386 139 386 139 360 148.5 c 128,-1,31
 334 158 334 158 314 175.5 c 128,-1,32
 294 193 294 193 282.5 217.5 c 128,-1,33
 271 242 271 242 271 271 c 0,34,35
 271 361 271 361 397 468 c 0,36,37
 433 498 433 498 473 525.5 c 128,-1,38
 513 553 513 553 556 574 c 128,-1,39
 599 595 599 595 644 607 c 128,-1,40
 689 619 689 619 736 619 c 0,41,42
 758 619 758 619 783.5 614.5 c 128,-1,43
 809 610 809 610 830.5 599 c 128,-1,44
 852 588 852 588 866 569.5 c 128,-1,45
 880 551 880 551 880 523 c 0,46,47
 880 461 880 461 802 379 c 1,48,-1
 806 382 l 2,49,50
 836 404 836 404 864.5 423.5 c 128,-1,51
 893 443 893 443 915.5 457.5 c 128,-1,52
 938 472 938 472 952.5 480.5 c 128,-1,53
 967 489 967 489 967 489 c 2,54,55
 969 491 969 491 972 491 c 256,56,57
 975 491 975 491 977.5 488 c 128,-1,58
 980 485 980 485 980 482 c 256,59,60
 980 479 980 479 971 473.5 c 128,-1,61
 962 468 962 468 942.5 455 c 128,-1,62
 923 442 923 442 891.5 421 c 128,-1,63
 860 400 860 400 816 367 c 0,64,65
 769 332 769 332 740 305.5 c 128,-1,66
 711 279 711 279 695 259.5 c 128,-1,67
 679 240 679 240 673.5 227 c 128,-1,68
 668 214 668 214 668 207 c 2,69,-1
 668 203 l 2,70,71
 668 201 668 201 669.5 196 c 128,-1,72
 671 191 671 191 677 186 c 128,-1,73
 683 181 683 181 695 177 c 128,-1,74
 707 173 707 173 728 173 c 0,75,76
 759 173 759 173 793 186 c 128,-1,77
 827 199 827 199 860.5 220.5 c 128,-1,78
 894 242 894 242 926 269.5 c 128,-1,79
 958 297 958 297 985.5 325.5 c 128,-1,80
 1013 354 1013 354 1033.5 381.5 c 128,-1,81
 1054 409 1054 409 1066 431 c 0,82,83
 1082 460 1082 460 1089 486.5 c 128,-1,84
 1096 513 1096 513 1096 537 c 0,85,86
 1096 585 1096 585 1067.5 624 c 128,-1,87
 1039 663 1039 663 992.5 691 c 128,-1,88
 946 719 946 719 887 734 c 128,-1,89
 828 749 828 749 766 749 c 0,90,91
 681 749 681 749 596.5 725.5 c 128,-1,92
 512 702 512 702 434.5 662.5 c 128,-1,93
 357 623 357 623 290 570.5 c 128,-1,94
 223 518 223 518 173.5 459.5 c 128,-1,95
 124 401 124 401 95.5 340 c 128,-1,96
 67 279 67 279 67 223 c 0,97,98
 67 164 67 164 94.5 117 c 128,-1,99
 122 70 122 70 168.5 37 c 128,-1,100
 215 4 215 4 276 -14 c 128,-1,101
 337 -32 337 -32 404 -32 c 0,102,103
 431 -32 431 -32 458 -29 c 0,104,105
 531 -21 531 -21 589.5 -6 c 128,-1,106
 648 9 648 9 696.5 30 c 128,-1,107
 745 51 745 51 785.5 78 c 128,-1,108
 826 105 826 105 864 137 c 0,109,110
 866 138 866 138 867.5 139 c 128,-1,111
 869 140 869 140 871 140 c 0,112,113
 880 140 880 140 880 130 c 0,114,115
 880 127 880 127 878 125 c 0,116,117
 834 83 834 83 777.5 50 c 128,-1,118
 721 17 721 17 658.5 -5 c 128,-1,119
 596 -27 596 -27 532 -38.5 c 128,-1,120
 468 -50 468 -50 408 -50 c 0,121,122
 331 -50 331 -50 265 -30 c 128,-1,123
 199 -10 199 -10 151 26 c 128,-1,124
 103 62 103 62 75.5 112 c 128,-1,125
 48 162 48 162 48 222 c 0,126,127
 48 268 48 268 65.5 319 c 128,-1,128
 83 370 83 370 121 424 c 0,0,1
415 157 m 0,129,130
 452 157 452 157 491.5 172.5 c 128,-1,131
 531 188 531 188 569.5 212.5 c 128,-1,132
 608 237 608 237 645 266.5 c 128,-1,133
 682 296 682 296 716 324 c 0,134,135
 759 360 759 360 787.5 390 c 128,-1,136
 816 420 816 420 832.5 444.5 c 128,-1,137
 849 469 849 469 855.5 488 c 128,-1,138
 862 507 862 507 862 521 c 0,139,140
 862 546 862 546 848.5 562 c 128,-1,141
 835 578 835 578 815.5 586.5 c 128,-1,142
 796 595 796 595 774 598 c 128,-1,143
 752 601 752 601 736 601 c 0,144,145
 662 601 662 601 577 563 c 128,-1,146
 492 525 492 525 409 454 c 0,147,148
 389 437 389 437 368 416.5 c 128,-1,149
 347 396 347 396 329.5 372.5 c 128,-1,150
 312 349 312 349 300.5 324 c 128,-1,151
 289 299 289 299 289 272 c 0,152,153
 289 244 289 244 300 222.5 c 128,-1,154
 311 201 311 201 329 186.5 c 128,-1,155
 347 172 347 172 369.5 164.5 c 128,-1,156
 392 157 392 157 415 157 c 0,129,130
EndSplineSet
EndChar

StartChar: A
Encoding: 65 65 36
Width: 1208
VWidth: 1700
GlyphClass: 2
Flags: W
LayerCount: 2
Fore
SplineSet
1544 980 m 0,0,1
 1548 977 1548 977 1548 971 c 0,2,3
 1548 964 1548 964 1540 964 c 0,4,5
 1536 964 1536 964 1534 966 c 0,6,7
 1500 989 1500 989 1463.5 1000 c 128,-1,8
 1427 1011 1427 1011 1392 1013 c 1,9,10
 1385 1008 1385 1008 1356 987 c 128,-1,11
 1327 966 1327 966 1285 927 c 128,-1,12
 1243 888 1243 888 1194 830.5 c 128,-1,13
 1145 773 1145 773 1098 696 c 128,-1,14
 1051 619 1051 619 1010.5 522 c 128,-1,15
 970 425 970 425 947 306 c 1,16,17
 988 316 988 316 1018.5 328.5 c 128,-1,18
 1049 341 1049 341 1069 351.5 c 128,-1,19
 1089 362 1089 362 1099.5 369.5 c 128,-1,20
 1110 377 1110 377 1111 378 c 0,21,22
 1115 380 1115 380 1117 380 c 0,23,24
 1120 380 1120 380 1123 378 c 128,-1,25
 1126 376 1126 376 1126 372 c 256,26,27
 1126 368 1126 368 1122 364 c 2,28,29
 1122 364 1122 364 1111 355.5 c 128,-1,30
 1100 347 1100 347 1077.5 335.5 c 128,-1,31
 1055 324 1055 324 1021.5 310.5 c 128,-1,32
 988 297 988 297 943 287 c 1,33,34
 932 220 932 220 927 150 c 128,-1,35
 922 80 922 80 922 0 c 1,36,-1
 904 0 l 1,37,38
 904 63 904 63 892 132 c 128,-1,39
 880 201 880 201 852 271 c 1,40,41
 830 269 830 269 809 268 c 128,-1,42
 788 267 788 267 765 267 c 0,43,44
 694 267 694 267 641 274.5 c 128,-1,45
 588 282 588 282 550 293 c 1,46,47
 509 226 509 226 469 164.5 c 128,-1,48
 429 103 429 103 385.5 56 c 128,-1,49
 342 9 342 9 293 -19 c 128,-1,50
 244 -47 244 -47 185 -47 c 0,51,52
 146 -47 146 -47 119 -34 c 128,-1,53
 92 -21 92 -21 74 -1 c 128,-1,54
 56 19 56 19 46 42.5 c 128,-1,55
 36 66 36 66 31 86.5 c 128,-1,56
 26 107 26 107 25 122 c 128,-1,57
 24 137 24 137 24 139 c 0,58,59
 24 149 24 149 33 149 c 256,60,61
 42 149 42 149 42 140 c 0,62,63
 42 120 42 120 48.5 91.5 c 128,-1,64
 55 63 55 63 71.5 36 c 128,-1,65
 88 9 88 9 116 -10 c 128,-1,66
 144 -29 144 -29 186 -29 c 0,67,68
 240 -29 240 -29 285.5 -2.5 c 128,-1,69
 331 24 331 24 372 69 c 128,-1,70
 413 114 413 114 452 173.5 c 128,-1,71
 491 233 491 233 533 299 c 1,72,73
 484 319 484 319 463 345 c 128,-1,74
 442 371 442 371 442 400 c 0,75,76
 442 427 442 427 453.5 446.5 c 128,-1,77
 465 466 465 466 484.5 478 c 128,-1,78
 504 490 504 490 529 495.5 c 128,-1,79
 554 501 554 501 581 501 c 0,80,81
 600 501 600 501 619.5 499 c 128,-1,82
 639 497 639 497 659 491 c 1,83,84
 664 499 664 499 670 507.5 c 128,-1,85
 676 516 676 516 682 524 c 0,86,87
 762 632 762 632 841.5 725 c 128,-1,88
 921 818 921 818 1005 885.5 c 128,-1,89
 1089 953 1089 953 1179.5 991.5 c 128,-1,90
 1270 1030 1270 1030 1372 1030 c 0,91,92
 1413 1030 1413 1030 1457.5 1020 c 128,-1,93
 1502 1010 1502 1010 1544 980 c 0,0,1
460 400 m 0,94,95
 460 383 460 383 467.5 370 c 128,-1,96
 475 357 475 357 487 346.5 c 128,-1,97
 499 336 499 336 513.5 328.5 c 128,-1,98
 528 321 528 321 543 315 c 1,99,100
 568 354 568 354 593.5 394.5 c 128,-1,101
 619 435 619 435 648 476 c 1,102,103
 616 484 616 484 581 484 c 0,104,105
 562 484 562 484 541 480.5 c 128,-1,106
 520 477 520 477 502 468 c 128,-1,107
 484 459 484 459 472 442.5 c 128,-1,108
 460 426 460 426 460 400 c 0,94,95
729 285 m 0,109,110
 757 285 757 285 785 285.5 c 128,-1,111
 813 286 813 286 845 289 c 1,112,113
 818 349 818 349 775 398.5 c 128,-1,114
 732 448 732 448 666 470 c 1,115,116
 637 430 637 430 611.5 389.5 c 128,-1,117
 586 349 586 349 560 309 c 1,118,119
 591 300 591 300 632 293.5 c 128,-1,120
 673 287 673 287 729 285 c 0,109,110
907 141 m 1,121,122
 909 179 909 179 913.5 214 c 128,-1,123
 918 249 918 249 924 282 c 1,124,125
 898 277 898 277 870 273 c 1,126,127
 884 241 884 241 893 206.5 c 128,-1,128
 902 172 902 172 907 141 c 1,121,122
1143 795 m 0,129,130
 1176 840 1176 840 1209 875.5 c 128,-1,131
 1242 911 1242 911 1270.5 938 c 128,-1,132
 1299 965 1299 965 1322.5 983.5 c 128,-1,133
 1346 1002 1346 1002 1361 1013 c 1,134,135
 1265 1009 1265 1009 1178.5 970.5 c 128,-1,136
 1092 932 1092 932 1011.5 866.5 c 128,-1,137
 931 801 931 801 853.5 711 c 128,-1,138
 776 621 776 621 697 513 c 0,139,140
 692 506 692 506 687 499.5 c 128,-1,141
 682 493 682 493 677 486 c 1,142,143
 747 460 747 460 792 407 c 128,-1,144
 837 354 837 354 863 291 c 1,145,146
 880 293 880 293 896.5 295.5 c 128,-1,147
 913 298 913 298 928 301 c 1,148,149
 943 382 943 382 966 452.5 c 128,-1,150
 989 523 989 523 1017.5 584.5 c 128,-1,151
 1046 646 1046 646 1078 698.5 c 128,-1,152
 1110 751 1110 751 1143 795 c 0,129,130
EndSplineSet
EndChar

StartChar: B
Encoding: 66 66 37
Width: 995
VWidth: 1700
GlyphClass: 2
Flags: W
LayerCount: 2
Fore
SplineSet
1078 944 m 0,0,1
 1079 943 1079 943 1079 940 c 0,2,3
 1079 931 1079 931 1070 931 c 0,4,5
 1064 931 1064 931 1062 936 c 0,6,7
 1055 950 1055 950 1041.5 961.5 c 128,-1,8
 1028 973 1028 973 1011 981.5 c 128,-1,9
 994 990 994 990 975 995 c 128,-1,10
 956 1000 956 1000 938 1000 c 0,11,12
 903 1000 903 1000 871 996.5 c 128,-1,13
 839 993 839 993 808.5 983 c 128,-1,14
 778 973 778 973 748 956 c 128,-1,15
 718 939 718 939 685 912 c 1,16,17
 746 907 746 907 790.5 893.5 c 128,-1,18
 835 880 835 880 866.5 861 c 128,-1,19
 898 842 898 842 917.5 819 c 128,-1,20
 937 796 937 796 948 772.5 c 128,-1,21
 959 749 959 749 963 726 c 128,-1,22
 967 703 967 703 967 685 c 0,23,24
 967 665 967 665 964 648.5 c 128,-1,25
 961 632 961 632 960 630 c 0,26,27
 958 625 958 625 951 607 c 128,-1,28
 944 589 944 589 927 566.5 c 128,-1,29
 910 544 910 544 880.5 521 c 128,-1,30
 851 498 851 498 804 485 c 1,31,32
 846 449 846 449 873 398.5 c 128,-1,33
 900 348 900 348 900 285 c 0,34,35
 900 221 900 221 874.5 164 c 128,-1,36
 849 107 849 107 806 64.5 c 128,-1,37
 763 22 763 22 705.5 -3 c 128,-1,38
 648 -28 648 -28 584 -28 c 0,39,40
 531 -28 531 -28 481 -16 c 128,-1,41
 431 -4 431 -4 392.5 23 c 128,-1,42
 354 50 354 50 330.5 93 c 128,-1,43
 307 136 307 136 307 197 c 0,44,45
 307 216 307 216 308 225 c 128,-1,46
 309 234 309 234 311 238 c 128,-1,47
 313 242 313 242 315 242 c 128,-1,48
 317 242 317 242 319 242 c 0,49,50
 324 242 324 242 326 239 c 128,-1,51
 328 236 328 236 328 233 c 0,52,53
 328 225 328 225 326.5 216.5 c 128,-1,54
 325 208 325 208 325 197 c 0,55,56
 325 170 325 170 335.5 132 c 128,-1,57
 346 94 346 94 381 55 c 1,58,59
 399 37 399 37 423 24.5 c 128,-1,60
 447 12 447 12 474 4.5 c 128,-1,61
 501 -3 501 -3 529.5 -6.5 c 128,-1,62
 558 -10 558 -10 584 -10 c 0,63,64
 636 -10 636 -10 689 10.5 c 128,-1,65
 742 31 742 31 785 69 c 128,-1,66
 828 107 828 107 855 161 c 128,-1,67
 882 215 882 215 882 283 c 0,68,69
 882 343 882 343 857 389.5 c 128,-1,70
 832 436 832 436 794 471 c 1,71,72
 786 477 786 477 783 481 c 1,73,74
 748 475 748 475 712 475 c 0,75,76
 701 475 701 475 677.5 476 c 128,-1,77
 654 477 654 477 630 482 c 128,-1,78
 606 487 606 487 587.5 498.5 c 128,-1,79
 569 510 569 510 569 530 c 0,80,81
 569 551 569 551 586.5 562 c 128,-1,82
 604 573 604 573 623 573 c 0,83,84
 660 573 660 573 699 555.5 c 128,-1,85
 738 538 738 538 787 500 c 1,86,87
 837 510 837 510 867.5 532 c 128,-1,88
 898 554 898 554 914.5 576.5 c 128,-1,89
 931 599 931 599 936.5 616 c 128,-1,90
 942 633 942 633 943 635 c 0,91,92
 946 647 946 647 947.5 658 c 128,-1,93
 949 669 949 669 949 685 c 0,94,95
 949 710 949 710 940 744 c 128,-1,96
 931 778 931 778 901.5 810 c 128,-1,97
 872 842 872 842 816 866 c 128,-1,98
 760 890 760 890 666 896 c 1,99,100
 628 860 628 860 591.5 814 c 128,-1,101
 555 768 555 768 518.5 714 c 128,-1,102
 482 660 482 660 445 599 c 128,-1,103
 408 538 408 538 369 472 c 0,104,105
 310 372 310 372 260 278 c 128,-1,106
 210 184 210 184 160 111 c 128,-1,107
 110 38 110 38 54.5 -6 c 128,-1,108
 -1 -50 -1 -50 -71 -50 c 0,109,110
 -90 -50 -90 -50 -110.5 -43 c 128,-1,111
 -131 -36 -131 -36 -148.5 -23.5 c 128,-1,112
 -166 -11 -166 -11 -177 5.5 c 128,-1,113
 -188 22 -188 22 -188 41 c 0,114,115
 -188 50 -188 50 -179 50 c 0,116,117
 -172 50 -172 50 -170 43 c 0,118,119
 -163 9 -163 9 -134.5 -11.5 c 128,-1,120
 -106 -32 -106 -32 -71 -32 c 0,121,122
 -35 -32 -35 -32 -3 -18.5 c 128,-1,123
 29 -5 29 -5 58 20 c 0,124,125
 95 51 95 51 137.5 114 c 128,-1,126
 180 177 180 177 227 257 c 128,-1,127
 274 337 274 337 324.5 427.5 c 128,-1,128
 375 518 375 518 427.5 605 c 128,-1,129
 480 692 480 692 533.5 768.5 c 128,-1,130
 587 845 587 845 641 897 c 1,131,132
 544 897 544 897 472 870.5 c 128,-1,133
 400 844 400 844 350 809 c 0,134,135
 324 791 324 791 297 766 c 128,-1,136
 270 741 270 741 252 717 c 0,137,138
 249 713 249 713 244 713 c 0,139,140
 235 713 235 713 235 723 c 0,141,142
 235 724 235 724 237 728 c 0,143,144
 238 728 238 728 249 742 c 128,-1,145
 260 756 260 756 282 776.5 c 128,-1,146
 304 797 304 797 337 821.5 c 128,-1,147
 370 846 370 846 414 866.5 c 128,-1,148
 458 887 458 887 513 901 c 128,-1,149
 568 915 568 915 634 915 c 0,150,151
 640 915 640 915 647.5 915 c 128,-1,152
 655 915 655 915 660 914 c 1,153,154
 773 1018 773 1018 921 1018 c 0,155,156
 942 1018 942 1018 965.5 1014.5 c 128,-1,157
 989 1011 989 1011 1010.5 1002 c 128,-1,158
 1032 993 1032 993 1050 979 c 128,-1,159
 1068 965 1068 965 1078 944 c 0,0,1
716 493 m 0,160,161
 742 493 742 493 763 496 c 1,162,163
 719 526 719 526 688.5 541.5 c 128,-1,164
 658 557 658 557 624 557 c 0,165,166
 611 557 611 557 599 549.5 c 128,-1,167
 587 542 587 542 587 530 c 0,168,169
 587 494 587 494 716 493 c 0,160,161
EndSplineSet
EndChar

StartChar: C
Encoding: 67 67 38
Width: 738
VWidth: 1700
GlyphClass: 2
Flags: W
LayerCount: 2
Fore
SplineSet
163 -14 m 0,0,1
 131 -2 131 -2 108 19.5 c 128,-1,2
 85 41 85 41 70 68.5 c 128,-1,3
 55 96 55 96 48 127 c 128,-1,4
 41 158 41 158 41 190 c 0,5,6
 41 264 41 264 75 344.5 c 128,-1,7
 109 425 109 425 165 503.5 c 128,-1,8
 221 582 221 582 294 654.5 c 128,-1,9
 367 727 367 727 444 784 c 1,10,11
 437 794 437 794 429 807 c 128,-1,12
 421 820 421 820 414.5 835 c 128,-1,13
 408 850 408 850 404 865.5 c 128,-1,14
 400 881 400 881 400 896 c 0,15,16
 400 904 400 904 409 904 c 0,17,18
 414 904 414 904 415 901 c 128,-1,19
 416 898 416 898 417 895 c 0,20,21
 422 868 422 868 432.5 842 c 128,-1,22
 443 816 443 816 459 795 c 1,23,24
 506 829 506 829 554 857 c 128,-1,25
 602 885 602 885 648 904 c 128,-1,26
 694 923 694 923 736.5 933.5 c 128,-1,27
 779 944 779 944 814 944 c 0,28,29
 874 944 874 944 900 917 c 128,-1,30
 926 890 926 890 926 850 c 0,31,32
 926 826 926 826 918 804 c 128,-1,33
 910 782 910 782 898 766 c 0,34,35
 895 762 895 762 881.5 746 c 128,-1,36
 868 730 868 730 842 712 c 128,-1,37
 816 694 816 694 777.5 679.5 c 128,-1,38
 739 665 739 665 687 665 c 0,39,40
 643 665 643 665 606 674.5 c 128,-1,41
 569 684 569 684 540 699 c 128,-1,42
 511 714 511 714 489.5 732.5 c 128,-1,43
 468 751 468 751 455 770 c 1,44,45
 379 711 379 711 307.5 640 c 128,-1,46
 236 569 236 569 181 493 c 128,-1,47
 126 417 126 417 92.5 339.5 c 128,-1,48
 59 262 59 262 59 190 c 1,49,50
 60 147 60 147 73 110 c 128,-1,51
 86 73 86 73 111 45.5 c 128,-1,52
 136 18 136 18 172.5 2.5 c 128,-1,53
 209 -13 209 -13 258 -13 c 1,54,55
 303 -11 303 -11 338.5 -2 c 128,-1,56
 374 7 374 7 412 30 c 0,57,58
 433 42 433 42 457 60 c 128,-1,59
 481 78 481 78 507 103 c 128,-1,60
 533 128 533 128 560.5 161 c 128,-1,61
 588 194 588 194 616 237 c 0,62,63
 619 241 619 241 624 241 c 0,64,65
 633 241 633 241 633 232 c 0,66,67
 633 229 633 229 631 227 c 0,68,69
 574 139 574 139 519.5 89 c 128,-1,70
 465 39 465 39 421 14 c 0,71,72
 380 -9 380 -9 340 -20 c 128,-1,73
 300 -31 300 -31 258 -31 c 0,74,75
 237 -31 237 -31 212.5 -27.5 c 128,-1,76
 188 -24 188 -24 163 -14 c 0,0,1
516 735 m 0,77,78
 545 713 545 713 589 698 c 128,-1,79
 633 683 633 683 687 683 c 0,80,81
 737 683 737 683 774 697 c 128,-1,82
 811 711 811 711 835 728.5 c 128,-1,83
 859 746 859 746 871 760.5 c 128,-1,84
 883 775 883 775 884 776 c 0,85,86
 894 790 894 790 901 810 c 128,-1,87
 908 830 908 830 908 850 c 0,88,89
 908 864 908 864 904 878 c 128,-1,90
 900 892 900 892 889.5 902.5 c 128,-1,91
 879 913 879 913 860.5 919.5 c 128,-1,92
 842 926 842 926 814 926 c 0,93,94
 781 926 781 926 740.5 916 c 128,-1,95
 700 906 700 906 655.5 887 c 128,-1,96
 611 868 611 868 563.5 841 c 128,-1,97
 516 814 516 814 469 780 c 1,98,99
 479 768 479 768 490.5 757 c 128,-1,100
 502 746 502 746 516 735 c 0,77,78
EndSplineSet
EndChar

StartChar: D
Encoding: 68 68 39
Width: 1008
VWidth: 1700
GlyphClass: 2
Flags: W
LayerCount: 2
Fore
SplineSet
1164 873 m 0,0,1
 1164 872 1164 872 1164.5 871 c 128,-1,2
 1165 870 1165 870 1165 869 c 0,3,4
 1165 860 1165 860 1156 860 c 0,5,6
 1149 860 1149 860 1148 866 c 1,7,8
 1137 890 1137 890 1119 906 c 128,-1,9
 1101 922 1101 922 1078 932 c 128,-1,10
 1055 942 1055 942 1028.5 946 c 128,-1,11
 1002 950 1002 950 975 950 c 0,12,13
 905 950 905 950 844 928 c 128,-1,14
 783 906 783 906 732 868 c 1,15,16
 793 841 793 841 834 802 c 128,-1,17
 875 763 875 763 900.5 716 c 128,-1,18
 926 669 926 669 937 617 c 128,-1,19
 948 565 948 565 948 513 c 0,20,21
 948 464 948 464 938 405 c 128,-1,22
 928 346 928 346 907 286.5 c 128,-1,23
 886 227 886 227 853.5 170.5 c 128,-1,24
 821 114 821 114 776 70.5 c 128,-1,25
 731 27 731 27 673 0.5 c 128,-1,26
 615 -26 615 -26 543 -26 c 0,27,28
 508 -26 508 -26 471.5 -16 c 128,-1,29
 435 -6 435 -6 405 15 c 128,-1,30
 375 36 375 36 355.5 69 c 128,-1,31
 336 102 336 102 336 149 c 0,32,33
 336 169 336 169 342 190.5 c 128,-1,34
 348 212 348 212 363 230 c 128,-1,35
 378 248 378 248 402.5 259.5 c 128,-1,36
 427 271 427 271 463 271 c 0,37,38
 466 271 466 271 486.5 269 c 128,-1,39
 507 267 507 267 530.5 262.5 c 128,-1,40
 554 258 554 258 573.5 251 c 128,-1,41
 593 244 593 244 593 234 c 0,42,43
 593 231 593 231 590 228 c 128,-1,44
 587 225 587 225 583 225 c 0,45,46
 581 225 581 225 580 226 c 0,47,48
 543 241 543 241 514.5 247 c 128,-1,49
 486 253 486 253 463 253 c 0,50,51
 433 253 433 253 412 243.5 c 128,-1,52
 391 234 391 234 378.5 219 c 128,-1,53
 366 204 366 204 360 185 c 128,-1,54
 354 166 354 166 354 146 c 0,55,56
 354 107 354 107 371.5 78 c 128,-1,57
 389 49 389 49 416 30 c 128,-1,58
 443 11 443 11 476.5 1.5 c 128,-1,59
 510 -8 510 -8 543 -8 c 0,60,61
 607 -8 607 -8 660.5 15 c 128,-1,62
 714 38 714 38 757 77 c 128,-1,63
 800 116 800 116 832.5 167.5 c 128,-1,64
 865 219 865 219 886.5 277 c 128,-1,65
 908 335 908 335 919 395.5 c 128,-1,66
 930 456 930 456 930 513 c 0,67,68
 930 565 930 565 919 615.5 c 128,-1,69
 908 666 908 666 883 710.5 c 128,-1,70
 858 755 858 755 817 792.5 c 128,-1,71
 776 830 776 830 715 856 c 1,72,73
 654 809 654 809 601.5 746.5 c 128,-1,74
 549 684 549 684 499 610 c 1,75,76
 547 610 547 610 592 623 c 128,-1,77
 637 636 637 636 679 666 c 0,78,79
 686 671 686 671 697.5 681.5 c 128,-1,80
 709 692 709 692 721 703 c 128,-1,81
 733 714 733 714 742.5 722 c 128,-1,82
 752 730 752 730 755 730 c 0,83,84
 764 730 764 730 764 721 c 1,85,86
 764 722 764 722 764.5 720.5 c 128,-1,87
 765 719 765 719 760 711.5 c 128,-1,88
 755 704 755 704 739.5 690 c 128,-1,89
 724 676 724 676 693 654 c 0,90,91
 652 625 652 625 606 608.5 c 128,-1,92
 560 592 560 592 510 592 c 0,93,94
 504 592 504 592 498.5 592 c 128,-1,95
 493 592 493 592 487 593 c 1,96,97
 465 561 465 561 443 527 c 128,-1,98
 421 493 421 493 400 459 c 0,99,100
 359 394 359 394 324 330 c 128,-1,101
 289 266 289 266 256.5 207.5 c 128,-1,102
 224 149 224 149 192 99.5 c 128,-1,103
 160 50 160 50 125.5 13.5 c 128,-1,104
 91 -23 91 -23 51.5 -43.5 c 128,-1,105
 12 -64 12 -64 -35 -64 c 0,106,107
 -54 -64 -54 -64 -74.5 -57 c 128,-1,108
 -95 -50 -95 -50 -112.5 -37.5 c 128,-1,109
 -130 -25 -130 -25 -141 -8.5 c 128,-1,110
 -152 8 -152 8 -152 27 c 0,111,112
 -152 36 -152 36 -143 36 c 0,113,114
 -136 36 -136 36 -134 30 c 0,115,116
 -126 -6 -126 -6 -98 -26 c 128,-1,117
 -70 -46 -70 -46 -35 -46 c 0,118,119
 31 -46 31 -46 81 -3 c 128,-1,120
 131 40 131 40 178 112 c 128,-1,121
 225 184 225 184 273.5 276.5 c 128,-1,122
 322 369 322 369 385 468 c 0,123,124
 405 500 405 500 426 532 c 128,-1,125
 447 564 447 564 467 596 c 1,126,127
 435 601 435 601 407.5 613.5 c 128,-1,128
 380 626 380 626 359.5 644.5 c 128,-1,129
 339 663 339 663 327 686.5 c 128,-1,130
 315 710 315 710 315 737 c 0,131,132
 315 777 315 777 342 817 c 0,133,134
 377 870 377 870 429 891 c 128,-1,135
 481 912 481 912 540 912 c 0,136,137
 584 912 584 912 627.5 902.5 c 128,-1,138
 671 893 671 893 712 877 c 1,139,140
 771 919 771 919 835 943.5 c 128,-1,141
 899 968 899 968 975 968 c 0,142,143
 1002 968 1002 968 1030.5 963.5 c 128,-1,144
 1059 959 1059 959 1084.5 948.5 c 128,-1,145
 1110 938 1110 938 1131 919.5 c 128,-1,146
 1152 901 1152 901 1164 873 c 0,0,1
571 737 m 0,147,148
 600 773 600 773 631 805 c 128,-1,149
 662 837 662 837 696 864 c 1,150,151
 660 877 660 877 619.5 885.5 c 128,-1,152
 579 894 579 894 539 894 c 0,153,154
 502 894 502 894 465.5 882.5 c 128,-1,155
 429 871 429 871 399.5 850 c 128,-1,156
 370 829 370 829 352 801 c 128,-1,157
 334 773 334 773 334 740 c 0,158,159
 334 694 334 694 373.5 659 c 128,-1,160
 413 624 413 624 479 613 c 1,161,162
 524 681 524 681 571 737 c 0,147,148
EndSplineSet
EndChar

StartChar: E
Encoding: 69 69 40
Width: 847
VWidth: 1700
GlyphClass: 2
Flags: W
LayerCount: 2
Fore
SplineSet
368 -14 m 1,0,1
 314 -12 314 -12 266 5 c 128,-1,2
 218 22 218 22 182 52.5 c 128,-1,3
 146 83 146 83 125 127 c 128,-1,4
 104 171 104 171 104 228 c 0,5,6
 104 278 104 278 115.5 318 c 128,-1,7
 127 358 127 358 144.5 388.5 c 128,-1,8
 162 419 162 419 182 441.5 c 128,-1,9
 202 464 202 464 219 478 c 0,10,11
 257 510 257 510 296.5 530.5 c 128,-1,12
 336 551 336 551 381 560 c 1,13,14
 365 604 365 604 365 653 c 0,15,16
 365 699 365 699 380 743 c 1,17,18
 368 755 368 755 354.5 771.5 c 128,-1,19
 341 788 341 788 329.5 808.5 c 128,-1,20
 318 829 318 829 310.5 851 c 128,-1,21
 303 873 303 873 303 895 c 0,22,23
 303 902 303 902 311 904 c 1,24,25
 319 904 319 904 321 896 c 0,26,27
 329 852 329 852 345.5 820.5 c 128,-1,28
 362 789 362 789 387 761 c 1,29,30
 404 804 404 804 429 836 c 128,-1,31
 454 868 454 868 481.5 890.5 c 128,-1,32
 509 913 509 913 536 927 c 128,-1,33
 563 941 563 941 585 948.5 c 128,-1,34
 607 956 607 956 621 959 c 128,-1,35
 635 962 635 962 635 962 c 1,36,37
 659 965 659 965 683 965 c 0,38,39
 711 965 711 965 738 958 c 128,-1,40
 765 951 765 951 786 936 c 128,-1,41
 807 921 807 921 820 897.5 c 128,-1,42
 833 874 833 874 833 842 c 0,43,44
 833 799 833 799 810.5 765.5 c 128,-1,45
 788 732 788 732 753 708.5 c 128,-1,46
 718 685 718 685 675.5 672.5 c 128,-1,47
 633 660 633 660 594 660 c 1,48,49
 536 662 536 662 487 678 c 128,-1,50
 438 694 438 694 395 729 c 1,51,52
 383 688 383 688 383 648 c 0,53,54
 383 603 383 603 400 563 c 1,55,56
 415 566 415 566 429.5 567 c 128,-1,57
 444 568 444 568 458 568 c 0,58,59
 473 568 473 568 492.5 566 c 128,-1,60
 512 564 512 564 529.5 558 c 128,-1,61
 547 552 547 552 559 541 c 128,-1,62
 571 530 571 530 571 511 c 0,63,64
 571 488 571 488 555 478.5 c 128,-1,65
 539 469 539 469 519 469 c 0,66,67
 471 469 471 469 437.5 492.5 c 128,-1,68
 404 516 404 516 390 543 c 1,69,70
 330 531 330 531 280.5 501 c 128,-1,71
 231 471 231 471 196 429 c 128,-1,72
 161 387 161 387 142 335 c 128,-1,73
 123 283 123 283 123 227 c 256,74,75
 123 171 123 171 145 129 c 128,-1,76
 167 87 167 87 202.5 59 c 128,-1,77
 238 31 238 31 281.5 17.5 c 128,-1,78
 325 4 325 4 368 4 c 0,79,80
 426 4 426 4 480.5 19 c 128,-1,81
 535 34 535 34 582.5 62 c 128,-1,82
 630 90 630 90 668 131 c 128,-1,83
 706 172 706 172 732 225 c 1,84,85
 733 231 733 231 740 231 c 0,86,87
 750 231 750 231 750 221 c 0,88,89
 750 220 750 220 749.5 219.5 c 128,-1,90
 749 219 749 219 749 218 c 0,91,92
 691 106 691 106 592 46 c 128,-1,93
 493 -14 493 -14 368 -14 c 1,0,1
552 502 m 0,94,95
 553 505 553 505 553 511 c 0,96,97
 553 527 553 527 540 535 c 128,-1,98
 527 543 527 543 511 546.5 c 128,-1,99
 495 550 495 550 480.5 550.5 c 128,-1,100
 466 551 466 551 464 551 c 0,101,102
 447 551 447 551 433.5 549.5 c 128,-1,103
 420 548 420 548 409 546 c 1,104,105
 426 519 426 519 457 502.5 c 128,-1,106
 488 486 488 486 517 486 c 0,107,108
 543 486 543 486 552 502 c 0,94,95
594 678 m 1,109,110
 636 679 636 679 676 691 c 128,-1,111
 716 703 716 703 746.5 724.5 c 128,-1,112
 777 746 777 746 796 776 c 128,-1,113
 815 806 815 806 815 844 c 0,114,115
 815 895 815 895 779 920.5 c 128,-1,116
 743 946 743 946 680 946 c 0,117,118
 634 946 634 946 591 931 c 128,-1,119
 548 916 548 916 511.5 889.5 c 128,-1,120
 475 863 475 863 446.5 827 c 128,-1,121
 418 791 418 791 401 748 c 1,122,123
 441 711 441 711 492 694.5 c 128,-1,124
 543 678 543 678 594 678 c 1,109,110
EndSplineSet
EndChar

StartChar: F
Encoding: 70 70 41
Width: 833
VWidth: 1700
GlyphClass: 2
Flags: W
LayerCount: 2
Fore
SplineSet
1357 913 m 1,0,1
 1376 896 1376 896 1376 867 c 0,2,3
 1376 852 1376 852 1368.5 832 c 128,-1,4
 1361 812 1361 812 1340 793.5 c 128,-1,5
 1319 775 1319 775 1281.5 760.5 c 128,-1,6
 1244 746 1244 746 1184 743 c 1,7,8
 1154 743 1154 743 1125 743.5 c 128,-1,9
 1096 744 1096 744 1061.5 747.5 c 128,-1,10
 1027 751 1027 751 985 759 c 128,-1,11
 943 767 943 767 887 781 c 1,12,13
 811 718 811 718 742 635 c 128,-1,14
 673 552 673 552 608 467 c 1,15,16
 616 465 616 465 624 465 c 128,-1,17
 632 465 632 465 640 465 c 0,18,19
 666 465 666 465 693 471 c 128,-1,20
 720 477 720 477 750 493 c 0,21,22
 751 494 751 494 754 494 c 0,23,24
 763 494 763 494 763 485 c 0,25,26
 763 480 763 480 758 478 c 0,27,28
 726 461 726 461 696.5 454 c 128,-1,29
 667 447 667 447 640 447 c 0,30,31
 617 447 617 447 596 450 c 1,32,33
 584 436 584 436 569 414.5 c 128,-1,34
 554 393 554 393 540 375 c 0,35,36
 473 284 473 284 417 208 c 128,-1,37
 361 132 361 132 309 77 c 128,-1,38
 257 22 257 22 206.5 -9 c 128,-1,39
 156 -40 156 -40 101 -40 c 0,40,41
 39 -40 39 -40 5 -9.5 c 128,-1,42
 -29 21 -29 21 -29 75 c 0,43,44
 -29 80 -29 80 -28.5 88.5 c 128,-1,45
 -28 97 -28 97 -26.5 105 c 128,-1,46
 -25 113 -25 113 -22.5 119 c 128,-1,47
 -20 125 -20 125 -15 125 c 0,48,49
 -6 125 -6 125 -6 116 c 0,50,51
 -6 105 -6 105 -8.5 94.5 c 128,-1,52
 -11 84 -11 84 -11 75 c 0,53,54
 -11 25 -11 25 20 1.5 c 128,-1,55
 51 -22 51 -22 102 -22 c 0,56,57
 146 -22 146 -22 192 3.5 c 128,-1,58
 238 29 238 29 292 87 c 0,59,60
 317 114 317 114 349 154.5 c 128,-1,61
 381 195 381 195 413.5 238 c 128,-1,62
 446 281 446 281 475.5 321 c 128,-1,63
 505 361 505 361 525 386 c 1,64,-1
 533 397 l 1,65,66
 513 390 513 390 483 385 c 128,-1,67
 453 380 453 380 427 380 c 0,68,69
 413 380 413 380 391 382 c 128,-1,70
 369 384 369 384 349 391 c 128,-1,71
 329 398 329 398 314.5 410 c 128,-1,72
 300 422 300 422 300 443 c 0,73,74
 300 463 300 463 309 476 c 128,-1,75
 318 489 318 489 332.5 496.5 c 128,-1,76
 347 504 347 504 365 507 c 128,-1,77
 383 510 383 510 400 510 c 0,78,79
 431 510 431 510 455 505 c 128,-1,80
 479 500 479 500 500.5 493.5 c 128,-1,81
 522 487 522 487 543 480.5 c 128,-1,82
 564 474 564 474 588 470 c 1,83,84
 652 555 652 555 720.5 636.5 c 128,-1,85
 789 718 789 718 865 786 c 1,86,87
 817 799 817 799 761 816.5 c 128,-1,88
 705 834 705 834 639 858 c 0,89,90
 600 872 600 872 565 878 c 128,-1,91
 530 884 530 884 498 884 c 256,92,93
 466 884 466 884 432.5 877.5 c 128,-1,94
 399 871 399 871 366.5 858.5 c 128,-1,95
 334 846 334 846 304.5 827.5 c 128,-1,96
 275 809 275 809 252 786 c 0,97,98
 249 783 249 783 245 783 c 256,99,100
 241 783 241 783 238.5 786 c 128,-1,101
 236 789 236 789 236 792 c 0,102,103
 236 796 236 796 238 798 c 0,104,105
 287 847 287 847 355.5 874.5 c 128,-1,106
 424 902 424 902 498 902 c 0,107,108
 531 902 531 902 568 895.5 c 128,-1,109
 605 889 605 889 645 875 c 1,110,111
 714 849 714 849 772.5 831 c 128,-1,112
 831 813 831 813 882 800 c 1,113,114
 960 867 960 867 1045.5 907.5 c 128,-1,115
 1131 948 1131 948 1226 948 c 0,116,117
 1242 948 1242 948 1260.5 947 c 128,-1,118
 1279 946 1279 946 1296.5 942 c 128,-1,119
 1314 938 1314 938 1330 931.5 c 128,-1,120
 1346 925 1346 925 1357 913 c 1,0,1
551 421 m 1,121,122
 558 429 558 429 564 437.5 c 128,-1,123
 570 446 570 446 576 454 c 1,124,125
 549 460 549 460 528.5 466.5 c 128,-1,126
 508 473 508 473 488 479 c 128,-1,127
 468 485 468 485 447.5 488.5 c 128,-1,128
 427 492 427 492 400 492 c 0,129,130
 389 492 389 492 375.5 490 c 128,-1,131
 362 488 362 488 349 483 c 128,-1,132
 336 478 336 478 327.5 468.5 c 128,-1,133
 319 459 319 459 319 443 c 0,134,135
 319 429 319 429 330.5 420.5 c 128,-1,136
 342 412 342 412 358.5 407 c 128,-1,137
 375 402 375 402 392.5 400 c 128,-1,138
 410 398 410 398 422 398 c 0,139,140
 437 398 437 398 456.5 400.5 c 128,-1,141
 476 403 476 403 494.5 406.5 c 128,-1,142
 513 410 513 410 528.5 414 c 128,-1,143
 544 418 544 418 551 421 c 1,121,122
1313 797 m 1,144,145
 1329 805 1329 805 1343 825.5 c 128,-1,146
 1357 846 1357 846 1357 867 c 256,147,148
 1357 888 1357 888 1343 900 c 128,-1,149
 1329 912 1329 912 1309 919 c 128,-1,150
 1289 926 1289 926 1266.5 928 c 128,-1,151
 1244 930 1244 930 1226 930 c 0,152,153
 1138 930 1138 930 1058 893 c 128,-1,154
 978 856 978 856 904 795 c 1,155,156
 957 782 957 782 996.5 775 c 128,-1,157
 1036 768 1036 768 1068 765 c 128,-1,158
 1100 762 1100 762 1127.5 761.5 c 128,-1,159
 1155 761 1155 761 1183 761 c 1,160,161
 1233 763 1233 763 1264 773.5 c 128,-1,162
 1295 784 1295 784 1313 797 c 1,144,145
EndSplineSet
EndChar

StartChar: G
Encoding: 71 71 42
Width: 1008
VWidth: 1700
GlyphClass: 2
Flags: W
LayerCount: 2
Fore
SplineSet
394 -460 m 0,0,1
 344 -459 344 -459 310 -433.5 c 128,-1,2
 276 -408 276 -408 276 -355 c 0,3,4
 276 -306 276 -306 298.5 -267 c 128,-1,5
 321 -228 321 -228 359 -198 c 128,-1,6
 397 -168 397 -168 446.5 -145 c 128,-1,7
 496 -122 496 -122 550.5 -106 c 128,-1,8
 605 -90 605 -90 660 -79 c 128,-1,9
 715 -68 715 -68 764 -61 c 1,10,11
 790 -4 790 -4 809 49 c 128,-1,12
 828 102 828 102 845 151 c 1,13,14
 812 104 812 104 771.5 67 c 128,-1,15
 731 30 731 30 685.5 4 c 128,-1,16
 640 -22 640 -22 591.5 -36 c 128,-1,17
 543 -50 543 -50 494 -50 c 0,18,19
 443 -50 443 -50 401 -35 c 128,-1,20
 359 -20 359 -20 329 9.5 c 128,-1,21
 299 39 299 39 282 82.5 c 128,-1,22
 265 126 265 126 265 183 c 0,23,24
 265 249 265 249 295 328 c 128,-1,25
 325 407 325 407 380.5 490 c 128,-1,26
 436 573 436 573 514.5 655.5 c 128,-1,27
 593 738 593 738 691 811 c 1,28,29
 682 822 682 822 673.5 836.5 c 128,-1,30
 665 851 665 851 658.5 867 c 128,-1,31
 652 883 652 883 648 898.5 c 128,-1,32
 644 914 644 914 644 928 c 0,33,34
 644 938 644 938 654 938 c 0,35,36
 662 938 662 938 664 929 c 1,37,38
 664 898 664 898 678.5 869 c 128,-1,39
 693 840 693 840 707 822 c 1,40,41
 813 896 813 896 906 938.5 c 128,-1,42
 999 981 999 981 1086 981 c 0,43,44
 1108 981 1108 981 1129 975.5 c 128,-1,45
 1150 970 1150 970 1165.5 957.5 c 128,-1,46
 1181 945 1181 945 1190.5 926 c 128,-1,47
 1200 907 1200 907 1200 880 c 0,48,49
 1200 856 1200 856 1191 833.5 c 128,-1,50
 1182 811 1182 811 1168 791 c 128,-1,51
 1154 771 1154 771 1136.5 754.5 c 128,-1,52
 1119 738 1119 738 1101 727 c 0,53,54
 1032 683 1032 683 949 683 c 0,55,56
 878 683 878 683 812 712.5 c 128,-1,57
 746 742 746 742 703 794 c 1,58,59
 615 729 615 729 539 651 c 128,-1,60
 463 573 463 573 406.5 491 c 128,-1,61
 350 409 350 409 318 329.5 c 128,-1,62
 286 250 286 250 286 182 c 0,63,64
 286 122 286 122 305.5 81.5 c 128,-1,65
 325 41 325 41 355 16 c 128,-1,66
 385 -9 385 -9 422 -19.5 c 128,-1,67
 459 -30 459 -30 495 -30 c 0,68,69
 547 -30 547 -30 593.5 -15 c 128,-1,70
 640 0 640 0 682 24 c 0,71,72
 705 37 705 37 731.5 58 c 128,-1,73
 758 79 758 79 785 108 c 128,-1,74
 812 137 812 137 837.5 176 c 128,-1,75
 863 215 863 215 884 265 c 1,76,-1
 902 258 l 1,77,78
 879 188 879 188 852.5 108.5 c 128,-1,79
 826 29 826 29 787 -59 c 1,80,81
 856 -53 856 -53 931 -53 c 0,82,83
 939 -53 939 -53 952 -52.5 c 128,-1,84
 965 -52 965 -52 977.5 -52.5 c 128,-1,85
 990 -53 990 -53 999 -55.5 c 128,-1,86
 1008 -58 1008 -58 1008 -64 c 0,87,88
 1008 -74 1008 -74 997 -74 c 0,89,90
 980 -73 980 -73 964 -73 c 128,-1,91
 948 -73 948 -73 932 -73 c 0,92,93
 889 -73 889 -73 850.5 -75 c 128,-1,94
 812 -77 812 -77 777 -80 c 1,95,96
 760 -115 760 -115 739 -157 c 128,-1,97
 718 -199 718 -199 692 -241 c 128,-1,98
 666 -283 666 -283 635 -322.5 c 128,-1,99
 604 -362 604 -362 567 -392.5 c 128,-1,100
 530 -423 530 -423 487 -441.5 c 128,-1,101
 444 -460 444 -460 394 -460 c 0,0,1
754 -83 m 1,102,103
 660 -94 660 -94 593.5 -112 c 128,-1,104
 527 -130 527 -130 484 -148 c 128,-1,105
 441 -166 441 -166 421 -179.5 c 128,-1,106
 401 -193 401 -193 401 -193 c 1,107,108
 399 -193 399 -193 382.5 -205.5 c 128,-1,109
 366 -218 366 -218 346.5 -240 c 128,-1,110
 327 -262 327 -262 311.5 -291.5 c 128,-1,111
 296 -321 296 -321 296 -355 c 0,112,113
 296 -394 296 -394 320 -417 c 128,-1,114
 344 -440 344 -440 394 -440 c 0,115,116
 446 -440 446 -440 491.5 -417 c 128,-1,117
 537 -394 537 -394 575 -359 c 128,-1,118
 613 -324 613 -324 643.5 -281 c 128,-1,119
 674 -238 674 -238 696.5 -198.5 c 128,-1,120
 719 -159 719 -159 733.5 -127.5 c 128,-1,121
 748 -96 748 -96 754 -83 c 1,102,103
719 806 m 1,122,123
 762 755 762 755 822.5 729 c 128,-1,124
 883 703 883 703 946 703 c 0,125,126
 983 703 983 703 1024 715 c 128,-1,127
 1065 727 1065 727 1099.5 749.5 c 128,-1,128
 1134 772 1134 772 1157 805 c 128,-1,129
 1180 838 1180 838 1180 880 c 0,130,131
 1180 915 1180 915 1157 937.5 c 128,-1,132
 1134 960 1134 960 1084 960 c 0,133,134
 1013 960 1013 960 917 920.5 c 128,-1,135
 821 881 821 881 719 806 c 1,122,123
EndSplineSet
EndChar

StartChar: H
Encoding: 72 72 43
Width: 924
VWidth: 1700
GlyphClass: 2
Flags: W
LayerCount: 2
Fore
SplineSet
15 -194 m 0,0,1
 0 -175 0 -175 -8.5 -149.5 c 128,-1,2
 -17 -124 -17 -124 -17 -94 c 0,3,4
 -17 -49 -17 -49 2.5 3.5 c 128,-1,5
 22 56 22 56 67 116 c 0,6,7
 132 202 132 202 224 267.5 c 128,-1,8
 316 333 316 333 422 384 c 1,9,10
 451 475 451 475 479 562 c 128,-1,11
 507 649 507 649 537 726.5 c 128,-1,12
 567 804 567 804 599 869.5 c 128,-1,13
 631 935 631 935 667 984 c 1,14,15
 635 996 635 996 602.5 1017.5 c 128,-1,16
 570 1039 570 1039 536 1078 c 0,17,18
 533 1081 533 1081 533 1084 c 256,19,20
 533 1087 533 1087 536 1090 c 128,-1,21
 539 1093 539 1093 542 1093 c 0,22,23
 546 1093 546 1093 549 1090 c 0,24,25
 584 1049 584 1049 617 1028 c 128,-1,26
 650 1007 650 1007 679 999 c 1,27,28
 712 1043 712 1043 754.5 1074 c 128,-1,29
 797 1105 797 1105 841 1105 c 0,30,31
 864 1105 864 1105 874.5 1091.5 c 128,-1,32
 885 1078 885 1078 885 1063 c 0,33,34
 885 1040 885 1040 868.5 1025 c 128,-1,35
 852 1010 852 1010 834 999 c 0,36,37
 832 998 832 998 824 993.5 c 128,-1,38
 816 989 816 989 803.5 984.5 c 128,-1,39
 791 980 791 980 773.5 976.5 c 128,-1,40
 756 973 756 973 735 973 c 0,41,42
 711 973 711 973 686 979 c 1,43,44
 653 929 653 929 622 871 c 128,-1,45
 591 813 591 813 562 739 c 0,46,47
 532 662 532 662 503 575 c 128,-1,48
 474 488 474 488 444 394 c 1,49,50
 492 416 492 416 542 435.5 c 128,-1,51
 592 455 592 455 641 474 c 128,-1,52
 690 493 690 493 736 511.5 c 128,-1,53
 782 530 782 530 822 550 c 1,54,55
 851 602 851 602 883 652.5 c 128,-1,56
 915 703 915 703 941 742 c 128,-1,57
 967 781 967 781 984 804 c 128,-1,58
 1001 827 1001 827 1000 826 c 1,59,60
 1002 828 1002 828 1019.5 850.5 c 128,-1,61
 1037 873 1037 873 1064 899.5 c 128,-1,62
 1091 926 1091 926 1123.5 948 c 128,-1,63
 1156 970 1156 970 1188 970 c 0,64,65
 1221 970 1221 970 1242.5 948 c 128,-1,66
 1264 926 1264 926 1264 895 c 256,67,68
 1264 864 1264 864 1247.5 838 c 128,-1,69
 1231 812 1231 812 1212 792 c 0,70,71
 1210 790 1210 790 1185.5 767 c 128,-1,72
 1161 744 1161 744 1113.5 707.5 c 128,-1,73
 1066 671 1066 671 996.5 626 c 128,-1,74
 927 581 927 581 835 536 c 1,75,76
 804 482 804 482 775.5 424 c 128,-1,77
 747 366 747 366 725 308.5 c 128,-1,78
 703 251 703 251 690 195 c 128,-1,79
 677 139 677 139 677 90 c 0,80,81
 677 37 677 37 691.5 -1 c 128,-1,82
 706 -39 706 -39 730.5 -65 c 128,-1,83
 755 -91 755 -91 787 -107.5 c 128,-1,84
 819 -124 819 -124 854 -133 c 1,85,86
 860 -136 860 -136 860 -142 c 0,87,88
 860 -151 860 -151 851 -151 c 2,89,-1
 849 -151 l 1,90,91
 810 -140 810 -140 775 -121 c 128,-1,92
 740 -102 740 -102 714.5 -73 c 128,-1,93
 689 -44 689 -44 674 -4 c 128,-1,94
 659 36 659 36 659 90 c 0,95,96
 659 138 659 138 671.5 192 c 128,-1,97
 684 246 684 246 704.5 302 c 128,-1,98
 725 358 725 358 751.5 414 c 128,-1,99
 778 470 778 470 806 523 c 1,100,101
 766 503 766 503 721 485 c 128,-1,102
 676 467 676 467 628.5 449 c 128,-1,103
 581 431 581 431 532 411.5 c 128,-1,104
 483 392 483 392 437 371 c 1,105,106
 422 326 422 326 411 287 c 128,-1,107
 400 248 400 248 387.5 208 c 128,-1,108
 375 168 375 168 359.5 123.5 c 128,-1,109
 344 79 344 79 320 22 c 0,110,111
 304 -17 304 -17 281.5 -62.5 c 128,-1,112
 259 -108 259 -108 232 -147.5 c 128,-1,113
 205 -187 205 -187 173 -213.5 c 128,-1,114
 141 -240 141 -240 105 -240 c 0,115,116
 79 -240 79 -240 55.5 -227.5 c 128,-1,117
 32 -215 32 -215 15 -194 c 0,0,1
82 105 m 0,118,119
 38 48 38 48 19.5 -2.5 c 128,-1,120
 1 -53 1 -53 1 -94 c 0,121,122
 1 -124 1 -124 10 -148 c 128,-1,123
 19 -172 19 -172 33.5 -188.5 c 128,-1,124
 48 -205 48 -205 67 -213.5 c 128,-1,125
 86 -222 86 -222 106 -222 c 0,126,127
 140 -222 140 -222 173.5 -189.5 c 128,-1,128
 207 -157 207 -157 237.5 -107 c 128,-1,129
 268 -57 268 -57 293.5 2.5 c 128,-1,130
 319 62 319 62 337 116 c 0,131,132
 358 179 358 179 376.5 239.5 c 128,-1,133
 395 300 395 300 415 360 c 1,134,135
 314 310 314 310 228 247.5 c 128,-1,136
 142 185 142 185 82 105 c 0,118,119
1081 891 m 0,137,138
 1054 865 1054 865 1033.5 841 c 128,-1,139
 1013 817 1013 817 994 790.5 c 128,-1,140
 975 764 975 764 955 732 c 128,-1,141
 935 700 935 700 908 658 c 0,142,143
 894 636 894 636 879.5 613 c 128,-1,144
 865 590 865 590 851 564 c 1,145,146
 934 607 934 607 997.5 648.5 c 128,-1,147
 1061 690 1061 690 1104.5 723.5 c 128,-1,148
 1148 757 1148 757 1171.5 779 c 128,-1,149
 1195 801 1195 801 1198 804 c 0,150,151
 1216 823 1216 823 1231 846 c 128,-1,152
 1246 869 1246 869 1246 895 c 0,153,154
 1246 918 1246 918 1228 935 c 128,-1,155
 1210 952 1210 952 1188 952 c 0,156,157
 1172 952 1172 952 1157 946 c 128,-1,158
 1142 940 1142 940 1128.5 931 c 128,-1,159
 1115 922 1115 922 1103 911 c 128,-1,160
 1091 900 1091 900 1081 891 c 0,137,138
735 991 m 0,161,162
 755 991 755 991 771 994 c 128,-1,163
 787 997 787 997 799 1002 c 0,164,165
 813 1007 813 1007 824 1014 c 0,166,167
 836 1021 836 1021 851.5 1033 c 128,-1,168
 867 1045 867 1045 867 1062 c 256,169,170
 867 1079 867 1079 857 1083 c 128,-1,171
 847 1087 847 1087 837 1087 c 0,172,173
 818 1087 818 1087 798 1077.5 c 128,-1,174
 778 1068 778 1068 760 1054 c 128,-1,175
 742 1040 742 1040 726 1024 c 128,-1,176
 710 1008 710 1008 698 994 c 1,177,178
 717 991 717 991 735 991 c 0,161,162
EndSplineSet
EndChar

StartChar: I
Encoding: 73 73 44
Width: 833
VWidth: 1700
GlyphClass: 2
Flags: W
LayerCount: 2
Fore
SplineSet
90 -119 m 0,0,1
 63 -119 63 -119 38.5 -112.5 c 128,-1,2
 14 -106 14 -106 -5.5 -91.5 c 128,-1,3
 -25 -77 -25 -77 -36.5 -53.5 c 128,-1,4
 -48 -30 -48 -30 -48 3 c 0,5,6
 -48 9 -48 9 -48 18 c 128,-1,7
 -48 27 -48 27 -46.5 35.5 c 128,-1,8
 -45 44 -45 44 -42 50 c 128,-1,9
 -39 56 -39 56 -33 56 c 0,10,11
 -23 56 -23 56 -23 46 c 0,12,13
 -23 35 -23 35 -25.5 24 c 128,-1,14
 -28 13 -28 13 -28 3 c 0,15,16
 -28 -27 -28 -27 -17.5 -46.5 c 128,-1,17
 -7 -66 -7 -66 10 -77.5 c 128,-1,18
 27 -89 27 -89 48 -94 c 128,-1,19
 69 -99 69 -99 89 -99 c 0,20,21
 138 -99 138 -99 184 -72.5 c 128,-1,22
 230 -46 230 -46 278.5 3 c 128,-1,23
 327 52 327 52 380.5 122 c 128,-1,24
 434 192 434 192 498 279 c 1,25,26
 553 351 553 351 605 426 c 128,-1,27
 657 501 657 501 708.5 570.5 c 128,-1,28
 760 640 760 640 812 700 c 128,-1,29
 864 760 864 760 920 804 c 1,30,31
 889 815 889 815 847 826 c 128,-1,32
 805 837 805 837 760 837 c 0,33,34
 741 837 741 837 722.5 834.5 c 128,-1,35
 704 832 704 832 686 826 c 0,36,37
 685 825 685 825 683 825 c 0,38,39
 673 825 673 825 673 836 c 0,40,41
 673 842 673 842 684 846.5 c 128,-1,42
 695 851 695 851 710 853.5 c 128,-1,43
 725 856 725 856 740 857 c 128,-1,44
 755 858 755 858 763 858 c 0,45,46
 808 858 808 858 851.5 846 c 128,-1,47
 895 834 895 834 938 820 c 1,48,49
 1004 870 1004 870 1068.5 897 c 128,-1,50
 1133 924 1133 924 1205 924 c 0,51,52
 1220 924 1220 924 1238.5 921.5 c 128,-1,53
 1257 919 1257 919 1273 911 c 128,-1,54
 1289 903 1289 903 1300 888.5 c 128,-1,55
 1311 874 1311 874 1311 851 c 0,56,57
 1311 834 1311 834 1305 816.5 c 128,-1,58
 1299 799 1299 799 1284 784.5 c 128,-1,59
 1269 770 1269 770 1245 760.5 c 128,-1,60
 1221 751 1221 751 1185 751 c 0,61,62
 1160 751 1160 751 1134 754 c 128,-1,63
 1108 757 1108 757 1079 762.5 c 128,-1,64
 1050 768 1050 768 1016.5 776.5 c 128,-1,65
 983 785 983 785 942 797 c 1,66,67
 886 752 886 752 833 691 c 128,-1,68
 780 630 780 630 727.5 560.5 c 128,-1,69
 675 491 675 491 622 415.5 c 128,-1,70
 569 340 569 340 514 267 c 0,71,72
 448 178 448 178 393.5 106.5 c 128,-1,73
 339 35 339 35 288.5 -15 c 128,-1,74
 238 -65 238 -65 190 -92 c 128,-1,75
 142 -119 142 -119 90 -119 c 0,0,1
962 812 m 1,76,77
 1037 789 1037 789 1089.5 780 c 128,-1,78
 1142 771 1142 771 1190 771 c 0,79,80
 1232 771 1232 771 1261.5 793 c 128,-1,81
 1291 815 1291 815 1291 849 c 0,82,83
 1291 867 1291 867 1283 877.5 c 128,-1,84
 1275 888 1275 888 1262.5 894 c 128,-1,85
 1250 900 1250 900 1235.5 902 c 128,-1,86
 1221 904 1221 904 1208 904 c 0,87,88
 1139 904 1139 904 1077.5 879 c 128,-1,89
 1016 854 1016 854 962 812 c 1,76,77
EndSplineSet
EndChar

StartChar: J
Encoding: 74 74 45
Width: 609
VWidth: 1700
GlyphClass: 2
Flags: W
LayerCount: 2
Fore
SplineSet
-450 -402 m 1,0,1
 -492 -401 -492 -401 -520.5 -381.5 c 128,-1,2
 -549 -362 -549 -362 -549 -314 c 0,3,4
 -549 -271 -549 -271 -527 -232.5 c 128,-1,5
 -505 -194 -505 -194 -472 -162.5 c 128,-1,6
 -439 -131 -439 -131 -400 -107 c 128,-1,7
 -361 -83 -361 -83 -328 -69 c 0,8,9
 -272 -45 -272 -45 -215 -31 c 128,-1,10
 -158 -17 -158 -17 -101.5 -8 c 128,-1,11
 -45 1 -45 1 11 7 c 128,-1,12
 67 13 67 13 121 21 c 1,13,14
 196 105 196 105 257.5 181.5 c 128,-1,15
 319 258 319 258 372.5 329 c 128,-1,16
 426 400 426 400 474.5 464.5 c 128,-1,17
 523 529 523 529 572 589 c 128,-1,18
 621 649 621 649 672.5 704 c 128,-1,19
 724 759 724 759 785 810 c 0,20,21
 795 818 795 818 804.5 826 c 128,-1,22
 814 834 814 834 825 842 c 1,23,24
 750 862 750 862 692.5 871.5 c 128,-1,25
 635 881 635 881 588 881 c 0,26,27
 526 881 526 881 493 872.5 c 128,-1,28
 460 864 460 864 455 864 c 0,29,30
 451 864 451 864 447.5 866.5 c 128,-1,31
 444 869 444 869 444 874 c 0,32,33
 444 881 444 881 451 883 c 0,34,35
 452 884 452 884 489 893 c 128,-1,36
 526 902 526 902 590 902 c 0,37,38
 641 902 641 902 701.5 890.5 c 128,-1,39
 762 879 762 879 845 857 c 1,40,41
 1014 978 1014 978 1186 978 c 2,42,-1
 1210 978 l 2,43,44
 1214 978 1214 978 1232.5 975.5 c 128,-1,45
 1251 973 1251 973 1271.5 965 c 128,-1,46
 1292 957 1292 957 1308.5 940.5 c 128,-1,47
 1325 924 1325 924 1325 896 c 0,48,49
 1325 884 1325 884 1322 869 c 1,50,51
 1319 862 1319 862 1312.5 847.5 c 128,-1,52
 1306 833 1306 833 1286.5 818 c 128,-1,53
 1267 803 1267 803 1230 791.5 c 128,-1,54
 1193 780 1193 780 1130 780 c 0,55,56
 1108 780 1108 780 1084 782.5 c 128,-1,57
 1060 785 1060 785 1027.5 791 c 128,-1,58
 995 797 995 797 952 807.5 c 128,-1,59
 909 818 909 818 849 835 c 1,60,61
 784 787 784 787 728 732 c 128,-1,62
 672 677 672 677 619 615 c 128,-1,63
 566 553 566 553 514 484.5 c 128,-1,64
 462 416 462 416 406 342 c 128,-1,65
 350 268 350 268 287 188 c 128,-1,66
 224 108 224 108 150 24 c 1,67,68
 187 28 187 28 221.5 35 c 128,-1,69
 256 42 256 42 287.5 54.5 c 128,-1,70
 319 67 319 67 346.5 87.5 c 128,-1,71
 374 108 374 108 396 140 c 0,72,73
 407 157 407 157 414.5 172 c 128,-1,74
 422 187 422 187 427 199 c 0,75,76
 432 213 432 213 435 225 c 1,77,78
 439 233 439 233 445 233 c 0,79,80
 450 233 450 233 452.5 229.5 c 128,-1,81
 455 226 455 226 455 223 c 2,82,-1
 455 221 l 1,83,84
 454 219 454 219 445.5 192 c 128,-1,85
 437 165 437 165 413 130 c 1,86,87
 388 91 388 91 356.5 68 c 128,-1,88
 325 45 325 45 289 32.5 c 128,-1,89
 253 20 253 20 213 14 c 128,-1,90
 173 8 173 8 132 2 c 1,91,92
 93 -40 93 -40 49.5 -86.5 c 128,-1,93
 6 -133 6 -133 -41.5 -178 c 128,-1,94
 -89 -223 -89 -223 -139 -263.5 c 128,-1,95
 -189 -304 -189 -304 -240.5 -335 c 128,-1,96
 -292 -366 -292 -366 -345 -384 c 128,-1,97
 -398 -402 -398 -402 -450 -402 c 1,0,1
101 -2 m 1,98,99
 45 -9 45 -9 -9 -15.5 c 128,-1,100
 -63 -22 -63 -22 -115.5 -31 c 128,-1,101
 -168 -40 -168 -40 -219.5 -53.5 c 128,-1,102
 -271 -67 -271 -67 -320 -88 c 0,103,104
 -351 -102 -351 -102 -387.5 -124 c 128,-1,105
 -424 -146 -424 -146 -455.5 -175.5 c 128,-1,106
 -487 -205 -487 -205 -508 -239.5 c 128,-1,107
 -529 -274 -529 -274 -529 -311 c 0,108,109
 -529 -333 -529 -333 -522 -347 c 128,-1,110
 -515 -361 -515 -361 -504 -369.5 c 128,-1,111
 -493 -378 -493 -378 -478 -381 c 128,-1,112
 -463 -384 -463 -384 -448 -384 c 0,113,114
 -397 -384 -397 -384 -340 -363 c 128,-1,115
 -283 -342 -283 -342 -216 -296.5 c 128,-1,116
 -149 -251 -149 -251 -70.5 -178.5 c 128,-1,117
 8 -106 8 -106 101 -2 c 1,98,99
870 850 m 1,118,119
 923 835 923 835 962 825.5 c 128,-1,120
 1001 816 1001 816 1031 810 c 128,-1,121
 1061 804 1061 804 1083.5 801.5 c 128,-1,122
 1106 799 1106 799 1126 799 c 0,123,124
 1225 799 1225 799 1265.5 824.5 c 128,-1,125
 1306 850 1306 850 1306 894 c 0,126,127
 1306 918 1306 918 1291.5 931 c 128,-1,128
 1277 944 1277 944 1259 950 c 128,-1,129
 1241 956 1241 956 1225.5 957 c 128,-1,130
 1210 958 1210 958 1209 958 c 2,131,-1
 1185 958 l 2,132,133
 1099 958 1099 958 1020.5 929.5 c 128,-1,134
 942 901 942 901 870 850 c 1,118,119
EndSplineSet
EndChar

StartChar: K
Encoding: 75 75 46
Width: 898
VWidth: 1700
GlyphClass: 2
Flags: W
LayerCount: 2
Fore
SplineSet
1212 847 m 0,0,1
 1233 839 1233 839 1245.5 819.5 c 128,-1,2
 1258 800 1258 800 1258 776 c 0,3,4
 1258 749 1258 749 1252 740.5 c 128,-1,5
 1246 732 1246 732 1242 732 c 0,6,7
 1233 732 1233 732 1233 740 c 256,8,9
 1233 748 1233 748 1236.5 756.5 c 128,-1,10
 1240 765 1240 765 1240 776 c 0,11,12
 1240 799 1240 799 1224 817 c 128,-1,13
 1208 835 1208 835 1179 835 c 0,14,15
 1158 835 1158 835 1134.5 823 c 128,-1,16
 1111 811 1111 811 1087 792.5 c 128,-1,17
 1063 774 1063 774 1038.5 751.5 c 128,-1,18
 1014 729 1014 729 990 709 c 0,19,20
 942 667 942 667 887.5 626.5 c 128,-1,21
 833 586 833 586 774.5 551.5 c 128,-1,22
 716 517 716 517 655 490.5 c 128,-1,23
 594 464 594 464 532 451 c 1,24,25
 560 413 560 413 578 365 c 128,-1,26
 596 317 596 317 596 260 c 256,27,28
 596 203 596 203 585.5 154 c 128,-1,29
 575 105 575 105 575 67 c 0,30,31
 575 51 575 51 579.5 34.5 c 128,-1,32
 584 18 584 18 594 5 c 128,-1,33
 604 -8 604 -8 618.5 -16 c 128,-1,34
 633 -24 633 -24 653 -24 c 0,35,36
 685 -24 685 -24 717 -5.5 c 128,-1,37
 749 13 749 13 770 35 c 1,38,39
 774 37 774 37 776 37 c 0,40,41
 779 37 779 37 782 35 c 128,-1,42
 785 33 785 33 785 28 c 0,43,44
 785 24 785 24 783 22 c 0,45,46
 772 11 772 11 756.5 -0.5 c 128,-1,47
 741 -12 741 -12 724 -21 c 128,-1,48
 707 -30 707 -30 688.5 -35.5 c 128,-1,49
 670 -41 670 -41 652 -41 c 0,50,51
 610 -41 610 -41 583.5 -10.5 c 128,-1,52
 557 20 557 20 557 67 c 0,53,54
 557 110 557 110 567.5 157.5 c 128,-1,55
 578 205 578 205 578 260 c 0,56,57
 578 318 578 318 559.5 363.5 c 128,-1,58
 541 409 541 409 512 447 c 1,59,60
 492 443 492 443 473 441.5 c 128,-1,61
 454 440 454 440 434 440 c 0,62,63
 372 440 372 440 315 459 c 1,64,65
 305 445 305 445 295 431 c 128,-1,66
 285 417 285 417 274 403 c 0,67,68
 205 311 205 311 148.5 234.5 c 128,-1,69
 92 158 92 158 40.5 103.5 c 128,-1,70
 -11 49 -11 49 -60.5 19 c 128,-1,71
 -110 -11 -110 -11 -164 -11 c 0,72,73
 -230 -11 -230 -11 -262 20.5 c 128,-1,74
 -294 52 -294 52 -294 103 c 0,75,76
 -294 108 -294 108 -294 116.5 c 128,-1,77
 -294 125 -294 125 -292.5 133 c 128,-1,78
 -291 141 -291 141 -288 147 c 128,-1,79
 -285 153 -285 153 -280 153 c 0,80,81
 -271 153 -271 153 -271 145 c 0,82,83
 -271 134 -271 134 -273.5 123 c 128,-1,84
 -276 112 -276 112 -276 103 c 0,85,86
 -276 60 -276 60 -249 33.5 c 128,-1,87
 -222 7 -222 7 -164 7 c 0,88,89
 -109 7 -109 7 -58.5 41 c 128,-1,90
 -8 75 -8 75 45.5 136 c 128,-1,91
 99 197 99 197 160 281.5 c 128,-1,92
 221 366 221 366 298 466 c 1,93,94
 290 471 290 471 281 476.5 c 128,-1,95
 272 482 272 482 263.5 489.5 c 128,-1,96
 255 497 255 497 249.5 507.5 c 128,-1,97
 244 518 244 518 244 532 c 0,98,99
 244 559 244 559 265 575 c 128,-1,100
 286 591 286 591 313 591 c 0,101,102
 330 591 330 591 347 587 c 128,-1,103
 364 583 364 583 379 576 c 1,104,105
 439 657 439 657 500 730 c 128,-1,106
 561 803 561 803 624 859 c 1,107,108
 577 868 577 868 521.5 881 c 128,-1,109
 466 894 466 894 411.5 905.5 c 128,-1,110
 357 917 357 917 309.5 925 c 128,-1,111
 262 933 262 933 231 933 c 0,112,113
 174 933 174 933 148 916.5 c 128,-1,114
 122 900 122 900 122 871 c 2,115,-1
 122 867 l 2,116,117
 122 859 122 859 112 859 c 0,118,119
 107 859 107 859 105.5 863.5 c 128,-1,120
 104 868 104 868 104 873 c 0,121,122
 104 883 104 883 109.5 896.5 c 128,-1,123
 115 910 115 910 129 922 c 128,-1,124
 143 934 143 934 167.5 942.5 c 128,-1,125
 192 951 192 951 231 951 c 0,126,127
 265 951 265 951 315 942.5 c 128,-1,128
 365 934 365 934 421.5 922 c 128,-1,129
 478 910 478 910 536 896.5 c 128,-1,130
 594 883 594 883 642 873 c 1,131,132
 694 918 694 918 752 944.5 c 128,-1,133
 810 971 810 971 871 973 c 0,134,135
 883 973 883 973 897.5 970.5 c 128,-1,136
 912 968 912 968 924 960.5 c 128,-1,137
 936 953 936 953 944 940 c 128,-1,138
 952 927 952 927 952 906 c 0,139,140
 952 882 952 882 941.5 866.5 c 128,-1,141
 931 851 931 851 914 842 c 128,-1,142
 897 833 897 833 876.5 829 c 128,-1,143
 856 825 856 825 837 825 c 0,144,145
 815 825 815 825 765.5 832.5 c 128,-1,146
 716 840 716 840 647 854 c 1,147,148
 582 801 582 801 520.5 727 c 128,-1,149
 459 653 459 653 396 568 c 1,150,151
 430 551 430 551 462 524.5 c 128,-1,152
 494 498 494 498 519 467 c 1,153,154
 579 478 579 478 640 503.5 c 128,-1,155
 701 529 701 529 760 563.5 c 128,-1,156
 819 598 819 598 874.5 639 c 128,-1,157
 930 680 930 680 979 722 c 0,158,159
 1002 742 1002 742 1026.5 765 c 128,-1,160
 1051 788 1051 788 1076 807.5 c 128,-1,161
 1101 827 1101 827 1126.5 840 c 128,-1,162
 1152 853 1152 853 1179 853 c 0,163,164
 1195 853 1195 853 1212 847 c 0,0,1
717 905 m 0,165,166
 704 897 704 897 691 888 c 128,-1,167
 678 879 678 879 665 869 c 1,168,169
 730 856 730 856 775 849.5 c 128,-1,170
 820 843 820 843 840 843 c 0,171,172
 854 843 854 843 870.5 845.5 c 128,-1,173
 887 848 887 848 901.5 855 c 128,-1,174
 916 862 916 862 925.5 874.5 c 128,-1,175
 935 887 935 887 935 907 c 0,176,177
 935 922 935 922 929.5 931 c 128,-1,178
 924 940 924 940 915 945.5 c 128,-1,179
 906 951 906 951 894.5 953 c 128,-1,180
 883 955 883 955 871 955 c 0,181,182
 832 954 832 954 793.5 941 c 128,-1,183
 755 928 755 928 717 905 c 0,165,166
262 532 m 0,184,185
 262 515 262 515 278 501.5 c 128,-1,186
 294 488 294 488 309 481 c 1,187,188
 323 501 323 501 338 521 c 128,-1,189
 353 541 353 541 368 561 c 1,190,191
 355 566 355 566 341.5 570 c 128,-1,192
 328 574 328 574 313 574 c 0,193,194
 296 574 296 574 279 563.5 c 128,-1,195
 262 553 262 553 262 532 c 0,184,185
434 458 m 0,196,197
 450 458 450 458 466 459.5 c 128,-1,198
 482 461 482 461 499 463 c 1,199,200
 478 486 478 486 461.5 501.5 c 128,-1,201
 445 517 445 517 431.5 527 c 128,-1,202
 418 537 418 537 406.5 543 c 128,-1,203
 395 549 395 549 385 554 c 1,204,205
 370 534 370 534 355.5 514 c 128,-1,206
 341 494 341 494 326 474 c 1,207,208
 377 458 377 458 434 458 c 0,196,197
EndSplineSet
EndChar

StartChar: L
Encoding: 76 76 47
Width: 833
VWidth: 1700
GlyphClass: 2
Flags: W
LayerCount: 2
Fore
SplineSet
540 -188 m 0,0,1
 497 -164 497 -164 464.5 -139.5 c 128,-1,2
 432 -115 432 -115 406 -90.5 c 128,-1,3
 380 -66 380 -66 359 -42 c 128,-1,4
 338 -18 338 -18 319 3 c 1,5,6
 283 -24 283 -24 240 -39 c 128,-1,7
 197 -54 197 -54 159 -54 c 0,8,9
 135 -54 135 -54 109 -48.5 c 128,-1,10
 83 -43 83 -43 61.5 -31.5 c 128,-1,11
 40 -20 40 -20 26 -2 c 128,-1,12
 12 16 12 16 12 40 c 256,13,14
 12 64 12 64 21.5 80.5 c 128,-1,15
 31 97 31 97 46 108 c 128,-1,16
 61 119 61 119 79.5 124 c 128,-1,17
 98 129 98 129 116 129 c 0,18,19
 181 127 181 127 228.5 99 c 128,-1,20
 276 71 276 71 322 26 c 1,21,22
 397 81 397 81 475 167 c 128,-1,23
 553 253 553 253 641 372 c 0,24,25
 690 438 690 438 735.5 503.5 c 128,-1,26
 781 569 781 569 825.5 630 c 128,-1,27
 870 691 870 691 915.5 743.5 c 128,-1,28
 961 796 961 796 1009 837 c 1,29,30
 976 848 976 848 936 859.5 c 128,-1,31
 896 871 896 871 862 871 c 0,32,33
 833 871 833 871 809 866 c 128,-1,34
 785 861 785 861 767 855 c 128,-1,35
 749 849 749 849 738.5 844 c 128,-1,36
 728 839 728 839 727 839 c 0,37,38
 723 837 723 837 722 837 c 0,39,40
 718 837 718 837 715.5 840 c 128,-1,41
 713 843 713 843 713 846 c 0,42,43
 713 852 713 852 718 854 c 2,44,45
 718 854 718 854 729 859.5 c 128,-1,46
 740 865 740 865 758.5 871.5 c 128,-1,47
 777 878 777 878 803.5 883.5 c 128,-1,48
 830 889 830 889 862 889 c 0,49,50
 881 889 881 889 902 885.5 c 128,-1,51
 923 882 923 882 945 876.5 c 128,-1,52
 967 871 967 871 987.5 864 c 128,-1,53
 1008 857 1008 857 1026 850 c 1,54,55
 1073 887 1073 887 1128 910 c 128,-1,56
 1183 933 1183 933 1245 933 c 0,57,58
 1277 933 1277 933 1302.5 915 c 128,-1,59
 1328 897 1328 897 1328 863 c 0,60,61
 1328 849 1328 849 1322 834.5 c 128,-1,62
 1316 820 1316 820 1302.5 808 c 128,-1,63
 1289 796 1289 796 1268 788.5 c 128,-1,64
 1247 781 1247 781 1217 781 c 0,65,66
 1190 781 1190 781 1167.5 785 c 128,-1,67
 1145 789 1145 789 1123 795.5 c 128,-1,68
 1101 802 1101 802 1078 811 c 128,-1,69
 1055 820 1055 820 1029 830 c 1,70,71
 980 791 980 791 934 738.5 c 128,-1,72
 888 686 888 686 843 624.5 c 128,-1,73
 798 563 798 563 751.5 496 c 128,-1,74
 705 429 705 429 655 361 c 0,75,76
 567 243 567 243 488 155 c 128,-1,77
 409 67 409 67 334 13 c 1,78,79
 355 -8 355 -8 375.5 -31 c 128,-1,80
 396 -54 396 -54 421 -77.5 c 128,-1,81
 446 -101 446 -101 476.5 -125 c 128,-1,82
 507 -149 507 -149 549 -172 c 0,83,84
 599 -200 599 -200 644 -212.5 c 128,-1,85
 689 -225 689 -225 727 -225 c 0,86,87
 749 -225 749 -225 771.5 -220 c 128,-1,88
 794 -215 794 -215 812 -203.5 c 128,-1,89
 830 -192 830 -192 841.5 -174 c 128,-1,90
 853 -156 853 -156 853 -129 c 0,91,92
 853 -109 853 -109 845.5 -92.5 c 128,-1,93
 838 -76 838 -76 828.5 -64 c 128,-1,94
 819 -52 819 -52 811.5 -45 c 128,-1,95
 804 -38 804 -38 804 -37 c 0,96,97
 804 -27 804 -27 813 -27 c 1,98,99
 815 -26 815 -26 819 -29 c 0,100,101
 823 -31 823 -31 829 -37 c 128,-1,102
 835 -43 835 -43 845 -57 c 0,103,104
 871 -94 871 -94 871 -130 c 0,105,106
 871 -163 871 -163 856.5 -184.5 c 128,-1,107
 842 -206 842 -206 820 -219 c 128,-1,108
 798 -232 798 -232 773 -237.5 c 128,-1,109
 748 -243 748 -243 727 -243 c 0,110,111
 686 -243 686 -243 638.5 -230 c 128,-1,112
 591 -217 591 -217 540 -188 c 0,0,1
30 39 m 1,113,114
 33 17 33 17 46.5 2.5 c 128,-1,115
 60 -12 60 -12 79 -20.5 c 128,-1,116
 98 -29 98 -29 119.5 -32.5 c 128,-1,117
 141 -36 141 -36 159 -36 c 0,118,119
 194 -36 194 -36 231.5 -22.5 c 128,-1,120
 269 -9 269 -9 307 16 c 1,121,122
 265 58 265 58 219 84.5 c 128,-1,123
 173 111 173 111 116 111 c 0,124,125
 81 111 81 111 55.5 92.5 c 128,-1,126
 30 74 30 74 30 39 c 1,113,114
1099 823 m 0,127,128
 1127 812 1127 812 1154 805.5 c 128,-1,129
 1181 799 1181 799 1213 799 c 0,130,131
 1232 799 1232 799 1249.5 802.5 c 128,-1,132
 1267 806 1267 806 1280.5 814 c 128,-1,133
 1294 822 1294 822 1302 833.5 c 128,-1,134
 1310 845 1310 845 1310 862 c 0,135,136
 1310 878 1310 878 1303.5 888 c 128,-1,137
 1297 898 1297 898 1286.5 904 c 128,-1,138
 1276 910 1276 910 1264 912.5 c 128,-1,139
 1252 915 1252 915 1242 915 c 0,140,141
 1186 913 1186 913 1139 894 c 128,-1,142
 1092 875 1092 875 1046 843 c 1,143,144
 1061 837 1061 837 1074 832.5 c 128,-1,145
 1087 828 1087 828 1099 823 c 0,127,128
EndSplineSet
EndChar

StartChar: M
Encoding: 77 77 48
Width: 1191
VWidth: 1700
GlyphClass: 2
Flags: W
LayerCount: 2
Fore
SplineSet
1018 -150 m 0,0,1
 1000 -133 1000 -133 989 -113 c 128,-1,2
 978 -93 978 -93 972.5 -72 c 128,-1,3
 967 -51 967 -51 965.5 -30 c 128,-1,4
 964 -9 964 -9 964 11 c 0,5,6
 967 88 967 88 986 169.5 c 128,-1,7
 1005 251 1005 251 1032.5 330.5 c 128,-1,8
 1060 410 1060 410 1094 485 c 128,-1,9
 1128 560 1128 560 1161.5 624.5 c 128,-1,10
 1195 689 1195 689 1225.5 739.5 c 128,-1,11
 1256 790 1256 790 1277 821 c 0,12,13
 1284 832 1284 832 1290.5 847 c 128,-1,14
 1297 862 1297 862 1297 874 c 0,15,16
 1297 885 1297 885 1290.5 892 c 128,-1,17
 1284 899 1284 899 1267 899 c 0,18,19
 1230 899 1230 899 1179.5 876.5 c 128,-1,20
 1129 854 1129 854 1070 814 c 128,-1,21
 1011 774 1011 774 946.5 718 c 128,-1,22
 882 662 882 662 817 595 c 128,-1,23
 752 528 752 528 688.5 452.5 c 128,-1,24
 625 377 625 377 570 297 c 1,25,26
 561 225 561 225 561 148 c 0,27,28
 561 134 561 134 561.5 121.5 c 128,-1,29
 562 109 562 109 562 95 c 0,30,31
 562 78 562 78 559.5 52.5 c 128,-1,32
 557 27 557 27 548 3.5 c 128,-1,33
 539 -20 539 -20 521 -36.5 c 128,-1,34
 503 -53 503 -53 473 -53 c 0,35,36
 442 -53 442 -53 426 -29 c 128,-1,37
 410 -5 410 -5 410 24 c 0,38,39
 410 43 410 43 416 63.5 c 128,-1,40
 422 84 422 84 431 103.5 c 128,-1,41
 440 123 440 123 450 140.5 c 128,-1,42
 460 158 460 158 469 172 c 1,43,44
 488 206 488 206 509 238.5 c 128,-1,45
 530 271 530 271 552 304 c 1,46,47
 561 377 561 377 578 445 c 128,-1,48
 595 513 595 513 616 577 c 128,-1,49
 637 641 637 641 661.5 701 c 128,-1,50
 686 761 686 761 712 820 c 0,51,52
 721 841 721 841 724.5 855.5 c 128,-1,53
 728 870 728 870 728 879 c 0,54,55
 727 894 727 894 721 899.5 c 128,-1,56
 715 905 715 905 702 905 c 0,57,58
 645 905 645 905 583 863.5 c 128,-1,59
 521 822 521 822 455 754 c 128,-1,60
 389 686 389 686 321 599.5 c 128,-1,61
 253 513 253 513 185 423.5 c 128,-1,62
 117 334 117 334 50.5 249 c 128,-1,63
 -16 164 -16 164 -79 99 c 0,64,65
 -163 13 -163 13 -240 -29 c 128,-1,66
 -317 -71 -317 -71 -400 -71 c 1,67,68
 -442 -69 -442 -69 -471.5 -54.5 c 128,-1,69
 -501 -40 -501 -40 -519.5 -18.5 c 128,-1,70
 -538 3 -538 3 -546 30 c 128,-1,71
 -554 57 -554 57 -554 84 c 0,72,73
 -554 96 -554 96 -551 115 c 128,-1,74
 -548 134 -548 134 -543 152 c 128,-1,75
 -538 170 -538 170 -531 183 c 128,-1,76
 -524 196 -524 196 -516 196 c 0,77,78
 -507 196 -507 196 -507 186 c 0,79,80
 -507 183 -507 183 -508 182 c 0,81,82
 -521 163 -521 163 -528.5 137 c 128,-1,83
 -536 111 -536 111 -536 84 c 0,84,85
 -536 59 -536 59 -528.5 34.5 c 128,-1,86
 -521 10 -521 10 -503.5 -9.5 c 128,-1,87
 -486 -29 -486 -29 -458 -41 c 128,-1,88
 -430 -53 -430 -53 -388 -53 c 0,89,90
 -330 -53 -330 -53 -272 -26 c 128,-1,91
 -214 1 -214 1 -153.5 53 c 128,-1,92
 -93 105 -93 105 -28.5 181 c 128,-1,93
 36 257 36 257 108 354 c 0,94,95
 157 420 157 420 208 488.5 c 128,-1,96
 259 557 259 557 311 620 c 128,-1,97
 363 683 363 683 414 738.5 c 128,-1,98
 465 794 465 794 515 835 c 128,-1,99
 565 876 565 876 612 899.5 c 128,-1,100
 659 923 659 923 702 923 c 0,101,102
 725 923 725 923 735.5 910.5 c 128,-1,103
 746 898 746 898 746 879 c 0,104,105
 746 867 746 867 742 851 c 128,-1,106
 738 835 738 835 728 812 c 0,107,108
 704 757 704 757 681.5 701 c 128,-1,109
 659 645 659 645 638.5 586 c 128,-1,110
 618 527 618 527 601.5 465 c 128,-1,111
 585 403 585 403 575 336 c 1,112,113
 632 415 632 415 695 488.5 c 128,-1,114
 758 562 758 562 822.5 626.5 c 128,-1,115
 887 691 887 691 950.5 744.5 c 128,-1,116
 1014 798 1014 798 1071.5 836.5 c 128,-1,117
 1129 875 1129 875 1179.5 896 c 128,-1,118
 1230 917 1230 917 1267 917 c 1,119,120
 1289 915 1289 915 1302.5 906 c 128,-1,121
 1316 897 1316 897 1316 876 c 0,122,123
 1316 856 1316 856 1297.5 822 c 128,-1,124
 1279 788 1279 788 1250 739 c 128,-1,125
 1221 690 1221 690 1184.5 625 c 128,-1,126
 1148 560 1148 560 1112 479 c 0,127,128
 1088 424 1088 424 1065.5 365 c 128,-1,129
 1043 306 1043 306 1025 246 c 128,-1,130
 1007 186 1007 186 995.5 126.5 c 128,-1,131
 984 67 984 67 982 10 c 1,132,-1
 982 9 l 1,133,-1
 982 -4 l 2,134,135
 982 -38 982 -38 991.5 -73.5 c 128,-1,136
 1001 -109 1001 -109 1030 -137 c 0,137,138
 1055 -160 1055 -160 1086.5 -170.5 c 128,-1,139
 1118 -181 1118 -181 1149 -181 c 0,140,141
 1186 -181 1186 -181 1214.5 -167.5 c 128,-1,142
 1243 -154 1243 -154 1262 -137.5 c 128,-1,143
 1281 -121 1281 -121 1291 -107 c 128,-1,144
 1301 -93 1301 -93 1302 -91 c 0,145,146
 1304 -86 1304 -86 1309 -86 c 256,147,148
 1314 -86 1314 -86 1317 -89 c 128,-1,149
 1320 -92 1320 -92 1320 -95 c 256,150,151
 1320 -98 1320 -98 1318 -100 c 0,152,153
 1317 -101 1317 -101 1306 -116.5 c 128,-1,154
 1295 -132 1295 -132 1274 -150.5 c 128,-1,155
 1253 -169 1253 -169 1222 -184 c 128,-1,156
 1191 -199 1191 -199 1149 -199 c 0,157,158
 1070 -199 1070 -199 1018 -150 c 0,0,1
473 -35 m 0,159,160
 496 -35 496 -35 510 -21.5 c 128,-1,161
 524 -8 524 -8 531.5 12 c 128,-1,162
 539 32 539 32 541.5 54.5 c 128,-1,163
 544 77 544 77 544 95 c 0,164,165
 544 109 544 109 543.5 121 c 128,-1,166
 543 133 543 133 543 144 c 0,167,168
 543 176 543 176 544.5 203.5 c 128,-1,169
 546 231 546 231 548 265 c 1,170,171
 510 209 510 209 486.5 167.5 c 128,-1,172
 463 126 463 126 450 96.5 c 128,-1,173
 437 67 437 67 432 49.5 c 128,-1,174
 427 32 427 32 427 24 c 0,175,176
 427 3 427 3 438 -16 c 128,-1,177
 449 -35 449 -35 473 -35 c 0,159,160
EndSplineSet
EndChar

StartChar: N
Encoding: 78 78 49
Width: 921
VWidth: 1700
GlyphClass: 2
Flags: W
LayerCount: 2
Fore
SplineSet
-324 -16 m 0,0,1
 -343 7 -343 7 -350.5 34 c 128,-1,2
 -358 61 -358 61 -358 89 c 0,3,4
 -358 101 -358 101 -355.5 120 c 128,-1,5
 -353 139 -353 139 -348 157.5 c 128,-1,6
 -343 176 -343 176 -336 189.5 c 128,-1,7
 -329 203 -329 203 -321 203 c 0,8,9
 -312 203 -312 203 -312 193 c 0,10,11
 -312 190 -312 190 -313 189 c 0,12,13
 -327 169 -327 169 -333.5 143 c 128,-1,14
 -340 117 -340 117 -340 89 c 0,15,16
 -340 53 -340 53 -328.5 27.5 c 128,-1,17
 -317 2 -317 2 -298 -14.5 c 128,-1,18
 -279 -31 -279 -31 -254.5 -38.5 c 128,-1,19
 -230 -46 -230 -46 -204 -46 c 0,20,21
 -89 -46 -89 -46 34 58 c 128,-1,22
 157 162 157 162 303 360 c 0,23,24
 353 427 353 427 404.5 495 c 128,-1,25
 456 563 456 563 507 625.5 c 128,-1,26
 558 688 558 688 607.5 742.5 c 128,-1,27
 657 797 657 797 703 837 c 128,-1,28
 749 877 749 877 791 900 c 128,-1,29
 833 923 833 923 868 923 c 0,30,31
 887 923 887 923 898.5 914.5 c 128,-1,32
 910 906 910 906 910 889 c 0,33,34
 910 876 910 876 892.5 840.5 c 128,-1,35
 875 805 875 805 848 754 c 128,-1,36
 821 703 821 703 788 639.5 c 128,-1,37
 755 576 755 576 724 507 c 0,38,39
 698 451 698 451 674.5 391.5 c 128,-1,40
 651 332 651 332 633 273.5 c 128,-1,41
 615 215 615 215 604.5 159 c 128,-1,42
 594 103 594 103 594 54 c 0,43,44
 594 44 594 44 595 33 c 128,-1,45
 596 22 596 22 599.5 12.5 c 128,-1,46
 603 3 603 3 609 -3 c 128,-1,47
 615 -9 615 -9 624 -9 c 0,48,49
 649 -9 649 -9 677.5 33 c 128,-1,50
 706 75 706 75 743.5 144 c 128,-1,51
 781 213 781 213 831 303 c 128,-1,52
 881 393 881 393 949 489 c 0,53,54
 1023 594 1023 594 1090 664.5 c 128,-1,55
 1157 735 1157 735 1208 778.5 c 128,-1,56
 1259 822 1259 822 1291 841.5 c 128,-1,57
 1323 861 1323 861 1327 863 c 0,58,59
 1329 865 1329 865 1339.5 871 c 128,-1,60
 1350 877 1350 877 1366 886 c 1,61,62
 1340 919 1340 919 1330 942.5 c 128,-1,63
 1320 966 1320 966 1319 970 c 1,64,-1
 1319 972 l 2,65,66
 1319 975 1319 975 1321.5 978 c 128,-1,67
 1324 981 1324 981 1329 981 c 0,68,69
 1331 981 1331 981 1338 969.5 c 128,-1,70
 1345 958 1345 958 1353 943 c 128,-1,71
 1361 928 1361 928 1369 914 c 128,-1,72
 1377 900 1377 900 1382 895 c 1,73,74
 1401 904 1401 904 1423 914 c 128,-1,75
 1445 924 1445 924 1468.5 932.5 c 128,-1,76
 1492 941 1492 941 1517 946.5 c 128,-1,77
 1542 952 1542 952 1568 952 c 0,78,79
 1619 952 1619 952 1646.5 930.5 c 128,-1,80
 1674 909 1674 909 1674 874 c 0,81,82
 1674 851 1674 851 1663.5 835.5 c 128,-1,83
 1653 820 1653 820 1637.5 810.5 c 128,-1,84
 1622 801 1622 801 1603.5 797 c 128,-1,85
 1585 793 1585 793 1569 793 c 0,86,87
 1513 793 1513 793 1463.5 813.5 c 128,-1,88
 1414 834 1414 834 1378 872 c 1,89,90
 1351 857 1351 857 1311.5 833.5 c 128,-1,91
 1272 810 1272 810 1220.5 766.5 c 128,-1,92
 1169 723 1169 723 1104.5 654 c 128,-1,93
 1040 585 1040 585 964 478 c 0,94,95
 891 376 891 376 840 284 c 128,-1,96
 789 192 789 192 751 123 c 128,-1,97
 713 54 713 54 683.5 13.5 c 128,-1,98
 654 -27 654 -27 624 -27 c 0,99,100
 607 -27 607 -27 597.5 -17 c 128,-1,101
 588 -7 588 -7 583 7 c 128,-1,102
 578 21 578 21 577 37 c 128,-1,103
 576 53 576 53 576 65 c 0,104,105
 578 133 578 133 597 209 c 128,-1,106
 616 285 616 285 644.5 362 c 128,-1,107
 673 439 673 439 707.5 514 c 128,-1,108
 742 589 742 589 775 654.5 c 128,-1,109
 808 720 808 720 836.5 772.5 c 128,-1,110
 865 825 865 825 882 858 c 1,111,112
 892 875 892 875 892 887 c 0,113,114
 892 905 892 905 868 905 c 0,115,116
 821 905 821 905 757 856.5 c 128,-1,117
 693 808 693 808 620.5 729 c 128,-1,118
 548 650 548 650 470.5 551 c 128,-1,119
 393 452 393 452 318 350 c 0,120,121
 244 251 244 251 177 173.5 c 128,-1,122
 110 96 110 96 46 43 c 128,-1,123
 -18 -10 -18 -10 -80 -37 c 128,-1,124
 -142 -64 -142 -64 -204 -64 c 0,125,126
 -240 -64 -240 -64 -271 -53 c 128,-1,127
 -302 -42 -302 -42 -324 -16 c 0,0,1
1569 811 m 0,128,129
 1584 811 1584 811 1599.5 814 c 128,-1,130
 1615 817 1615 817 1627.5 824.5 c 128,-1,131
 1640 832 1640 832 1647.5 844 c 128,-1,132
 1655 856 1655 856 1655 874 c 0,133,134
 1655 903 1655 903 1629.5 918.5 c 128,-1,135
 1604 934 1604 934 1568 934 c 0,136,137
 1545 934 1545 934 1522 929 c 128,-1,138
 1499 924 1499 924 1476.5 916 c 128,-1,139
 1454 908 1454 908 1433 899 c 128,-1,140
 1412 890 1412 890 1394 881 c 1,141,142
 1434 843 1434 843 1478 827 c 128,-1,143
 1522 811 1522 811 1569 811 c 0,128,129
EndSplineSet
EndChar

StartChar: O
Encoding: 79 79 50
Width: 951
VWidth: 1700
GlyphClass: 2
Flags: W
LayerCount: 2
Fore
SplineSet
264 -35 m 0,0,1
 199 -31 199 -31 151.5 -10 c 128,-1,2
 104 11 104 11 72.5 44.5 c 128,-1,3
 41 78 41 78 25.5 122 c 128,-1,4
 10 166 10 166 10 218 c 0,5,6
 10 281 10 281 30 343 c 128,-1,7
 50 405 50 405 81.5 462 c 128,-1,8
 113 519 113 519 153 569.5 c 128,-1,9
 193 620 193 620 232 660 c 0,10,11
 349 778 349 778 473 841.5 c 128,-1,12
 597 905 597 905 711 906 c 0,13,14
 721 906 721 906 734.5 906 c 128,-1,15
 748 906 748 906 755 899 c 1,16,17
 796 916 796 916 836 916 c 0,18,19
 911 916 911 916 961 874 c 128,-1,20
 1011 832 1011 832 1031 761 c 0,21,22
 1032 758 1032 758 1032.5 755.5 c 128,-1,23
 1033 753 1033 753 1033 750 c 1,24,25
 1097 742 1097 742 1137 710.5 c 128,-1,26
 1177 679 1177 679 1177 621 c 0,27,28
 1177 598 1177 598 1168.5 572.5 c 128,-1,29
 1160 547 1160 547 1139.5 524 c 128,-1,30
 1119 501 1119 501 1084 484.5 c 128,-1,31
 1049 468 1049 468 996 463 c 1,32,33
 967 399 967 399 923.5 337.5 c 128,-1,34
 880 276 880 276 825.5 220.5 c 128,-1,35
 771 165 771 165 707.5 118 c 128,-1,36
 644 71 644 71 574.5 37 c 128,-1,37
 505 3 505 3 432.5 -16.5 c 128,-1,38
 360 -36 360 -36 288 -36 c 0,39,40
 282 -36 282 -36 276 -36 c 128,-1,41
 270 -36 270 -36 264 -35 c 0,0,1
265 -17 m 1,42,-1
 281 -17 l 2,43,44
 358 -17 358 -17 429 2 c 128,-1,45
 500 21 500 21 563 51.5 c 128,-1,46
 626 82 626 82 681 121.5 c 128,-1,47
 736 161 736 161 781 203 c 0,48,49
 844 261 844 261 894 327 c 128,-1,50
 944 393 944 393 976 462 c 1,51,52
 928 462 928 462 883 471.5 c 128,-1,53
 838 481 838 481 798.5 498 c 128,-1,54
 759 515 759 515 727 539 c 128,-1,55
 695 563 695 563 674 593 c 1,56,57
 653 571 653 571 634 545 c 128,-1,58
 615 519 615 519 598 487 c 0,59,60
 596 482 596 482 591 482 c 0,61,62
 581 482 581 482 581 492 c 0,63,64
 581 495 581 495 582 496 c 0,65,66
 600 530 600 530 620.5 558 c 128,-1,67
 641 586 641 586 663 609 c 1,68,69
 646 637 646 637 638 667 c 128,-1,70
 630 697 630 697 630 726 c 1,71,72
 632 782 632 782 658 822 c 128,-1,73
 684 862 684 862 730 888 c 1,74,-1
 701 888 l 2,75,76
 642 888 642 888 580.5 867 c 128,-1,77
 519 846 519 846 459 812.5 c 128,-1,78
 399 779 399 779 344.5 735.5 c 128,-1,79
 290 692 290 692 245 647 c 0,80,81
 206 608 206 608 167.5 558.5 c 128,-1,82
 129 509 129 509 98 453.5 c 128,-1,83
 67 398 67 398 48 338 c 128,-1,84
 29 278 29 278 29 217 c 0,85,86
 29 115 29 115 89 52 c 128,-1,87
 149 -11 149 -11 265 -17 c 1,42,-1
722 565 m 0,88,89
 741 547 741 547 768.5 531.5 c 128,-1,90
 796 516 796 516 828.5 504.5 c 128,-1,91
 861 493 861 493 896.5 486.5 c 128,-1,92
 932 480 932 480 967 480 c 0,93,94
 972 480 972 480 975.5 480 c 128,-1,95
 979 480 979 480 984 481 c 1,96,97
 1003 525 1003 525 1014.5 569 c 128,-1,98
 1026 613 1026 613 1026 658 c 0,99,100
 1026 669 1026 669 1025 689 c 128,-1,101
 1024 709 1024 709 1019 733 c 1,102,-1
 1008 733 l 2,103,104
 922 733 922 733 840 704 c 128,-1,105
 758 675 758 675 686 606 c 1,106,107
 702 584 702 584 722 565 c 0,88,89
1044 657 m 1,108,109
 1042 606 1042 606 1031 564 c 128,-1,110
 1020 522 1020 522 1004 482 c 1,111,112
 1036 484 1036 484 1064 495.5 c 128,-1,113
 1092 507 1092 507 1113 526 c 128,-1,114
 1134 545 1134 545 1146.5 569 c 128,-1,115
 1159 593 1159 593 1159 621 c 0,116,117
 1158 652 1158 652 1146.5 672 c 128,-1,118
 1135 692 1135 692 1117.5 704.5 c 128,-1,119
 1100 717 1100 717 1078.5 723 c 128,-1,120
 1057 729 1057 729 1037 732 c 1,121,122
 1042 708 1042 708 1043 688.5 c 128,-1,123
 1044 669 1044 669 1044 658 c 2,124,-1
 1044 657 l 1,108,109
648 726 m 0,125,126
 648 700 648 700 655 673.5 c 128,-1,127
 662 647 662 647 677 622 c 1,128,129
 717 660 717 660 759.5 685 c 128,-1,130
 802 710 802 710 845 724.5 c 128,-1,131
 888 739 888 739 931 745 c 128,-1,132
 974 751 974 751 1015 751 c 1,133,134
 995 823 995 823 948.5 860.5 c 128,-1,135
 902 898 902 898 836 898 c 1,136,137
 799 897 799 897 765 884 c 128,-1,138
 731 871 731 871 705 848.5 c 128,-1,139
 679 826 679 826 663.5 795 c 128,-1,140
 648 764 648 764 648 726 c 0,125,126
EndSplineSet
EndChar

StartChar: P
Encoding: 80 80 51
Width: 1203
VWidth: 1700
GlyphClass: 2
Flags: W
LayerCount: 2
Fore
SplineSet
1290 818 m 0,0,1
 1291 817 1291 817 1291 814 c 0,2,3
 1291 805 1291 805 1282 805 c 0,4,5
 1275 805 1275 805 1274 811 c 1,6,7
 1263 834 1263 834 1245.5 850 c 128,-1,8
 1228 866 1228 866 1206 876 c 128,-1,9
 1184 886 1184 886 1159 890.5 c 128,-1,10
 1134 895 1134 895 1110 895 c 0,11,12
 1061 895 1061 895 1018 886 c 1,13,14
 1023 884 1023 884 1027 882.5 c 128,-1,15
 1031 881 1031 881 1036 879 c 0,16,17
 1086 856 1086 856 1121.5 828 c 128,-1,18
 1157 800 1157 800 1181 769.5 c 128,-1,19
 1205 739 1205 739 1218.5 709.5 c 128,-1,20
 1232 680 1232 680 1239 654.5 c 128,-1,21
 1246 629 1246 629 1248 609.5 c 128,-1,22
 1250 590 1250 590 1250 581 c 0,23,24
 1250 514 1250 514 1220.5 452 c 128,-1,25
 1191 390 1191 390 1141.5 342.5 c 128,-1,26
 1092 295 1092 295 1028.5 266.5 c 128,-1,27
 965 238 965 238 897 238 c 0,28,29
 846 238 846 238 796 255.5 c 128,-1,30
 746 273 746 273 698 308 c 0,31,32
 680 321 680 321 666.5 334 c 128,-1,33
 653 347 653 347 644 357 c 0,34,35
 633 368 633 368 625 379 c 0,36,37
 623 381 623 381 623 384 c 0,38,39
 623 394 623 394 631 394 c 0,40,41
 635 394 635 394 639 390 c 0,42,43
 660 361 660 361 689.5 336.5 c 128,-1,44
 719 312 719 312 753 294.5 c 128,-1,45
 787 277 787 277 824.5 267 c 128,-1,46
 862 257 862 257 899 257 c 0,47,48
 957 257 957 257 1016 282 c 128,-1,49
 1075 307 1075 307 1123 351 c 128,-1,50
 1171 395 1171 395 1201.5 454 c 128,-1,51
 1232 513 1232 513 1232 581 c 0,52,53
 1232 590 1232 590 1230 610.5 c 128,-1,54
 1228 631 1228 631 1220.5 657.5 c 128,-1,55
 1213 684 1213 684 1197.5 714.5 c 128,-1,56
 1182 745 1182 745 1154.5 774.5 c 128,-1,57
 1127 804 1127 804 1086 831 c 128,-1,58
 1045 858 1045 858 987 878 c 1,59,60
 915 857 915 857 853 810.5 c 128,-1,61
 791 764 791 764 735 700.5 c 128,-1,62
 679 637 679 637 627.5 560.5 c 128,-1,63
 576 484 576 484 526 404 c 0,64,65
 486 340 486 340 451 276 c 128,-1,66
 416 212 416 212 383.5 154 c 128,-1,67
 351 96 351 96 319 46.5 c 128,-1,68
 287 -3 287 -3 253 -39.5 c 128,-1,69
 219 -76 219 -76 180.5 -97 c 128,-1,70
 142 -118 142 -118 96 -118 c 0,71,72
 54 -118 54 -118 20 -95 c 128,-1,73
 -14 -72 -14 -72 -26 -29 c 1,74,-1
 -26 -28 l 2,75,76
 -26 -18 -26 -18 -16 -18 c 0,77,78
 -10 -18 -10 -18 -8 -25 c 0,79,80
 0 -62 0 -62 29.5 -81 c 128,-1,81
 59 -100 59 -100 95 -100 c 0,82,83
 128 -100 128 -100 157 -87.5 c 128,-1,84
 186 -75 186 -75 212.5 -53 c 128,-1,85
 239 -31 239 -31 263 -0.5 c 128,-1,86
 287 30 287 30 311 67 c 0,87,88
 349 126 349 126 391 202.5 c 128,-1,89
 433 279 433 279 480.5 361.5 c 128,-1,90
 528 444 528 444 581 526.5 c 128,-1,91
 634 609 634 609 693.5 680.5 c 128,-1,92
 753 752 753 752 819 806.5 c 128,-1,93
 885 861 885 861 958 887 c 1,94,95
 940 894 940 894 915.5 899 c 128,-1,96
 891 904 891 904 866 907.5 c 128,-1,97
 841 911 841 911 817.5 912.5 c 128,-1,98
 794 914 794 914 777 914 c 0,99,100
 712 914 712 914 649 898.5 c 128,-1,101
 586 883 586 883 529 847 c 1,102,103
 538 834 538 834 544.5 817 c 128,-1,104
 551 800 551 800 554.5 782.5 c 128,-1,105
 558 765 558 765 559.5 748 c 128,-1,106
 561 731 561 731 561 718 c 0,107,108
 561 658 561 658 539.5 628.5 c 128,-1,109
 518 599 518 599 480 599 c 0,110,111
 443 599 443 599 425 622 c 128,-1,112
 407 645 407 645 407 680 c 0,113,114
 407 695 407 695 413.5 716.5 c 128,-1,115
 420 738 420 738 432 761.5 c 128,-1,116
 444 785 444 785 462 808.5 c 128,-1,117
 480 832 480 832 504 850 c 1,118,119
 486 871 486 871 464 885 c 0,120,121
 457 889 457 889 444.5 894.5 c 128,-1,122
 432 900 432 900 419.5 906 c 128,-1,123
 407 912 407 912 398 916.5 c 128,-1,124
 389 921 389 921 389 924 c 0,125,126
 389 934 389 934 399 934 c 2,127,-1
 401 934 l 1,128,129
 401 934 401 934 413 930 c 128,-1,130
 425 926 425 926 443 917.5 c 128,-1,131
 461 909 461 909 481 895 c 128,-1,132
 501 881 501 881 518 861 c 1,133,134
 571 895 571 895 634.5 913.5 c 128,-1,135
 698 932 698 932 763 932 c 0,136,137
 874 932 874 932 988 897 c 1,138,139
 1014 905 1014 905 1042.5 909 c 128,-1,140
 1071 913 1071 913 1101 913 c 0,141,142
 1130 913 1130 913 1158.5 908.5 c 128,-1,143
 1187 904 1187 904 1212 893.5 c 128,-1,144
 1237 883 1237 883 1257 864.5 c 128,-1,145
 1277 846 1277 846 1290 818 c 0,0,1
537 779 m 1,146,147
 533 810 533 810 515 836 c 1,148,149
 492 818 492 818 475.5 796 c 128,-1,150
 459 774 459 774 447.5 752.5 c 128,-1,151
 436 731 436 731 430.5 711.5 c 128,-1,152
 425 692 425 692 425 680 c 0,153,154
 425 655 425 655 436.5 636 c 128,-1,155
 448 617 448 617 479 617 c 0,156,157
 507 617 507 617 525 641.5 c 128,-1,158
 543 666 543 666 543 718 c 0,159,160
 543 744 543 744 537 779 c 1,146,147
EndSplineSet
EndChar

StartChar: Q
Encoding: 81 81 52
Width: 1004
VWidth: 1700
GlyphClass: 2
Flags: W
LayerCount: 2
Fore
SplineSet
752 -298 m 1,0,1
 715 -281 715 -281 675 -252 c 128,-1,2
 635 -223 635 -223 597 -174 c 0,3,4
 565 -132 565 -132 532.5 -99.5 c 128,-1,5
 500 -67 500 -67 471 -42 c 1,6,7
 435 -57 435 -57 404 -67 c 128,-1,8
 373 -77 373 -77 343.5 -83.5 c 128,-1,9
 314 -90 314 -90 285.5 -93 c 128,-1,10
 257 -96 257 -96 227 -96 c 0,11,12
 206 -96 206 -96 172 -93 c 128,-1,13
 138 -90 138 -90 105.5 -79.5 c 128,-1,14
 73 -69 73 -69 50 -48 c 128,-1,15
 27 -27 27 -27 27 8 c 0,16,17
 27 37 27 37 40 55.5 c 128,-1,18
 53 74 53 74 72.5 85 c 128,-1,19
 92 96 92 96 114.5 100 c 128,-1,20
 137 104 137 104 156 104 c 0,21,22
 203 104 203 104 248 93 c 128,-1,23
 293 82 293 82 332 66 c 0,24,25
 333 65 333 65 344.5 60.5 c 128,-1,26
 356 56 356 56 375 45.5 c 128,-1,27
 394 35 394 35 419 19 c 128,-1,28
 444 3 444 3 473 -21 c 1,29,30
 570 21 570 21 657.5 90 c 128,-1,31
 745 159 745 159 811.5 241.5 c 128,-1,32
 878 324 878 324 919 414 c 128,-1,33
 960 504 960 504 964 589 c 1,34,35
 964 656 964 656 947 711.5 c 128,-1,36
 930 767 930 767 880 806 c 0,37,38
 842 835 842 835 795.5 849.5 c 128,-1,39
 749 864 749 864 702 863 c 0,40,41
 643 862 643 862 584 845 c 128,-1,42
 525 828 525 828 471 799 c 128,-1,43
 417 770 417 770 369.5 731.5 c 128,-1,44
 322 693 322 693 286 649 c 0,45,46
 244 597 244 597 218 534 c 128,-1,47
 192 471 192 471 192 410 c 0,48,49
 192 365 192 365 210 319.5 c 128,-1,50
 228 274 228 274 262.5 238 c 128,-1,51
 297 202 297 202 347.5 179.5 c 128,-1,52
 398 157 398 157 463 157 c 0,53,54
 542 157 542 157 601 181.5 c 128,-1,55
 660 206 660 206 699 244 c 128,-1,56
 738 282 738 282 757 327.5 c 128,-1,57
 776 373 776 373 776 415 c 0,58,59
 776 462 776 462 761.5 496 c 128,-1,60
 747 530 747 530 723.5 551.5 c 128,-1,61
 700 573 700 573 670.5 583.5 c 128,-1,62
 641 594 641 594 612 594 c 256,63,64
 583 594 583 594 554.5 584.5 c 128,-1,65
 526 575 526 575 502 559 c 0,66,67
 498 557 498 557 497 557 c 0,68,69
 488 557 488 557 488 566 c 0,70,71
 488 571 488 571 492 574 c 0,72,73
 519 592 519 592 551 602 c 128,-1,74
 583 612 583 612 616 612 c 0,75,76
 646 612 646 612 678 601 c 128,-1,77
 710 590 710 590 735.5 566 c 128,-1,78
 761 542 761 542 777.5 504.5 c 128,-1,79
 794 467 794 467 794 415 c 0,80,81
 794 369 794 369 773 320.5 c 128,-1,82
 752 272 752 272 711 231.5 c 128,-1,83
 670 191 670 191 607.5 165 c 128,-1,84
 545 139 545 139 463 139 c 0,85,86
 398 139 398 139 345 161 c 128,-1,87
 292 183 292 183 254 220.5 c 128,-1,88
 216 258 216 258 195 306.5 c 128,-1,89
 174 355 174 355 174 408 c 0,90,91
 174 466 174 466 195.5 524 c 128,-1,92
 217 582 217 582 254.5 634.5 c 128,-1,93
 292 687 292 687 343 732 c 128,-1,94
 394 777 394 777 452.5 810 c 128,-1,95
 511 843 511 843 575 862 c 128,-1,96
 639 881 639 881 702 881 c 0,97,98
 786 881 786 881 840 853 c 128,-1,99
 894 825 894 825 925.5 782 c 128,-1,100
 957 739 957 739 969.5 687.5 c 128,-1,101
 982 636 982 636 982 588 c 1,102,103
 977 500 977 500 936 408.5 c 128,-1,104
 895 317 895 317 828 233.5 c 128,-1,105
 761 150 761 150 673.5 80 c 128,-1,106
 586 10 586 10 489 -34 c 1,107,108
 518 -58 518 -58 549 -90 c 128,-1,109
 580 -122 580 -122 612 -163 c 0,110,111
 648 -210 648 -210 685.5 -238 c 128,-1,112
 723 -266 723 -266 758 -281 c 128,-1,113
 793 -296 793 -296 823 -301 c 128,-1,114
 853 -306 853 -306 874 -306 c 0,115,116
 898 -306 898 -306 923 -300.5 c 128,-1,117
 948 -295 948 -295 968 -282.5 c 128,-1,118
 988 -270 988 -270 1001 -250.5 c 128,-1,119
 1014 -231 1014 -231 1014 -203 c 0,120,121
 1014 -179 1014 -179 1005.5 -163 c 128,-1,122
 997 -147 997 -147 984 -138 c 128,-1,123
 971 -129 971 -129 955 -125.5 c 128,-1,124
 939 -122 939 -122 923 -122 c 0,125,126
 906 -122 906 -122 891.5 -126.5 c 128,-1,127
 877 -131 877 -131 864 -130 c 0,128,129
 856 -130 856 -130 856 -121 c 0,130,131
 856 -120 856 -120 856 -117 c 128,-1,132
 856 -114 856 -114 861.5 -111 c 128,-1,133
 867 -108 867 -108 881 -106 c 128,-1,134
 895 -104 895 -104 923 -104 c 0,135,136
 944 -104 944 -104 963.5 -109 c 128,-1,137
 983 -114 983 -114 998.5 -126 c 128,-1,138
 1014 -138 1014 -138 1023 -157 c 128,-1,139
 1032 -176 1032 -176 1032 -204 c 0,140,141
 1032 -237 1032 -237 1016.5 -260 c 128,-1,142
 1001 -283 1001 -283 978 -297 c 128,-1,143
 955 -311 955 -311 927 -317.5 c 128,-1,144
 899 -324 899 -324 874 -324 c 0,145,146
 851 -324 851 -324 819.5 -319 c 128,-1,147
 788 -314 788 -314 751 -298 c 1,148,-1
 752 -298 l 1,0,1
51 32 m 1,149,150
 46 19 46 19 46 6 c 0,151,152
 46 -16 46 -16 59 -31 c 128,-1,153
 72 -46 72 -46 92 -55.5 c 128,-1,154
 112 -65 112 -65 135.5 -69.5 c 128,-1,155
 159 -74 159 -74 179.5 -76 c 128,-1,156
 200 -78 200 -78 214.5 -78 c 128,-1,157
 229 -78 229 -78 231 -78 c 0,158,159
 290 -78 290 -78 345.5 -64.5 c 128,-1,160
 401 -51 401 -51 455 -29 c 1,161,162
 401 13 401 13 365.5 30 c 128,-1,163
 330 47 330 47 326 49 c 0,164,165
 291 65 291 65 245.5 75.5 c 128,-1,166
 200 86 200 86 156 86 c 0,167,168
 121 86 121 86 93 73.5 c 128,-1,169
 65 61 65 61 51 32 c 1,149,150
EndSplineSet
EndChar

StartChar: R
Encoding: 82 82 53
Width: 1154
VWidth: 1700
GlyphClass: 2
Flags: W
LayerCount: 2
Fore
SplineSet
1220 783 m 0,0,1
 1220 782 1220 782 1220.5 781 c 128,-1,2
 1221 780 1221 780 1221 779 c 0,3,4
 1221 770 1221 770 1212 770 c 0,5,6
 1206 770 1206 770 1204 775 c 0,7,8
 1193 801 1193 801 1174.5 817.5 c 128,-1,9
 1156 834 1156 834 1133 843 c 128,-1,10
 1110 852 1110 852 1084 855.5 c 128,-1,11
 1058 859 1058 859 1031 859 c 0,12,13
 1009 859 1009 859 989 857 c 128,-1,14
 969 855 969 855 949 851 c 1,15,16
 950 851 950 851 950.5 850.5 c 128,-1,17
 951 850 951 850 952 850 c 0,18,19
 1023 822 1023 822 1065 782 c 128,-1,20
 1107 742 1107 742 1129 700.5 c 128,-1,21
 1151 659 1151 659 1157.5 623.5 c 128,-1,22
 1164 588 1164 588 1164 569 c 0,23,24
 1164 546 1164 546 1159.5 512 c 128,-1,25
 1155 478 1155 478 1136.5 439.5 c 128,-1,26
 1118 401 1118 401 1080.5 361 c 128,-1,27
 1043 321 1043 321 977 286 c 0,28,29
 926 259 926 259 874 248 c 128,-1,30
 822 237 822 237 772 237 c 0,31,32
 761 237 761 237 750.5 237.5 c 128,-1,33
 740 238 740 238 729 239 c 1,34,35
 736 205 736 205 736 166 c 0,36,37
 736 142 736 142 732.5 118.5 c 128,-1,38
 729 95 729 95 725 72 c 128,-1,39
 721 49 721 49 717.5 25 c 128,-1,40
 714 1 714 1 714 -24 c 0,41,42
 714 -41 714 -41 718.5 -58 c 128,-1,43
 723 -75 723 -75 732.5 -88.5 c 128,-1,44
 742 -102 742 -102 757 -110 c 128,-1,45
 772 -118 772 -118 792 -118 c 0,46,47
 825 -118 825 -118 855.5 -100 c 128,-1,48
 886 -82 886 -82 911 -59 c 0,49,50
 913 -57 913 -57 916 -57 c 0,51,52
 926 -57 926 -57 926 -67 c 0,53,54
 926 -70 926 -70 923 -73 c 0,55,56
 899 -97 899 -97 864 -116.5 c 128,-1,57
 829 -136 829 -136 792 -136 c 0,58,59
 751 -136 751 -136 723.5 -106 c 128,-1,60
 696 -76 696 -76 696 -25 c 0,61,62
 696 20 696 20 706.5 68.5 c 128,-1,63
 717 117 717 117 717 165 c 0,64,65
 717 184 717 184 715.5 202.5 c 128,-1,66
 714 221 714 221 710 241 c 1,67,68
 655 247 655 247 612.5 258.5 c 128,-1,69
 570 270 570 270 537.5 283.5 c 128,-1,70
 505 297 505 297 480.5 311.5 c 128,-1,71
 456 326 456 326 437 338 c 1,72,73
 403 282 403 282 372.5 223.5 c 128,-1,74
 342 165 342 165 311.5 110 c 128,-1,75
 281 55 281 55 249.5 7 c 128,-1,76
 218 -41 218 -41 183 -77 c 128,-1,77
 148 -113 148 -113 108.5 -133.5 c 128,-1,78
 69 -154 69 -154 22 -154 c 0,79,80
 -18 -154 -18 -154 -52 -131 c 128,-1,81
 -86 -108 -86 -108 -96 -65 c 1,82,-1
 -96 -63 l 2,83,84
 -96 -54 -96 -54 -87 -54 c 0,85,86
 -80 -54 -80 -54 -78 -61 c 0,87,88
 -70 -96 -70 -96 -42.5 -116 c 128,-1,89
 -15 -136 -15 -136 22 -136 c 0,90,91
 84 -136 84 -136 132.5 -96.5 c 128,-1,92
 181 -57 181 -57 225.5 9.5 c 128,-1,93
 270 76 270 76 317 164 c 128,-1,94
 364 252 364 252 423 349 c 1,95,96
 407 361 407 361 396 379.5 c 128,-1,97
 385 398 385 398 385 421 c 0,98,99
 385 459 385 459 409 474.5 c 128,-1,100
 433 490 433 490 464 490 c 0,101,102
 486 490 486 490 509 484 c 1,103,104
 548 544 548 544 590.5 601.5 c 128,-1,105
 633 659 633 659 679.5 707.5 c 128,-1,106
 726 756 726 756 777.5 793.5 c 128,-1,107
 829 831 829 831 888 852 c 1,108,109
 792 878 792 878 693 878 c 0,110,111
 685 878 685 878 660.5 876.5 c 128,-1,112
 636 875 636 875 602.5 868.5 c 128,-1,113
 569 862 569 862 531 848.5 c 128,-1,114
 493 835 493 835 459 811 c 1,115,116
 477 783 477 783 484 750.5 c 128,-1,117
 491 718 491 718 491 682 c 0,118,119
 491 664 491 664 487 643 c 128,-1,120
 483 622 483 622 473 604 c 128,-1,121
 463 586 463 586 447.5 574.5 c 128,-1,122
 432 563 432 563 408 563 c 0,123,124
 376 563 376 563 356 585.5 c 128,-1,125
 336 608 336 608 336 643 c 0,126,127
 336 658 336 658 342.5 680 c 128,-1,128
 349 702 349 702 361.5 726 c 128,-1,129
 374 750 374 750 392 773.5 c 128,-1,130
 410 797 410 797 433 815 c 1,131,132
 424 826 424 826 414 834 c 128,-1,133
 404 842 404 842 393 849 c 0,134,135
 387 853 387 853 374.5 859 c 128,-1,136
 362 865 362 865 349.5 871 c 128,-1,137
 337 877 337 877 328 882 c 128,-1,138
 319 887 319 887 319 890 c 0,139,140
 319 898 319 898 328 898 c 2,141,-1
 330 898 l 1,142,143
 330 898 330 898 342 894.5 c 128,-1,144
 354 891 354 891 371.5 882.5 c 128,-1,145
 389 874 389 874 409.5 860 c 128,-1,146
 430 846 430 846 448 825 c 1,147,-1
 448 826 l 1,148,149
 486 851 486 851 525.5 865 c 128,-1,150
 565 879 565 879 599 886 c 128,-1,151
 633 893 633 893 658.5 894.5 c 128,-1,152
 684 896 684 896 693 896 c 0,153,154
 747 896 747 896 802 888 c 128,-1,155
 857 880 857 880 919 862 c 1,156,157
 943 869 943 869 968.5 873 c 128,-1,158
 994 877 994 877 1022 877 c 0,159,160
 1051 877 1051 877 1080.5 873.5 c 128,-1,161
 1110 870 1110 870 1136.5 860 c 128,-1,162
 1163 850 1163 850 1184.5 831.5 c 128,-1,163
 1206 813 1206 813 1220 783 c 0,0,1
473 682 m 1,164,165
 473 711 473 711 467.5 741.5 c 128,-1,166
 462 772 462 772 444 800 c 1,167,168
 423 784 423 784 406.5 762 c 128,-1,169
 390 740 390 740 378 718 c 128,-1,170
 366 696 366 696 360 676.5 c 128,-1,171
 354 657 354 657 354 645 c 0,172,173
 354 616 354 616 368.5 598.5 c 128,-1,174
 383 581 383 581 408 581 c 0,175,176
 426 581 426 581 438 590 c 128,-1,177
 450 599 450 599 457.5 613.5 c 128,-1,178
 465 628 465 628 468.5 646 c 128,-1,179
 472 664 472 664 473 682 c 1,164,165
402 422 m 0,180,181
 402 405 402 405 410 390 c 128,-1,182
 418 375 418 375 432 364 c 1,183,184
 456 406 456 406 499 468 c 1,185,186
 481 473 481 473 463 473 c 0,187,188
 440 473 440 473 421 462 c 128,-1,189
 402 451 402 451 402 422 c 0,180,181
447 353 m 1,190,191
 504 316 504 316 566 292.5 c 128,-1,192
 628 269 628 269 704 259 c 1,193,194
 693 290 693 290 677 316 c 128,-1,195
 661 342 661 342 643 363 c 0,196,197
 620 390 620 390 602 407 c 128,-1,198
 584 424 584 424 569 435 c 128,-1,199
 554 446 554 446 541 451.5 c 128,-1,200
 528 457 528 457 516 462 c 1,201,202
 499 435 499 435 482 408.5 c 128,-1,203
 465 382 465 382 447 353 c 1,190,191
945 833 m 0,204,205
 938 836 938 836 931.5 838.5 c 128,-1,206
 925 841 925 841 918 843 c 1,207,208
 858 826 858 826 804.5 790.5 c 128,-1,209
 751 755 751 755 702.5 706 c 128,-1,210
 654 657 654 657 610.5 598.5 c 128,-1,211
 567 540 567 540 526 478 c 1,212,213
 549 468 549 468 573 452 c 0,214,215
 585 444 585 444 606 426.5 c 128,-1,216
 627 409 627 409 649.5 384 c 128,-1,217
 672 359 672 359 692.5 326.5 c 128,-1,218
 713 294 713 294 724 257 c 1,219,220
 736 256 736 256 748 255.5 c 128,-1,221
 760 255 760 255 772 255 c 0,222,223
 820 255 820 255 869.5 265.5 c 128,-1,224
 919 276 919 276 968 302 c 0,225,226
 1023 332 1023 332 1058 364 c 128,-1,227
 1093 396 1093 396 1112.5 429.5 c 128,-1,228
 1132 463 1132 463 1139 496.5 c 128,-1,229
 1146 530 1146 530 1146 562 c 0,230,231
 1146 597 1146 597 1137.5 634.5 c 128,-1,232
 1129 672 1129 672 1106.5 708 c 128,-1,233
 1084 744 1084 744 1045 776 c 128,-1,234
 1006 808 1006 808 945 833 c 0,204,205
EndSplineSet
EndChar

StartChar: S
Encoding: 83 83 54
Width: 942
VWidth: 1700
GlyphClass: 2
Flags: W
LayerCount: 2
Fore
SplineSet
-17 -6 m 1,0,1
 -46 -23 -46 -23 -83.5 -31.5 c 128,-1,2
 -121 -40 -121 -40 -155 -40 c 0,3,4
 -162 -40 -162 -40 -174.5 -39.5 c 128,-1,5
 -187 -39 -187 -39 -199 -37.5 c 128,-1,6
 -211 -36 -211 -36 -220 -33 c 128,-1,7
 -229 -30 -229 -30 -229 -24 c 0,8,9
 -229 -21 -229 -21 -226.5 -18 c 128,-1,10
 -224 -15 -224 -15 -220 -15 c 0,11,12
 -203 -15 -203 -15 -186.5 -18.5 c 128,-1,13
 -170 -22 -170 -22 -155 -22 c 0,14,15
 -119 -22 -119 -22 -88 -14 c 128,-1,16
 -57 -6 -57 -6 -31 7 c 1,17,18
 -67 45 -67 45 -84 89.5 c 128,-1,19
 -101 134 -101 134 -101 180 c 0,20,21
 -101 217 -101 217 -90.5 255 c 128,-1,22
 -80 293 -80 293 -60 324.5 c 128,-1,23
 -40 356 -40 356 -10.5 376 c 128,-1,24
 19 396 19 396 57 396 c 1,25,26
 111 393 111 393 139 359.5 c 128,-1,27
 167 326 167 326 167 277 c 1,28,29
 165 196 165 196 123 124.5 c 128,-1,30
 81 53 81 53 -1 4 c 1,31,32
 47 -32 47 -32 102.5 -53.5 c 128,-1,33
 158 -75 158 -75 226 -75 c 0,34,35
 271 -75 271 -75 310.5 -68 c 128,-1,36
 350 -61 350 -61 383 -50 c 128,-1,37
 416 -39 416 -39 443 -24.5 c 128,-1,38
 470 -10 470 -10 489 4 c 0,39,40
 543 44 543 44 577 92 c 128,-1,41
 611 140 611 140 630 192.5 c 128,-1,42
 649 245 649 245 656.5 302.5 c 128,-1,43
 664 360 664 360 667 419.5 c 128,-1,44
 670 479 670 479 671.5 540 c 128,-1,45
 673 601 673 601 680 661 c 1,46,47
 635 661 635 661 595.5 672.5 c 128,-1,48
 556 684 556 684 524 708 c 0,49,50
 520 711 520 711 520 716 c 0,51,52
 520 720 520 720 523 722 c 128,-1,53
 526 724 526 724 529 724 c 0,54,55
 533 724 533 724 535 722 c 0,56,57
 564 700 564 700 601.5 689.5 c 128,-1,58
 639 679 639 679 682 679 c 1,59,60
 688 731 688 731 705 792 c 128,-1,61
 722 853 722 853 752.5 906 c 128,-1,62
 783 959 783 959 828.5 994.5 c 128,-1,63
 874 1030 874 1030 937 1030 c 5,64,65
 984 1028 984 1028 1014.5 1002.5 c 128,-1,66
 1045 977 1045 977 1045 924 c 0,67,68
 1045 886 1045 886 1027.5 851 c 128,-1,69
 1010 816 1010 816 983 786.5 c 128,-1,70
 956 757 956 757 924 734.5 c 128,-1,71
 892 712 892 712 863 699 c 0,72,73
 825 682 825 682 782.5 672.5 c 128,-1,74
 740 663 740 663 698 661 c 1,75,76
 691 601 691 601 689.5 540 c 128,-1,77
 688 479 688 479 685.5 418.5 c 128,-1,78
 683 358 683 358 675 299 c 128,-1,79
 667 240 667 240 647 185.5 c 128,-1,80
 627 131 627 131 592 81 c 128,-1,81
 557 31 557 31 500 -12 c 0,82,83
 459 -42 459 -42 389 -67.5 c 128,-1,84
 319 -93 319 -93 226 -93 c 0,85,86
 162 -93 162 -93 103 -73.5 c 128,-1,87
 44 -54 44 -54 -2 -19 c 1,88,-1
 -17 -6 l 1,0,1
-52 305 m 1,89,90
 -82 243 -82 243 -82 179 c 0,91,92
 -82 134 -82 134 -66 92.5 c 128,-1,93
 -50 51 -50 51 -15 16 c 1,94,95
 21 38 21 38 50.5 67 c 128,-1,96
 80 96 80 96 102 129.5 c 128,-1,97
 124 163 124 163 136 201 c 128,-1,98
 148 239 148 239 148 278 c 0,99,100
 148 320 148 320 123.5 349 c 128,-1,101
 99 378 99 378 57 378 c 1,102,103
 17 374 17 374 -9 354.5 c 128,-1,104
 -35 335 -35 335 -52 305 c 1,89,90
738 836 m 0,105,106
 723 798 723 798 714 759 c 128,-1,107
 705 720 705 720 700 679 c 1,108,109
 752 681 752 681 809.5 699.5 c 128,-1,110
 867 718 867 718 915 750.5 c 128,-1,111
 963 783 963 783 994 827.5 c 128,-1,112
 1025 872 1025 872 1025 926 c 0,113,114
 1025 950 1025 950 1017 966.5 c 128,-1,115
 1009 983 1009 983 996.5 993 c 128,-1,116
 984 1003 984 1003 968 1007.5 c 128,-1,117
 952 1012 952 1012 937 1012 c 0,118,119
 898 1010 898 1010 867 994.5 c 128,-1,120
 836 979 836 979 811.5 954 c 128,-1,121
 787 929 787 929 769 898.5 c 128,-1,122
 751 868 751 868 738 836 c 0,105,106
EndSplineSet
EndChar

StartChar: T
Encoding: 84 84 55
Width: 805
VWidth: 1700
GlyphClass: 2
Flags: W
LayerCount: 2
Fore
SplineSet
-77 -62 m 0,0,1
 -104 -32 -104 -32 -104 15 c 0,2,3
 -104 20 -104 20 -103.5 28.5 c 128,-1,4
 -103 37 -103 37 -101.5 45 c 128,-1,5
 -100 53 -100 53 -97.5 59 c 128,-1,6
 -95 65 -95 65 -90 65 c 0,7,8
 -81 65 -81 65 -81 56 c 0,9,10
 -81 45 -81 45 -83.5 34.5 c 128,-1,11
 -86 24 -86 24 -86 15 c 0,12,13
 -86 -14 -86 -14 -75.5 -32.5 c 128,-1,14
 -65 -51 -65 -51 -49 -61.5 c 128,-1,15
 -33 -72 -33 -72 -13 -76.5 c 128,-1,16
 7 -81 7 -81 26 -81 c 0,17,18
 56 -80 56 -80 82.5 -70.5 c 128,-1,19
 109 -61 109 -61 132 -46 c 128,-1,20
 155 -31 155 -31 176 -12 c 128,-1,21
 197 7 197 7 216 27 c 0,22,23
 250 63 250 63 289.5 114.5 c 128,-1,24
 329 166 329 166 374 226.5 c 128,-1,25
 419 287 419 287 468 353.5 c 128,-1,26
 517 420 517 420 569.5 486 c 128,-1,27
 622 552 622 552 677.5 613.5 c 128,-1,28
 733 675 733 675 790 726 c 1,29,30
 741 739 741 739 685 756.5 c 128,-1,31
 629 774 629 774 564 798 c 0,32,33
 525 812 525 812 489.5 818 c 128,-1,34
 454 824 454 824 422 824 c 0,35,36
 365 824 365 824 320.5 809.5 c 128,-1,37
 276 795 276 795 244.5 777 c 128,-1,38
 213 759 213 759 196 743.5 c 128,-1,39
 179 728 179 728 176 727 c 1,40,41
 173 724 173 724 169 724 c 0,42,43
 161 724 161 724 161 732 c 0,44,45
 161 737 161 737 163 739 c 0,46,47
 192 767 192 767 231 790 c 0,48,49
 264 810 264 810 312 826 c 128,-1,50
 360 842 360 842 422 842 c 0,51,52
 456 842 456 842 492.5 836 c 128,-1,53
 529 830 529 830 570 815 c 0,54,55
 639 790 639 790 697.5 772 c 128,-1,56
 756 754 756 754 807 741 c 1,57,58
 885 805 885 805 970 847 c 128,-1,59
 1055 889 1055 889 1151 889 c 0,60,61
 1174 889 1174 889 1199.5 886 c 128,-1,62
 1225 883 1225 883 1246.5 874 c 128,-1,63
 1268 865 1268 865 1282 848.5 c 128,-1,64
 1296 832 1296 832 1296 804 c 0,65,66
 1296 766 1296 766 1273 742 c 128,-1,67
 1250 718 1250 718 1216.5 705 c 128,-1,68
 1183 692 1183 692 1145 687.5 c 128,-1,69
 1107 683 1107 683 1078 683 c 0,70,71
 1038 683 1038 683 973 690 c 128,-1,72
 908 697 908 697 811 721 c 1,73,74
 735 652 735 652 662 565.5 c 128,-1,75
 589 479 589 479 521.5 390.5 c 128,-1,76
 454 302 454 302 393.5 218.5 c 128,-1,77
 333 135 333 135 282 74 c 0,78,79
 257 44 257 44 229 13 c 128,-1,80
 201 -18 201 -18 169 -43 c 128,-1,81
 137 -68 137 -68 101.5 -83.5 c 128,-1,82
 66 -99 66 -99 26 -99 c 0,83,84
 0 -99 0 -99 -29.5 -91 c 128,-1,85
 -59 -83 -59 -83 -77 -62 c 0,0,1
1078 701 m 0,86,87
 1144 701 1144 701 1183 712 c 128,-1,88
 1222 723 1222 723 1243 739 c 128,-1,89
 1264 755 1264 755 1270.5 772.5 c 128,-1,90
 1277 790 1277 790 1277 803 c 0,91,92
 1277 827 1277 827 1264 840.5 c 128,-1,93
 1251 854 1251 854 1231.5 860.5 c 128,-1,94
 1212 867 1212 867 1190 869 c 128,-1,95
 1168 871 1168 871 1151 871 c 0,96,97
 1056 869 1056 869 976.5 830 c 128,-1,98
 897 791 897 791 828 735 c 1,99,100
 919 713 919 713 980 707 c 128,-1,101
 1041 701 1041 701 1078 701 c 0,86,87
EndSplineSet
EndChar

StartChar: U
Encoding: 85 85 56
Width: 902
VWidth: 1700
GlyphClass: 2
Flags: W
LayerCount: 2
Fore
SplineSet
1221 815 m 2,0,1
 1221 808 1221 808 1215 807 c 0,2,3
 1204 805 1204 805 1162.5 788 c 128,-1,4
 1121 771 1121 771 1061.5 733.5 c 128,-1,5
 1002 696 1002 696 931 633.5 c 128,-1,6
 860 571 860 571 790 478 c 0,7,8
 775 458 775 458 748.5 417 c 128,-1,9
 722 376 722 376 693 322.5 c 128,-1,10
 664 269 664 269 635 209 c 128,-1,11
 606 149 606 149 587 91 c 0,12,13
 579 66 579 66 568 25.5 c 128,-1,14
 557 -15 557 -15 557 -54 c 0,15,16
 557 -74 557 -74 561.5 -92.5 c 128,-1,17
 566 -111 566 -111 576.5 -125 c 128,-1,18
 587 -139 587 -139 604.5 -147.5 c 128,-1,19
 622 -156 622 -156 647 -156 c 0,20,21
 679 -156 679 -156 706 -137 c 128,-1,22
 733 -118 733 -118 752.5 -88.5 c 128,-1,23
 772 -59 772 -59 783 -22.5 c 128,-1,24
 794 14 794 14 794 49 c 0,25,26
 794 57 794 57 802 59 c 1,27,28
 810 59 810 59 812 51 c 1,29,30
 812 16 812 16 800.5 -23.5 c 128,-1,31
 789 -63 789 -63 768 -96 c 128,-1,32
 747 -129 747 -129 716.5 -151 c 128,-1,33
 686 -173 686 -173 648 -173 c 0,34,35
 618 -173 618 -173 597 -163.5 c 128,-1,36
 576 -154 576 -154 563 -138 c 128,-1,37
 550 -122 550 -122 544.5 -100.5 c 128,-1,38
 539 -79 539 -79 539 -55 c 0,39,40
 539 -20 539 -20 547 15.5 c 128,-1,41
 555 51 555 51 563 78 c 1,42,43
 536 41 536 41 504.5 9.5 c 128,-1,44
 473 -22 473 -22 435.5 -45 c 128,-1,45
 398 -68 398 -68 353 -81 c 128,-1,46
 308 -94 308 -94 252 -94 c 0,47,48
 217 -94 217 -94 179 -82.5 c 128,-1,49
 141 -71 141 -71 109.5 -45.5 c 128,-1,50
 78 -20 78 -20 57.5 20.5 c 128,-1,51
 37 61 37 61 37 118 c 0,52,53
 37 160 37 160 50 209.5 c 128,-1,54
 63 259 63 259 93 319 c 0,55,56
 132 397 132 397 180.5 464.5 c 128,-1,57
 229 532 229 532 280.5 589 c 128,-1,58
 332 646 332 646 383.5 693 c 128,-1,59
 435 740 435 740 480 778 c 1,60,61
 429 784 429 784 386 796.5 c 128,-1,62
 343 809 343 809 305.5 823.5 c 128,-1,63
 268 838 268 838 233 853 c 128,-1,64
 198 868 198 868 162.5 880 c 128,-1,65
 127 892 127 892 88.5 900 c 128,-1,66
 50 908 50 908 5 908 c 0,67,68
 -17 908 -17 908 -44 904.5 c 128,-1,69
 -71 901 -71 901 -95 890 c 128,-1,70
 -119 879 -119 879 -135 858.5 c 128,-1,71
 -151 838 -151 838 -151 804 c 0,72,73
 -151 782 -151 782 -141.5 766 c 128,-1,74
 -132 750 -132 750 -116 739 c 128,-1,75
 -100 728 -100 728 -80 721.5 c 128,-1,76
 -60 715 -60 715 -40 714 c 0,77,78
 -31 713 -31 713 -31 704 c 0,79,80
 -31 696 -31 696 -40 696 c 2,81,-1
 -41 696 l 1,82,83
 -43 695 -43 695 -63 698.5 c 128,-1,84
 -83 702 -83 702 -107 714 c 128,-1,85
 -131 726 -131 726 -150.5 747.5 c 128,-1,86
 -170 769 -170 769 -170 805 c 0,87,88
 -170 840 -170 840 -154 863 c 128,-1,89
 -138 886 -138 886 -113 900 c 128,-1,90
 -88 914 -88 914 -56.5 920 c 128,-1,91
 -25 926 -25 926 5 926 c 0,92,93
 53 926 53 926 94 918 c 128,-1,94
 135 910 135 910 172 897 c 128,-1,95
 209 884 209 884 244.5 868.5 c 128,-1,96
 280 853 280 853 319 838 c 128,-1,97
 358 823 358 823 401.5 811 c 128,-1,98
 445 799 445 799 499 794 c 1,99,100
 517 809 517 809 536.5 827 c 128,-1,101
 556 845 556 845 577.5 860 c 128,-1,102
 599 875 599 875 622 885.5 c 128,-1,103
 645 896 645 896 671 896 c 256,104,105
 697 896 697 896 714.5 884 c 128,-1,106
 732 872 732 872 732 843 c 0,107,108
 732 816 732 816 713.5 801.5 c 128,-1,109
 695 787 695 787 669 780.5 c 128,-1,110
 643 774 643 774 615.5 773 c 128,-1,111
 588 772 588 772 570 772 c 0,112,113
 538 772 538 772 505 775 c 1,114,115
 472 748 472 748 434 714.5 c 128,-1,116
 396 681 396 681 356 642 c 0,117,118
 324 611 324 611 289.5 571.5 c 128,-1,119
 255 532 255 532 221.5 487.5 c 128,-1,120
 188 443 188 443 158 395.5 c 128,-1,121
 128 348 128 348 105 300 c 128,-1,122
 82 252 82 252 68.5 205.5 c 128,-1,123
 55 159 55 159 55 118 c 0,124,125
 55 69 55 69 71.5 32.5 c 128,-1,126
 88 -4 88 -4 116 -28 c 128,-1,127
 144 -52 144 -52 179 -64 c 128,-1,128
 214 -76 214 -76 252 -76 c 0,129,130
 314 -76 314 -76 367 -56.5 c 128,-1,131
 420 -37 420 -37 463.5 -3.5 c 128,-1,132
 507 30 507 30 541.5 76.5 c 128,-1,133
 576 123 576 123 601 177 c 1,134,135
 658 313 658 313 725 414 c 128,-1,136
 792 515 792 515 859.5 586.5 c 128,-1,137
 927 658 927 658 989.5 704.5 c 128,-1,138
 1052 751 1052 751 1101 777.5 c 128,-1,139
 1150 804 1150 804 1179.5 814 c 128,-1,140
 1209 824 1209 824 1210 824 c 256,141,142
 1211 824 1211 824 1211.5 824.5 c 128,-1,143
 1212 825 1212 825 1213 825 c 0,144,145
 1219 825 1219 825 1221 818 c 1,146,-1
 1221 815 l 2,0,1
664 878 m 1,147,148
 644 877 644 877 626 868 c 128,-1,149
 608 859 608 859 590.5 846.5 c 128,-1,150
 573 834 573 834 557 819.5 c 128,-1,151
 541 805 541 805 525 792 c 1,152,153
 547 789 547 789 572 789 c 0,154,155
 585 789 585 789 608.5 789.5 c 128,-1,156
 632 790 632 790 655.5 795 c 128,-1,157
 679 800 679 800 696.5 811 c 128,-1,158
 714 822 714 822 714 843 c 0,159,160
 714 878 714 878 671 878 c 2,161,-1
 664 878 l 1,147,148
EndSplineSet
EndChar

StartChar: V
Encoding: 86 86 57
Width: 1149
VWidth: 1700
GlyphClass: 2
Flags: W
LayerCount: 2
Fore
SplineSet
-87 -144 m 0,0,1
 -117 -144 -117 -144 -141 -130.5 c 128,-1,2
 -165 -117 -165 -117 -167 -87 c 1,3,4
 -167 -65 -167 -65 -153 -48.5 c 128,-1,5
 -139 -32 -139 -32 -118 -22 c 128,-1,6
 -97 -12 -97 -12 -72 -7 c 128,-1,7
 -47 -2 -47 -2 -26 -2 c 0,8,9
 -6 -2 -6 -2 16 -4 c 128,-1,10
 38 -6 38 -6 62 -10 c 1,11,12
 76 29 76 29 100.5 82.5 c 128,-1,13
 125 136 125 136 156 195.5 c 128,-1,14
 187 255 187 255 223.5 316 c 128,-1,15
 260 377 260 377 299 430 c 0,16,17
 350 500 350 500 391 550.5 c 128,-1,18
 432 601 432 601 466.5 638.5 c 128,-1,19
 501 676 501 676 530 703 c 128,-1,20
 559 730 559 730 587 753 c 1,21,22
 510 763 510 763 452.5 784.5 c 128,-1,23
 395 806 395 806 342.5 828 c 128,-1,24
 290 850 290 850 236.5 866.5 c 128,-1,25
 183 883 183 883 114 883 c 0,26,27
 85 883 85 883 57 878 c 128,-1,28
 29 873 29 873 7 861 c 128,-1,29
 -15 849 -15 849 -28 829.5 c 128,-1,30
 -41 810 -41 810 -41 782 c 0,31,32
 -41 755 -41 755 -27 737.5 c 128,-1,33
 -13 720 -13 720 5.5 709 c 128,-1,34
 24 698 24 698 42 693.5 c 128,-1,35
 60 689 60 689 69 689 c 1,36,37
 78 687 78 687 78 679 c 256,38,39
 78 671 78 671 68 671 c 1,40,41
 68 670 68 670 58.5 671 c 128,-1,42
 49 672 49 672 35 676 c 128,-1,43
 21 680 21 680 4.5 687 c 128,-1,44
 -12 694 -12 694 -26.5 706.5 c 128,-1,45
 -41 719 -41 719 -50.5 737.5 c 128,-1,46
 -60 756 -60 756 -60 781 c 0,47,48
 -60 815 -60 815 -44.5 838.5 c 128,-1,49
 -29 862 -29 862 -4.5 875.5 c 128,-1,50
 20 889 20 889 51 895 c 128,-1,51
 82 901 82 901 114 901 c 0,52,53
 161 901 161 901 201 892.5 c 128,-1,54
 241 884 241 884 278 871.5 c 128,-1,55
 315 859 315 859 351.5 843 c 128,-1,56
 388 827 388 827 427 812.5 c 128,-1,57
 466 798 466 798 510 786 c 128,-1,58
 554 774 554 774 607 769 c 1,59,60
 631 789 631 789 655 807.5 c 128,-1,61
 679 826 679 826 701.5 840 c 128,-1,62
 724 854 724 854 744 862.5 c 128,-1,63
 764 871 764 871 780 871 c 0,64,65
 810 871 810 871 825 857.5 c 128,-1,66
 840 844 840 844 840 820 c 0,67,68
 840 789 840 789 818.5 774 c 128,-1,69
 797 759 797 759 768.5 753 c 128,-1,70
 740 747 740 747 712.5 747.5 c 128,-1,71
 685 748 685 748 673 748 c 0,72,73
 642 748 642 748 612 751 c 1,74,75
 583 727 583 727 553.5 700 c 128,-1,76
 524 673 524 673 489 635.5 c 128,-1,77
 454 598 454 598 411 546 c 128,-1,78
 368 494 368 494 314 419 c 0,79,80
 276 367 276 367 240.5 307.5 c 128,-1,81
 205 248 205 248 174 189.5 c 128,-1,82
 143 131 143 131 118.5 78.5 c 128,-1,83
 94 26 94 26 80 -13 c 1,84,85
 119 -21 119 -21 161.5 -27.5 c 128,-1,86
 204 -34 204 -34 245.5 -38.5 c 128,-1,87
 287 -43 287 -43 324.5 -45.5 c 128,-1,88
 362 -48 362 -48 392 -48 c 0,89,90
 421 -48 421 -48 464 -43 c 128,-1,91
 507 -38 507 -38 559.5 -22.5 c 128,-1,92
 612 -7 612 -7 670 22 c 128,-1,93
 728 51 728 51 786.5 100 c 128,-1,94
 845 149 845 149 901.5 220.5 c 128,-1,95
 958 292 958 292 1007 392 c 128,-1,96
 1056 492 1056 492 1094 624 c 128,-1,97
 1132 756 1132 756 1154 925 c 1,98,99
 1154 933 1154 933 1164 933 c 1,100,101
 1172 931 1172 931 1172 923 c 1,102,103
 1150 753 1150 753 1111.5 620 c 128,-1,104
 1073 487 1073 487 1023.5 385.5 c 128,-1,105
 974 284 974 284 916.5 211 c 128,-1,106
 859 138 859 138 799 88 c 128,-1,107
 739 38 739 38 679.5 7.5 c 128,-1,108
 620 -23 620 -23 566.5 -39 c 128,-1,109
 513 -55 513 -55 468 -60.5 c 128,-1,110
 423 -66 423 -66 392 -66 c 0,111,112
 300 -64 300 -64 224 -54.5 c 128,-1,113
 148 -45 148 -45 72 -30 c 1,114,115
 63 -50 63 -50 51.5 -69.5 c 128,-1,116
 40 -89 40 -89 22 -105 c 128,-1,117
 4 -121 4 -121 -22 -132 c 128,-1,118
 -48 -143 -48 -143 -87 -144 c 0,0,1
-129 -50 m 0,119,120
 -140 -59 -140 -59 -144.5 -69 c 128,-1,121
 -149 -79 -149 -79 -149 -87 c 0,122,123
 -147 -109 -147 -109 -127 -118 c 128,-1,124
 -107 -127 -107 -127 -87 -127 c 1,125,126
 -36 -124 -36 -124 -4 -99.5 c 128,-1,127
 28 -75 28 -75 54 -27 c 1,128,129
 32 -24 32 -24 12 -22 c 128,-1,130
 -8 -20 -8 -20 -26 -20 c 0,131,132
 -33 -20 -33 -20 -45 -21 c 128,-1,133
 -57 -22 -57 -22 -71 -25 c 128,-1,134
 -85 -28 -85 -28 -100.5 -34 c 128,-1,135
 -116 -40 -116 -40 -129 -50 c 0,119,120
673 766 m 0,136,137
 706 766 706 766 728.5 768 c 128,-1,138
 751 770 751 770 765.5 772.5 c 128,-1,139
 780 775 780 775 787.5 778 c 128,-1,140
 795 781 795 781 799 783 c 0,141,142
 808 788 808 788 815 797 c 128,-1,143
 822 806 822 806 822 820 c 0,144,145
 822 838 822 838 810.5 845.5 c 128,-1,146
 799 853 799 853 781 853 c 0,147,148
 765 853 765 853 743 845 c 128,-1,149
 721 837 721 837 693 814 c 0,150,151
 677 801 677 801 662.5 789.5 c 128,-1,152
 648 778 648 778 633 767 c 1,153,154
 643 766 643 766 653 766 c 128,-1,155
 663 766 663 766 673 766 c 0,136,137
EndSplineSet
EndChar

StartChar: W
Encoding: 87 87 58
Width: 1560
VWidth: 1700
GlyphClass: 2
Flags: W
LayerCount: 2
Fore
SplineSet
593 -134 m 0,0,1
 593 -111 593 -111 606.5 -97.5 c 128,-1,2
 620 -84 620 -84 639 -77.5 c 128,-1,3
 658 -71 658 -71 679 -69 c 128,-1,4
 700 -67 700 -67 714 -67 c 0,5,6
 733 -67 733 -67 751.5 -68.5 c 128,-1,7
 770 -70 770 -70 785 -72 c 1,8,9
 802 -48 802 -48 821 -16 c 128,-1,10
 840 16 840 16 857 58.5 c 128,-1,11
 874 101 874 101 889 155.5 c 128,-1,12
 904 210 904 210 914 280 c 1,13,14
 868 208 868 208 816.5 156.5 c 128,-1,15
 765 105 765 105 712 70 c 128,-1,16
 659 35 659 35 607 14 c 128,-1,17
 555 -7 555 -7 509 -18 c 128,-1,18
 463 -29 463 -29 426 -32.5 c 128,-1,19
 389 -36 389 -36 366 -36 c 0,20,21
 327 -35 327 -35 296.5 -33.5 c 128,-1,22
 266 -32 266 -32 241.5 -30 c 128,-1,23
 217 -28 217 -28 196.5 -26.5 c 128,-1,24
 176 -25 176 -25 158 -23 c 1,25,26
 135 -80 135 -80 90.5 -114.5 c 128,-1,27
 46 -149 46 -149 -8 -149 c 0,28,29
 -40 -149 -40 -149 -63 -133 c 128,-1,30
 -86 -117 -86 -117 -86 -91 c 0,31,32
 -86 -64 -86 -64 -69.5 -47 c 128,-1,33
 -53 -30 -53 -30 -28 -19.5 c 128,-1,34
 -3 -9 -3 -9 25 -5 c 128,-1,35
 53 -1 53 -1 77 -1 c 0,36,37
 113 -1 113 -1 146 -4 c 1,38,39
 161 36 161 36 185.5 88.5 c 128,-1,40
 210 141 210 141 240.5 199 c 128,-1,41
 271 257 271 257 306.5 315.5 c 128,-1,42
 342 374 342 374 380 426 c 0,43,44
 431 496 431 496 472 547.5 c 128,-1,45
 513 599 513 599 547.5 636.5 c 128,-1,46
 582 674 582 674 611 701 c 128,-1,47
 640 728 640 728 668 750 c 1,48,49
 590 760 590 760 531.5 781.5 c 128,-1,50
 473 803 473 803 420.5 825 c 128,-1,51
 368 847 368 847 315 863.5 c 128,-1,52
 262 880 262 880 195 880 c 0,53,54
 170 880 170 880 142.5 875.5 c 128,-1,55
 115 871 115 871 92.5 859.5 c 128,-1,56
 70 848 70 848 55 828 c 128,-1,57
 40 808 40 808 40 776 c 0,58,59
 40 751 40 751 51.5 733.5 c 128,-1,60
 63 716 63 716 80 705.5 c 128,-1,61
 97 695 97 695 116 690.5 c 128,-1,62
 135 686 135 686 150 686 c 0,63,64
 158 686 158 686 158 678 c 0,65,66
 158 668 158 668 149 668 c 0,67,68
 147 668 147 668 127 670.5 c 128,-1,69
 107 673 107 673 83.5 684 c 128,-1,70
 60 695 60 695 40.5 716.5 c 128,-1,71
 21 738 21 738 21 776 c 0,72,73
 21 813 21 813 38 837 c 128,-1,74
 55 861 55 861 81 874.5 c 128,-1,75
 107 888 107 888 137.5 893 c 128,-1,76
 168 898 168 898 195 898 c 0,77,78
 266 898 266 898 322.5 880.5 c 128,-1,79
 379 863 379 863 434 840 c 128,-1,80
 489 817 489 817 549 795.5 c 128,-1,81
 609 774 609 774 687 766 c 1,82,83
 707 782 707 782 727.5 800 c 128,-1,84
 748 818 748 818 770 833.5 c 128,-1,85
 792 849 792 849 815 859 c 128,-1,86
 838 869 838 869 864 869 c 0,87,88
 887 869 887 869 904 855.5 c 128,-1,89
 921 842 921 842 921 816 c 0,90,91
 921 788 921 788 902 773.5 c 128,-1,92
 883 759 883 759 856 752.5 c 128,-1,93
 829 746 829 746 800.5 745.5 c 128,-1,94
 772 745 772 745 754 745 c 0,95,96
 721 745 721 745 693 748 c 1,97,98
 664 724 664 724 634 697 c 128,-1,99
 604 670 604 670 568.5 632.5 c 128,-1,100
 533 595 533 595 490.5 543 c 128,-1,101
 448 491 448 491 394 416 c 0,102,103
 358 366 358 366 323 308.5 c 128,-1,104
 288 251 288 251 257.5 194.5 c 128,-1,105
 227 138 227 138 203 86 c 128,-1,106
 179 34 179 34 164 -5 c 1,107,108
 220 -10 220 -10 257.5 -12.5 c 128,-1,109
 295 -15 295 -15 317.5 -16.5 c 128,-1,110
 340 -18 340 -18 351 -18 c 128,-1,111
 362 -18 362 -18 366 -18 c 0,112,113
 390 -18 390 -18 428 -14.5 c 128,-1,114
 466 -11 466 -11 512.5 1 c 128,-1,115
 559 13 559 13 612 35.5 c 128,-1,116
 665 58 665 58 718.5 96 c 128,-1,117
 772 134 772 134 823.5 190 c 128,-1,118
 875 246 875 246 920 324 c 1,119,120
 920 330 920 330 921 333 c 0,121,122
 932 428 932 428 940 514 c 128,-1,123
 948 600 948 600 960 665.5 c 128,-1,124
 972 731 972 731 992 769.5 c 128,-1,125
 1012 808 1012 808 1046 808 c 0,126,127
 1059 808 1059 808 1066 796 c 128,-1,128
 1073 784 1073 784 1073 764 c 0,129,130
 1073 754 1073 754 1072 747.5 c 128,-1,131
 1071 741 1071 741 1071 739 c 0,132,133
 1051 605 1051 605 1016.5 502 c 128,-1,134
 982 399 982 399 937 319 c 1,135,136
 928 238 928 238 913.5 177 c 128,-1,137
 899 116 899 116 881 69.5 c 128,-1,138
 863 23 863 23 843.5 -11.5 c 128,-1,139
 824 -46 824 -46 805 -74 c 1,140,141
 814 -75 814 -75 824.5 -75.5 c 128,-1,142
 835 -76 835 -76 847 -76 c 0,143,144
 887 -76 887 -76 940.5 -68.5 c 128,-1,145
 994 -61 994 -61 1054 -35.5 c 128,-1,146
 1114 -10 1114 -10 1178.5 38.5 c 128,-1,147
 1243 87 1243 87 1306 170 c 0,148,149
 1345 222 1345 222 1380 286.5 c 128,-1,150
 1415 351 1415 351 1441 430.5 c 128,-1,151
 1467 510 1467 510 1483.5 604 c 128,-1,152
 1500 698 1500 698 1503 808 c 0,153,154
 1503 817 1503 817 1512 817 c 256,155,156
 1521 817 1521 817 1521 807 c 0,157,158
 1517 659 1517 659 1489.5 539 c 128,-1,159
 1462 419 1462 419 1419 324.5 c 128,-1,160
 1376 230 1376 230 1321 160 c 128,-1,161
 1266 90 1266 90 1208 41 c 128,-1,162
 1150 -8 1150 -8 1093 -37 c 128,-1,163
 1036 -66 1036 -66 989 -78 c 0,164,165
 950 -88 950 -88 913 -91 c 128,-1,166
 876 -94 876 -94 847 -94 c 0,167,168
 813 -94 813 -94 794 -91 c 1,169,170
 765 -131 765 -131 729.5 -158 c 128,-1,171
 694 -185 694 -185 649 -185 c 0,172,173
 626 -185 626 -185 610 -174 c 128,-1,174
 594 -163 594 -163 593 -134 c 0,0,1
702 -154 m 0,175,176
 724 -143 724 -143 743 -124 c 128,-1,177
 762 -105 762 -105 774 -88 c 1,178,179
 751 -85 751 -85 719 -85 c 0,180,181
 710 -85 710 -85 692 -85.5 c 128,-1,182
 674 -86 674 -86 656 -90.5 c 128,-1,183
 638 -95 638 -95 624.5 -105 c 128,-1,184
 611 -115 611 -115 611 -134 c 0,185,186
 611 -154 611 -154 623 -161 c 128,-1,187
 635 -168 635 -168 649 -168 c 256,188,189
 663 -168 663 -168 677.5 -163.5 c 128,-1,190
 692 -159 692 -159 702 -154 c 0,175,176
-48 -53 m 0,191,192
 -56 -61 -56 -61 -61.5 -71 c 128,-1,193
 -67 -81 -67 -81 -67 -92 c 0,194,195
 -67 -113 -67 -113 -48 -122 c 128,-1,196
 -29 -131 -29 -131 -9 -131 c 0,197,198
 44 -131 44 -131 81.5 -99.5 c 128,-1,199
 119 -68 119 -68 139 -22 c 1,200,201
 124 -20 124 -20 108 -19 c 128,-1,202
 92 -18 92 -18 75 -18 c 0,203,204
 40 -18 40 -18 7.5 -25.5 c 128,-1,205
 -25 -33 -25 -33 -48 -53 c 0,191,192
1025 782 m 0,206,207
 1006 761 1006 761 994 723.5 c 128,-1,208
 982 686 982 686 973.5 634 c 128,-1,209
 965 582 965 582 958.5 515.5 c 128,-1,210
 952 449 952 449 943 368 c 1,211,212
 980 443 980 443 1008.5 537.5 c 128,-1,213
 1037 632 1037 632 1054 749 c 0,214,215
 1054 752 1054 752 1054.5 757.5 c 128,-1,216
 1055 763 1055 763 1055 769 c 0,217,218
 1055 778 1055 778 1053 785 c 128,-1,219
 1051 792 1051 792 1043 792 c 0,220,221
 1038 792 1038 792 1033 789 c 128,-1,222
 1028 786 1028 786 1025 782 c 0,206,207
754 762 m 0,223,224
 779 762 779 762 805 763.5 c 128,-1,225
 831 765 831 765 853 770 c 128,-1,226
 875 775 875 775 889 786 c 128,-1,227
 903 797 903 797 903 815 c 1,228,229
 901 838 901 838 888.5 844 c 128,-1,230
 876 850 876 850 862 850 c 0,231,232
 840 850 840 850 819.5 841 c 128,-1,233
 799 832 799 832 780.5 818.5 c 128,-1,234
 762 805 762 805 745 790 c 128,-1,235
 728 775 728 775 714 764 c 1,236,237
 724 763 724 763 733.5 762.5 c 128,-1,238
 743 762 743 762 754 762 c 0,223,224
EndSplineSet
EndChar

StartChar: X
Encoding: 88 88 59
Width: 973
VWidth: 1700
GlyphClass: 2
Flags: W
LayerCount: 2
Fore
SplineSet
1180 845 m 0,0,1
 1212 845 1212 845 1241.5 838 c 128,-1,2
 1271 831 1271 831 1293.5 815 c 128,-1,3
 1316 799 1316 799 1329 773.5 c 128,-1,4
 1342 748 1342 748 1342 711 c 0,5,6
 1342 685 1342 685 1339 681.5 c 128,-1,7
 1336 678 1336 678 1331 678 c 0,8,9
 1328 678 1328 678 1325 680 c 128,-1,10
 1322 682 1322 682 1322 686 c 0,11,12
 1322 689 1322 689 1323 693 c 0,13,14
 1323 696 1323 696 1323.5 701 c 128,-1,15
 1324 706 1324 706 1324 711 c 0,16,17
 1324 741 1324 741 1313 763 c 128,-1,18
 1302 785 1302 785 1282.5 799 c 128,-1,19
 1263 813 1263 813 1236.5 820 c 128,-1,20
 1210 827 1210 827 1180 827 c 0,21,22
 1133 827 1133 827 1083 810.5 c 128,-1,23
 1033 794 1033 794 984 766.5 c 128,-1,24
 935 739 935 739 888 702 c 128,-1,25
 841 665 841 665 801 625 c 1,26,27
 765 587 765 587 722.5 537.5 c 128,-1,28
 680 488 680 488 640 427.5 c 128,-1,29
 600 367 600 367 565.5 297.5 c 128,-1,30
 531 228 531 228 512 150 c 0,31,32
 509 137 509 137 507.5 121.5 c 128,-1,33
 506 106 506 106 506 91 c 0,34,35
 506 53 506 53 517.5 20.5 c 128,-1,36
 529 -12 529 -12 550.5 -35.5 c 128,-1,37
 572 -59 572 -59 602.5 -72 c 128,-1,38
 633 -85 633 -85 670 -85 c 0,39,40
 701 -85 701 -85 732.5 -75 c 128,-1,41
 764 -65 764 -65 789 -44.5 c 128,-1,42
 814 -24 814 -24 829.5 6 c 128,-1,43
 845 36 845 36 845 76 c 0,44,45
 845 95 845 95 840.5 113 c 128,-1,46
 836 131 836 131 825 144.5 c 128,-1,47
 814 158 814 158 796.5 166.5 c 128,-1,48
 779 175 779 175 754 175 c 0,49,50
 731 175 731 175 708.5 166 c 128,-1,51
 686 157 686 157 670 137 c 0,52,53
 667 133 667 133 662 133 c 0,54,55
 658 133 658 133 656 136 c 128,-1,56
 654 139 654 139 654 142 c 0,57,58
 654 146 654 146 656 148 c 0,59,60
 673 169 673 169 699 181.5 c 128,-1,61
 725 194 725 194 754 194 c 0,62,63
 782 194 782 194 803 184 c 128,-1,64
 824 174 824 174 837 157.5 c 128,-1,65
 850 141 850 141 856.5 119 c 128,-1,66
 863 97 863 97 863 74 c 0,67,68
 863 33 863 33 847 0 c 128,-1,69
 831 -33 831 -33 804 -56 c 128,-1,70
 777 -79 777 -79 742 -91 c 128,-1,71
 707 -103 707 -103 670 -103 c 0,72,73
 630 -103 630 -103 596.5 -88.5 c 128,-1,74
 563 -74 563 -74 539 -48.5 c 128,-1,75
 515 -23 515 -23 502 13 c 128,-1,76
 489 49 489 49 489 92 c 0,77,78
 489 142 489 142 502.5 184.5 c 128,-1,79
 516 227 516 227 533 269 c 1,80,81
 495 217 495 217 448 163 c 0,82,83
 447 163 447 163 430.5 146 c 128,-1,84
 414 129 414 129 384.5 103 c 128,-1,85
 355 77 355 77 313 47 c 128,-1,86
 271 17 271 17 219.5 -9 c 128,-1,87
 168 -35 168 -35 109 -52 c 128,-1,88
 50 -69 50 -69 -15 -69 c 0,89,90
 -54 -69 -54 -69 -101.5 -61 c 128,-1,91
 -149 -53 -149 -53 -190 -32 c 128,-1,92
 -231 -11 -231 -11 -258.5 25 c 128,-1,93
 -286 61 -286 61 -286 117 c 0,94,95
 -286 177 -286 177 -259.5 220.5 c 128,-1,96
 -233 264 -233 264 -190.5 291.5 c 128,-1,97
 -148 319 -148 319 -95.5 332.5 c 128,-1,98
 -43 346 -43 346 10 346 c 0,99,100
 18 346 18 346 29 346 c 128,-1,101
 40 346 40 346 40 338 c 0,102,103
 40 329 40 329 31 329 c 0,104,105
 -13 329 -13 329 -65 320.5 c 128,-1,106
 -117 312 -117 312 -162 288.5 c 128,-1,107
 -207 265 -207 265 -237 222.5 c 128,-1,108
 -267 180 -267 180 -267 113 c 0,109,110
 -267 66 -267 66 -242 34.5 c 128,-1,111
 -217 3 -217 3 -179.5 -16 c 128,-1,112
 -142 -35 -142 -35 -98 -43 c 128,-1,113
 -54 -51 -54 -51 -15 -51 c 0,114,115
 30 -51 30 -51 72.5 -42 c 128,-1,116
 115 -33 115 -33 154.5 -18 c 128,-1,117
 194 -3 194 -3 229.5 16.5 c 128,-1,118
 265 36 265 36 295 57 c 0,119,120
 333 83 333 83 368.5 111.5 c 128,-1,121
 404 140 404 140 434 175 c 0,122,123
 475 223 475 223 521 286.5 c 128,-1,124
 567 350 567 350 605.5 420 c 128,-1,125
 644 490 644 490 669 562.5 c 128,-1,126
 694 635 694 635 694 702 c 0,127,128
 694 732 694 732 684.5 764.5 c 128,-1,129
 675 797 675 797 649.5 823.5 c 128,-1,130
 624 850 624 850 579.5 867.5 c 128,-1,131
 535 885 535 885 466 885 c 256,132,133
 397 885 397 885 348 863 c 128,-1,134
 299 841 299 841 268 807 c 128,-1,135
 237 773 237 773 222.5 731.5 c 128,-1,136
 208 690 208 690 208 651 c 0,137,138
 208 619 208 619 219.5 592.5 c 128,-1,139
 231 566 231 566 251 547 c 128,-1,140
 271 528 271 528 297.5 517.5 c 128,-1,141
 324 507 324 507 355 507 c 0,142,143
 410 507 410 507 445 538 c 128,-1,144
 480 569 480 569 491 620 c 0,145,146
 493 627 493 627 499 627 c 0,147,148
 508 627 508 627 508 619 c 0,149,150
 508 595 508 595 496.5 572 c 128,-1,151
 485 549 485 549 464.5 530.5 c 128,-1,152
 444 512 444 512 416 501 c 128,-1,153
 388 490 388 490 356 490 c 256,154,155
 324 490 324 490 294.5 500.5 c 128,-1,156
 265 511 265 511 241.5 531.5 c 128,-1,157
 218 552 218 552 204 582.5 c 128,-1,158
 190 613 190 613 190 653 c 0,159,160
 190 695 190 695 205.5 739 c 128,-1,161
 221 783 221 783 254.5 819.5 c 128,-1,162
 288 856 288 856 340 879.5 c 128,-1,163
 392 903 392 903 466 903 c 0,164,165
 544 903 544 903 592 882.5 c 128,-1,166
 640 862 640 862 666.5 831 c 128,-1,167
 693 800 693 800 702 763 c 128,-1,168
 711 726 711 726 712 693 c 1,169,170
 710 640 710 640 695.5 590 c 128,-1,171
 681 540 681 540 659 487 c 1,172,173
 693 533 693 533 726 570.5 c 128,-1,174
 759 608 759 608 788 637 c 0,175,176
 826 675 826 675 872.5 712.5 c 128,-1,177
 919 750 919 750 970 779.5 c 128,-1,178
 1021 809 1021 809 1074.5 827 c 128,-1,179
 1128 845 1128 845 1180 845 c 0,0,1
EndSplineSet
EndChar

StartChar: Y
Encoding: 89 89 60
Width: 921
VWidth: 1700
GlyphClass: 2
Flags: W
LayerCount: 2
Fore
SplineSet
1371 861 m 2,0,1
 1371 855 1371 855 1355.5 850.5 c 128,-1,2
 1340 846 1340 846 1311 835.5 c 128,-1,3
 1282 825 1282 825 1242 805.5 c 128,-1,4
 1202 786 1202 786 1154 750.5 c 128,-1,5
 1106 715 1106 715 1051.5 660 c 128,-1,6
 997 605 997 605 940 524 c 0,7,8
 914 488 914 488 874.5 430.5 c 128,-1,9
 835 373 835 373 786.5 301 c 128,-1,10
 738 229 738 229 683 144.5 c 128,-1,11
 628 60 628 60 573 -30 c 0,12,13
 549 -68 549 -68 518 -99.5 c 128,-1,14
 487 -131 487 -131 450 -154 c 128,-1,15
 413 -177 413 -177 370 -190 c 128,-1,16
 327 -203 327 -203 279 -203 c 0,17,18
 245 -203 245 -203 210 -197 c 128,-1,19
 175 -191 175 -191 143 -176.5 c 128,-1,20
 111 -162 111 -162 82.5 -139 c 128,-1,21
 54 -116 54 -116 33 -83 c 1,22,23
 24 -92 24 -92 11 -103.5 c 128,-1,24
 -2 -115 -2 -115 -16 -125 c 128,-1,25
 -30 -135 -30 -135 -45 -141.5 c 128,-1,26
 -60 -148 -60 -148 -74 -148 c 0,27,28
 -79 -148 -79 -148 -80.5 -145 c 128,-1,29
 -82 -142 -82 -142 -82 -139 c 0,30,31
 -82 -132 -82 -132 -75 -130 c 0,32,33
 -50 -125 -50 -125 -25.5 -108 c 128,-1,34
 -1 -91 -1 -91 24 -66 c 1,35,36
 13 -44 13 -44 7 -20.5 c 128,-1,37
 1 3 1 3 1 29 c 0,38,39
 1 45 1 45 4 65.5 c 128,-1,40
 7 86 7 86 15 104 c 128,-1,41
 23 122 23 122 36 134 c 128,-1,42
 49 146 49 146 70 146 c 0,43,44
 94 146 94 146 107 126.5 c 128,-1,45
 120 107 120 107 120 80 c 0,46,47
 120 38 120 38 97 -0.5 c 128,-1,48
 74 -39 74 -39 46 -69 c 1,49,50
 60 -96 60 -96 84 -117.5 c 128,-1,51
 108 -139 108 -139 139 -154 c 128,-1,52
 170 -169 170 -169 205.5 -177 c 128,-1,53
 241 -185 241 -185 279 -185 c 0,54,55
 364 -185 364 -185 437 -140.5 c 128,-1,56
 510 -96 510 -96 558 -21 c 0,57,58
 594 36 594 36 626.5 88 c 128,-1,59
 659 140 659 140 691 190 c 1,60,61
 650 149 650 149 595.5 121 c 128,-1,62
 541 93 541 93 476 93 c 0,63,64
 442 93 442 93 406 101.5 c 128,-1,65
 370 110 370 110 340 130.5 c 128,-1,66
 310 151 310 151 290.5 185 c 128,-1,67
 271 219 271 219 271 270 c 0,68,69
 271 310 271 310 285.5 359 c 128,-1,70
 300 408 300 408 332 469 c 0,71,72
 367 536 367 536 404.5 589 c 128,-1,73
 442 642 442 642 480 684.5 c 128,-1,74
 518 727 518 727 555.5 761 c 128,-1,75
 593 795 593 795 628 824 c 1,76,77
 552 834 552 834 493.5 855.5 c 128,-1,78
 435 877 435 877 382 899 c 128,-1,79
 329 921 329 921 275.5 938 c 128,-1,80
 222 955 222 955 157 955 c 0,81,82
 130 955 130 955 102 950 c 128,-1,83
 74 945 74 945 51 933 c 128,-1,84
 28 921 28 921 13.5 900.5 c 128,-1,85
 -1 880 -1 880 -1 849 c 0,86,87
 -1 826 -1 826 9 811 c 128,-1,88
 19 796 19 796 34.5 785.5 c 128,-1,89
 50 775 50 775 70 769 c 128,-1,90
 90 763 90 763 110 759 c 1,91,92
 119 759 119 759 119 750 c 1,93,94
 117 741 117 741 109 741 c 1,95,96
 109 739 109 739 89 743.5 c 128,-1,97
 69 748 69 748 45 760.5 c 128,-1,98
 21 773 21 773 1 794.5 c 128,-1,99
 -19 816 -19 816 -19 849 c 0,100,101
 -19 879 -19 879 -5.5 902.5 c 128,-1,102
 8 926 8 926 31.5 941.5 c 128,-1,103
 55 957 55 957 86 965 c 128,-1,104
 117 973 117 973 153 973 c 0,105,106
 201 973 201 973 241.5 964.5 c 128,-1,107
 282 956 282 956 319 943 c 128,-1,108
 356 930 356 930 392 914.5 c 128,-1,109
 428 899 428 899 467.5 884 c 128,-1,110
 507 869 507 869 551 857 c 128,-1,111
 595 845 595 845 648 840 c 1,112,113
 666 855 666 855 686.5 873 c 128,-1,114
 707 891 707 891 729.5 906.5 c 128,-1,115
 752 922 752 922 775.5 932.5 c 128,-1,116
 799 943 799 943 822 943 c 0,117,118
 850 943 850 943 865 926 c 128,-1,119
 880 909 880 909 880 889 c 256,120,121
 880 869 880 869 868.5 855.5 c 128,-1,122
 857 842 857 842 837.5 833.5 c 128,-1,123
 818 825 818 825 793.5 821 c 128,-1,124
 769 817 769 817 744 817 c 0,125,126
 720 817 720 817 696.5 818.5 c 128,-1,127
 673 820 673 820 653 821 c 1,128,129
 617 792 617 792 579 758.5 c 128,-1,130
 541 725 541 725 502 681.5 c 128,-1,131
 463 638 463 638 424 583.5 c 128,-1,132
 385 529 385 529 348 460 c 0,133,134
 316 400 316 400 302.5 353 c 128,-1,135
 289 306 289 306 289 270 c 0,136,137
 289 225 289 225 306.5 194.5 c 128,-1,138
 324 164 324 164 351 145.5 c 128,-1,139
 378 127 378 127 411 119 c 128,-1,140
 444 111 444 111 476 111 c 0,141,142
 519 111 519 111 558.5 125.5 c 128,-1,143
 598 140 598 140 634.5 166.5 c 128,-1,144
 671 193 671 193 705 229.5 c 128,-1,145
 739 266 739 266 772 311 c 1,146,147
 823 387 823 387 861.5 443 c 128,-1,148
 900 499 900 499 925 534 c 0,149,150
 978 610 978 610 1031 664.5 c 128,-1,151
 1084 719 1084 719 1132.5 756.5 c 128,-1,152
 1181 794 1181 794 1222.5 816 c 128,-1,153
 1264 838 1264 838 1294.5 850 c 128,-1,154
 1325 862 1325 862 1342.5 866 c 128,-1,155
 1360 870 1360 870 1361 870 c 2,156,-1
 1362 870 l 2,157,158
 1371 870 1371 870 1371 863 c 2,159,-1
 1371 861 l 2,0,1
814 924 m 1,160,161
 794 921 794 921 776.5 912 c 128,-1,162
 759 903 759 903 741.5 891 c 128,-1,163
 724 879 724 879 707.5 865 c 128,-1,164
 691 851 691 851 674 838 c 1,165,166
 688 836 688 836 705 835 c 128,-1,167
 722 834 722 834 741 834 c 0,168,169
 761 834 761 834 782.5 836.5 c 128,-1,170
 804 839 804 839 821.5 845 c 128,-1,171
 839 851 839 851 850.5 861.5 c 128,-1,172
 862 872 862 872 862 888 c 0,173,174
 862 902 862 902 851 913 c 128,-1,175
 840 924 840 924 820 924 c 2,176,-1
 814 924 l 1,160,161
19 28 m 0,177,178
 19 -14 19 -14 38 -52 c 1,179,180
 49 -40 49 -40 60.5 -25 c 128,-1,181
 72 -10 72 -10 81 6.5 c 128,-1,182
 90 23 90 23 96 41 c 128,-1,183
 102 59 102 59 102 77 c 0,184,185
 102 84 102 84 100.5 92.5 c 128,-1,186
 99 101 99 101 95.5 109 c 128,-1,187
 92 117 92 117 85.5 122.5 c 128,-1,188
 79 128 79 128 70 128 c 0,189,190
 56 128 56 128 46.5 118.5 c 128,-1,191
 37 109 37 109 31 94.5 c 128,-1,192
 25 80 25 80 22 62.5 c 128,-1,193
 19 45 19 45 19 28 c 0,177,178
EndSplineSet
EndChar

StartChar: Z
Encoding: 90 90 61
Width: 1164
VWidth: 1700
GlyphClass: 2
Flags: W
LayerCount: 2
Fore
SplineSet
1220 891 m 0,0,1
 1237 884 1237 884 1249.5 866.5 c 128,-1,2
 1262 849 1262 849 1262 829 c 0,3,4
 1262 816 1262 816 1255 798.5 c 128,-1,5
 1248 781 1248 781 1225.5 765.5 c 128,-1,6
 1203 750 1203 750 1162 739 c 128,-1,7
 1121 728 1121 728 1053 728 c 0,8,9
 967 728 967 728 880 743 c 1,10,11
 816 677 816 677 760.5 600 c 128,-1,12
 705 523 705 523 653 454 c 1,13,-1
 861 434 l 2,14,15
 870 434 870 434 870 424 c 1,16,17
 868 414 868 414 860 416 c 1,18,-1
 640 437 l 1,19,20
 622 413 622 413 587 371 c 128,-1,21
 552 329 552 329 506.5 278.5 c 128,-1,22
 461 228 461 228 409.5 175 c 128,-1,23
 358 122 358 122 307 76 c 1,24,25
 376 57 376 57 446 30.5 c 128,-1,26
 516 4 516 4 589 -20 c 128,-1,27
 662 -44 662 -44 739 -60.5 c 128,-1,28
 816 -77 816 -77 898 -77 c 0,29,30
 926 -77 926 -77 958 -73 c 128,-1,31
 990 -69 990 -69 1017 -55.5 c 128,-1,32
 1044 -42 1044 -42 1062 -16 c 128,-1,33
 1080 10 1080 10 1080 53 c 0,34,35
 1080 65 1080 65 1078 76.5 c 128,-1,36
 1076 88 1076 88 1076 99 c 0,37,38
 1076 107 1076 107 1085 107 c 0,39,40
 1089 107 1089 107 1091.5 101.5 c 128,-1,41
 1094 96 1094 96 1095.5 88 c 128,-1,42
 1097 80 1097 80 1097.5 71.5 c 128,-1,43
 1098 63 1098 63 1098 56 c 0,44,45
 1098 8 1098 8 1079.5 -21.5 c 128,-1,46
 1061 -51 1061 -51 1032.5 -67.5 c 128,-1,47
 1004 -84 1004 -84 968 -89.5 c 128,-1,48
 932 -95 932 -95 898 -95 c 0,49,50
 814 -95 814 -95 737 -78 c 128,-1,51
 660 -61 660 -61 586.5 -37 c 128,-1,52
 513 -13 513 -13 440.5 14 c 128,-1,53
 368 41 368 41 292 62 c 1,54,55
 255 29 255 29 223.5 4 c 128,-1,56
 192 -21 192 -21 160.5 -38.5 c 128,-1,57
 129 -56 129 -56 96.5 -64.5 c 128,-1,58
 64 -73 64 -73 26 -73 c 0,59,60
 8 -73 8 -73 -11.5 -69 c 128,-1,61
 -31 -65 -31 -65 -47.5 -55 c 128,-1,62
 -64 -45 -64 -45 -74.5 -27 c 128,-1,63
 -85 -9 -85 -9 -85 18 c 0,64,65
 -85 48 -85 48 -72.5 68.5 c 128,-1,66
 -60 89 -60 89 -40 101.5 c 128,-1,67
 -20 114 -20 114 5 119.5 c 128,-1,68
 30 125 30 125 55 125 c 0,69,70
 118 125 118 125 176 111 c 128,-1,71
 234 97 234 97 287 82 c 1,72,73
 336 126 336 126 386.5 177.5 c 128,-1,74
 437 229 437 229 481.5 278 c 128,-1,75
 526 327 526 327 562 369.5 c 128,-1,76
 598 412 598 412 619 439 c 1,77,-1
 450 454 l 1,78,79
 442 456 442 456 442 462 c 0,80,81
 442 472 442 472 450 472 c 2,82,-1
 452 472 l 1,83,-1
 632 456 l 1,84,85
 657 490 657 490 684 527.5 c 128,-1,86
 711 565 711 565 739 603 c 128,-1,87
 767 641 767 641 796.5 677.5 c 128,-1,88
 826 714 826 714 858 746 c 1,89,90
 722 766 722 766 626.5 793.5 c 128,-1,91
 531 821 531 821 477 841 c 0,92,93
 459 848 459 848 440.5 855.5 c 128,-1,94
 422 863 422 863 403.5 870 c 128,-1,95
 385 877 385 877 365.5 881.5 c 128,-1,96
 346 886 346 886 325 886 c 0,97,98
 278 886 278 886 247.5 851.5 c 128,-1,99
 217 817 217 817 217 763 c 0,100,101
 217 740 217 740 222 718.5 c 128,-1,102
 227 697 227 697 233 680 c 0,103,104
 236 671 236 671 244 656.5 c 128,-1,105
 252 642 252 642 252 635 c 0,106,107
 252 626 252 626 242 626 c 0,108,109
 241 626 241 626 234.5 635 c 128,-1,110
 228 644 228 644 220 661 c 128,-1,111
 212 678 212 678 205.5 704 c 128,-1,112
 199 730 199 730 199 763 c 0,113,114
 199 791 199 791 207.5 816.5 c 128,-1,115
 216 842 216 842 232.5 861.5 c 128,-1,116
 249 881 249 881 272.5 892.5 c 128,-1,117
 296 904 296 904 325 904 c 0,118,119
 367 904 367 904 405.5 888.5 c 128,-1,120
 444 873 444 873 484 858 c 0,121,122
 577 823 577 823 673 800 c 128,-1,123
 769 777 769 777 874 762 c 1,124,125
 912 798 912 798 954 824.5 c 128,-1,126
 996 851 996 851 1036 867.5 c 128,-1,127
 1076 884 1076 884 1111 892 c 128,-1,128
 1146 900 1146 900 1169 900 c 0,129,130
 1185 900 1185 900 1197.5 897.5 c 128,-1,131
 1210 895 1210 895 1220 891 c 0,0,1
151 -23 m 1,132,133
 186 -4 186 -4 214 19 c 128,-1,134
 242 42 242 42 271 68 c 1,135,136
 223 81 223 81 172 94 c 128,-1,137
 121 107 121 107 56 107 c 0,138,139
 35 107 35 107 13 103 c 128,-1,140
 -9 99 -9 99 -26.5 89 c 128,-1,141
 -44 79 -44 79 -55.5 62 c 128,-1,142
 -67 45 -67 45 -67 19 c 0,143,144
 -67 -2 -67 -2 -59 -16 c 128,-1,145
 -51 -30 -51 -30 -38 -39 c 128,-1,146
 -25 -48 -25 -48 -8 -51.5 c 128,-1,147
 9 -55 9 -55 26 -55 c 0,148,149
 53 -55 53 -55 82 -49 c 128,-1,150
 111 -43 111 -43 151 -23 c 1,132,133
1240 809 m 0,151,152
 1244 817 1244 817 1244 828 c 0,153,154
 1244 851 1244 851 1225 866.5 c 128,-1,155
 1206 882 1206 882 1169 882 c 0,156,157
 1150 882 1150 882 1119 875.5 c 128,-1,158
 1088 869 1088 869 1051 854 c 128,-1,159
 1014 839 1014 839 974 815.5 c 128,-1,160
 934 792 934 792 897 758 c 1,161,162
 933 751 933 751 972 748.5 c 128,-1,163
 1011 746 1011 746 1053 746 c 0,164,165
 1104 746 1104 746 1138 752.5 c 128,-1,166
 1172 759 1172 759 1193 768.5 c 128,-1,167
 1214 778 1214 778 1224.5 789 c 128,-1,168
 1235 800 1235 800 1240 809 c 0,151,152
EndSplineSet
EndChar

StartChar: bracketleft
Encoding: 91 91 62
Width: 528
VWidth: 1700
GlyphClass: 2
Flags: W
LayerCount: 2
Fore
SplineSet
196 -230 m 2,0,-1
 32 -230 l 2,1,2
 27 -230 27 -230 24.5 -227 c 128,-1,3
 22 -224 22 -224 22 -221 c 0,4,5
 22 -220 22 -220 24 -216 c 2,6,-1
 761 920 l 1,7,8
 765 924 765 924 769 924 c 2,9,-1
 911 924 l 2,10,11
 920 924 920 924 920 915 c 256,12,13
 920 906 920 906 911 906 c 2,14,-1
 773 906 l 1,15,-1
 48 -212 l 1,16,-1
 196 -212 l 2,17,18
 205 -212 205 -212 205 -221 c 256,19,20
 205 -230 205 -230 196 -230 c 2,0,-1
EndSplineSet
EndChar

StartChar: backslash
Encoding: 92 92 63
Width: 484
VWidth: 1700
GlyphClass: 2
Flags: W
LayerCount: 2
Fore
SplineSet
327 -227 m 0,0,1
 320 -227 320 -227 318 -220 c 2,2,-1
 84 1015 l 1,3,-1
 84 1017 l 2,4,5
 84 1026 84 1026 93 1026 c 0,6,7
 100 1026 100 1026 102 1019 c 2,8,-1
 336 -216 l 1,9,-1
 336 -218 l 2,10,11
 336 -227 336 -227 327 -227 c 0,0,1
EndSplineSet
EndChar

StartChar: bracketright
Encoding: 93 93 64
Width: 833
VWidth: 1700
GlyphClass: 2
Flags: W
LayerCount: 2
Fore
SplineSet
15 -201 m 2,0,-1
 -127 -201 l 2,1,2
 -136 -201 -136 -201 -136 -192 c 256,3,4
 -136 -183 -136 -183 -127 -183 c 2,5,-1
 11 -183 l 1,6,-1
 736 935 l 1,7,-1
 588 935 l 2,8,9
 579 935 579 935 579 944 c 256,10,11
 579 953 579 953 588 953 c 2,12,-1
 752 953 l 2,13,14
 761 953 761 953 761 943 c 0,15,16
 761 940 761 940 760 939 c 2,17,-1
 23 -197 l 1,18,19
 19 -201 19 -201 15 -201 c 2,0,-1
EndSplineSet
EndChar

StartChar: asciicircum
Encoding: 94 94 65
Width: 808
VWidth: 1700
GlyphClass: 2
Flags: W
LayerCount: 2
Fore
SplineSet
740 557 m 0,0,1
 719 557 719 557 704 567.5 c 128,-1,2
 689 578 689 578 679 595 c 128,-1,3
 669 612 669 612 664.5 633 c 128,-1,4
 660 654 660 654 660 676 c 0,5,6
 660 718 660 718 670 760 c 128,-1,7
 680 802 680 802 689 829 c 1,8,9
 492 686 492 686 274 610 c 0,10,11
 218 590 218 590 177.5 579.5 c 128,-1,12
 137 569 137 569 111.5 563.5 c 128,-1,13
 86 558 86 558 76 557.5 c 128,-1,14
 66 557 66 557 72 557 c 1,15,16
 64 557 64 557 64 566 c 0,17,18
 64 573 64 573 69 574 c 128,-1,19
 74 575 74 575 94 578.5 c 128,-1,20
 114 582 114 582 155.5 592 c 128,-1,21
 197 602 197 602 269 627 c 0,22,23
 309 641 309 641 359 661.5 c 128,-1,24
 409 682 409 682 464.5 710.5 c 128,-1,25
 520 739 520 739 580.5 776.5 c 128,-1,26
 641 814 641 814 702 861 c 0,27,28
 704 863 704 863 707 863 c 0,29,30
 717 863 717 863 717 854 c 0,31,32
 717 851 717 851 711 833.5 c 128,-1,33
 705 816 705 816 697.5 791 c 128,-1,34
 690 766 690 766 684 735 c 128,-1,35
 678 704 678 704 678 674 c 0,36,37
 678 635 678 635 692 607.5 c 128,-1,38
 706 580 706 580 741 575 c 0,39,40
 749 573 749 573 749 564 c 1,41,42
 747 557 747 557 740 557 c 0,0,1
EndSplineSet
EndChar

StartChar: underscore
Encoding: 95 95 66
Width: 651
VWidth: 1700
GlyphClass: 2
Flags: W
LayerCount: 2
Fore
SplineSet
627 0 m 2,0,-1
 22 0 l 2,1,2
 13 0 13 0 13 9 c 256,3,4
 13 18 13 18 22 18 c 2,5,-1
 627 18 l 2,6,7
 636 18 636 18 636 9 c 256,8,9
 636 0 636 0 627 0 c 2,0,-1
EndSplineSet
EndChar

StartChar: grave
Encoding: 96 96 67
Width: 430
VWidth: 1700
GlyphClass: 2
Flags: W
LayerCount: 2
Fore
SplineSet
338 829 m 0,0,1
 289 829 289 829 240.5 838.5 c 128,-1,2
 192 848 192 848 150.5 869 c 128,-1,3
 109 890 109 890 77.5 924 c 128,-1,4
 46 958 46 958 32 1006 c 0,5,6
 25 1028 25 1028 24 1042 c 128,-1,7
 23 1056 23 1056 23 1057 c 0,8,9
 23 1066 23 1066 32 1066 c 0,10,11
 38 1066 38 1066 38.5 1066 c 128,-1,12
 39 1066 39 1066 39 1061.5 c 128,-1,13
 39 1057 39 1057 40.5 1045.5 c 128,-1,14
 42 1034 42 1034 49 1010 c 0,15,16
 65 962 65 962 95.5 931 c 128,-1,17
 126 900 126 900 166 881.5 c 128,-1,18
 206 863 206 863 251.5 855.5 c 128,-1,19
 297 848 297 848 342 848 c 0,20,21
 356 848 356 848 369.5 848 c 128,-1,22
 383 848 383 848 397 850 c 1,23,24
 405 850 405 850 407 842 c 1,25,26
 407 836 407 836 399 833 c 128,-1,27
 391 830 391 830 380 829.5 c 128,-1,28
 369 829 369 829 357 829 c 128,-1,29
 345 829 345 829 338 829 c 0,0,1
EndSplineSet
EndChar

StartChar: a
Encoding: 97 97 68
Width: 887
VWidth: 1700
GlyphClass: 2
Flags: W
LayerCount: 2
Fore
SplineSet
900 225 m 1,0,1
 902 221 902 221 902 218 c 0,2,3
 902 216 902 216 900 212 c 1,4,5
 864 179 864 179 816.5 141 c 128,-1,6
 769 103 769 103 716.5 70.5 c 128,-1,7
 664 38 664 38 609 16.5 c 128,-1,8
 554 -5 554 -5 502 -5 c 0,9,10
 487 -5 487 -5 468.5 -2.5 c 128,-1,11
 450 0 450 0 433.5 7.5 c 128,-1,12
 417 15 417 15 406 28 c 128,-1,13
 395 41 395 41 395 61 c 0,14,15
 395 91 395 91 431 135 c 1,16,17
 343 64 343 64 267.5 23 c 128,-1,18
 192 -18 192 -18 129 -18 c 0,19,20
 97 -18 97 -18 67.5 -8 c 128,-1,21
 38 2 38 2 15.5 21 c 128,-1,22
 -7 40 -7 40 -20 67 c 128,-1,23
 -33 94 -33 94 -33 129 c 0,24,25
 -33 230 -33 230 109 351 c 0,26,27
 205 432 205 432 303.5 476.5 c 128,-1,28
 402 521 402 521 490 521 c 0,29,30
 532 521 532 521 566 511 c 0,31,32
 568 511 568 511 581.5 506 c 128,-1,33
 595 501 595 501 610.5 489.5 c 128,-1,34
 626 478 626 478 638.5 459.5 c 128,-1,35
 651 441 651 441 651 413 c 0,36,37
 651 344 651 344 563 252 c 1,38,39
 599 276 599 276 632.5 298.5 c 128,-1,40
 666 321 666 321 691.5 338 c 128,-1,41
 717 355 717 355 733 365 c 128,-1,42
 749 375 749 375 751 375 c 1,43,44
 752 376 752 376 755 376 c 0,45,46
 764 376 764 376 764 367 c 0,47,48
 764 364 764 364 753.5 357.5 c 128,-1,49
 743 351 743 351 720.5 337.5 c 128,-1,50
 698 324 698 324 663.5 301 c 128,-1,51
 629 278 629 278 582 244 c 0,52,53
 498 183 498 183 455.5 136 c 128,-1,54
 413 89 413 89 413 60 c 0,55,56
 413 46 413 46 422.5 36.5 c 128,-1,57
 432 27 432 27 445.5 22 c 128,-1,58
 459 17 459 17 474 15 c 128,-1,59
 489 13 489 13 501 13 c 0,60,61
 546 13 546 13 595.5 31.5 c 128,-1,62
 645 50 645 50 695.5 80 c 128,-1,63
 746 110 746 110 795 148 c 128,-1,64
 844 186 844 186 887 226 c 1,65,66
 891 228 891 228 893 228 c 0,67,68
 897 228 897 228 900 225 c 1,0,1
129 0 m 0,69,70
 171 0 171 0 215 17.5 c 128,-1,71
 259 35 259 35 302.5 63 c 128,-1,72
 346 91 346 91 388 124 c 128,-1,73
 430 157 430 157 468 189 c 0,74,75
 518 230 518 230 550 264 c 128,-1,76
 582 298 582 298 601 326 c 128,-1,77
 620 354 620 354 627 375.5 c 128,-1,78
 634 397 634 397 634 413 c 0,79,80
 634 436 634 436 623 451.5 c 128,-1,81
 612 467 612 467 598.5 476.5 c 128,-1,82
 585 486 585 486 573.5 490 c 128,-1,83
 562 494 562 494 561 494 c 0,84,85
 528 503 528 503 490 503 c 0,86,87
 405 503 405 503 310 459.5 c 128,-1,88
 215 416 215 416 121 337 c 0,89,90
 -15 222 -15 222 -15 129 c 0,91,92
 -15 99 -15 99 -3.5 75 c 128,-1,93
 8 51 8 51 27.5 34.5 c 128,-1,94
 47 18 47 18 73.5 9 c 128,-1,95
 100 0 100 0 129 0 c 0,69,70
EndSplineSet
EndChar

StartChar: b
Encoding: 98 98 69
Width: 682
VWidth: 1700
GlyphClass: 2
Flags: W
LayerCount: 2
Fore
SplineSet
69 9 m 0,0,1
 47 22 47 22 33.5 40 c 128,-1,2
 20 58 20 58 12.5 74.5 c 128,-1,3
 5 91 5 91 2 103 c 128,-1,4
 -1 115 -1 115 -1 117 c 0,5,6
 -5 132 -5 132 -5 154 c 0,7,8
 -5 229 -5 229 51.5 339 c 128,-1,9
 108 449 108 449 217 593 c 0,10,11
 268 660 268 660 318.5 720 c 128,-1,12
 369 780 369 780 412.5 827.5 c 128,-1,13
 456 875 456 875 488 907.5 c 128,-1,14
 520 940 520 940 533 952 c 0,15,16
 571 987 571 987 599 1002 c 128,-1,17
 627 1017 627 1017 644 1018 c 0,18,19
 660 1018 660 1018 673 1007 c 128,-1,20
 686 996 686 996 686 969 c 0,21,22
 686 956 686 956 680 939.5 c 128,-1,23
 674 923 674 923 666 907.5 c 128,-1,24
 658 892 658 892 651 881 c 128,-1,25
 644 870 644 870 643 867 c 0,26,27
 590 790 590 790 531 717 c 128,-1,28
 472 644 472 644 414 578.5 c 128,-1,29
 356 513 356 513 303.5 458 c 128,-1,30
 251 403 251 403 210.5 362.5 c 128,-1,31
 170 322 170 322 145.5 299 c 128,-1,32
 121 276 121 276 120 275 c 256,33,34
 119 274 119 274 110.5 266 c 128,-1,35
 102 258 102 258 88 246.5 c 128,-1,36
 74 235 74 235 55.5 222 c 128,-1,37
 37 209 37 209 17 197 c 1,38,39
 15 185 15 185 13.5 174.5 c 128,-1,40
 12 164 12 164 12 154 c 0,41,42
 12 137 12 137 15 124 c 0,43,44
 15 122 15 122 20.5 102.5 c 128,-1,45
 26 83 26 83 42.5 60 c 128,-1,46
 59 37 59 37 88 18.5 c 128,-1,47
 117 0 117 0 164 0 c 0,48,49
 182 0 182 0 208.5 4 c 128,-1,50
 235 8 235 8 266 20.5 c 128,-1,51
 297 33 297 33 331 56.5 c 128,-1,52
 365 80 365 80 400 118 c 0,53,54
 422 142 422 142 444 177.5 c 128,-1,55
 466 213 466 213 480 261 c 1,56,57
 454 277 454 277 439.5 297.5 c 128,-1,58
 425 318 425 318 417 336.5 c 128,-1,59
 409 355 409 355 407 368.5 c 128,-1,60
 405 382 405 382 405 385 c 0,61,62
 405 414 405 414 421.5 429.5 c 128,-1,63
 438 445 438 445 458 445 c 0,64,65
 482 445 482 445 496.5 424 c 128,-1,66
 511 403 511 403 511 356 c 0,67,68
 511 333 511 333 508.5 311 c 128,-1,69
 506 289 506 289 501 269 c 1,70,71
 538 248 538 248 581 248 c 0,72,73
 622 248 622 248 661 265.5 c 128,-1,74
 700 283 700 283 732 310 c 1,75,76
 736 312 736 312 738 312 c 0,77,78
 741 312 741 312 744 309.5 c 128,-1,79
 747 307 747 307 747 303 c 256,80,81
 747 299 747 299 744 296 c 0,82,83
 704 261 704 261 665.5 245.5 c 128,-1,84
 627 230 627 230 584 230 c 0,85,86
 560 230 560 230 537.5 235 c 128,-1,87
 515 240 515 240 496 251 c 1,88,89
 477 188 477 188 447 144 c 128,-1,90
 417 100 417 100 382.5 70.5 c 128,-1,91
 348 41 348 41 312 23.5 c 128,-1,92
 276 6 276 6 245.5 -3 c 128,-1,93
 215 -12 215 -12 193.5 -14.5 c 128,-1,94
 172 -17 172 -17 167 -17 c 0,95,96
 141 -17 141 -17 116 -11 c 128,-1,97
 91 -5 91 -5 69 9 c 0,0,1
645 1002 m 0,98,99
 628 1002 628 1002 603.5 985.5 c 128,-1,100
 579 969 579 969 545 938 c 0,101,102
 530 924 530 924 497 890.5 c 128,-1,103
 464 857 464 857 421 809 c 128,-1,104
 378 761 378 761 329 703 c 128,-1,105
 280 645 280 645 232 582 c 0,106,107
 61 358 61 358 23 222 c 1,108,109
 40 233 40 233 55.5 244.5 c 128,-1,110
 71 256 71 256 82.5 265.5 c 128,-1,111
 94 275 94 275 101 281.5 c 128,-1,112
 108 288 108 288 108 288 c 1,113,114
 108 290 108 290 132 313 c 128,-1,115
 156 336 156 336 196 376 c 128,-1,116
 236 416 236 416 289 470.5 c 128,-1,117
 342 525 342 525 399.5 590 c 128,-1,118
 457 655 457 655 516 728 c 128,-1,119
 575 801 575 801 628 877 c 1,120,-1
 633 884 l 2,121,122
 644 900 644 900 656 924.5 c 128,-1,123
 668 949 668 949 668 970 c 0,124,125
 668 981 668 981 663 991.5 c 128,-1,126
 658 1002 658 1002 645 1002 c 0,98,99
459 428 m 0,127,128
 440 428 440 428 432 414 c 128,-1,129
 424 400 424 400 424 384 c 0,130,131
 424 379 424 379 426 367.5 c 128,-1,132
 428 356 428 356 434.5 341 c 128,-1,133
 441 326 441 326 453 309.5 c 128,-1,134
 465 293 465 293 485 280 c 1,135,136
 493 317 493 317 493 357 c 0,137,138
 493 364 493 364 492.5 376 c 128,-1,139
 492 388 492 388 488.5 399.5 c 128,-1,140
 485 411 485 411 478 419.5 c 128,-1,141
 471 428 471 428 459 428 c 0,127,128
EndSplineSet
EndChar

StartChar: c
Encoding: 99 99 70
Width: 706
VWidth: 1700
GlyphClass: 2
Flags: W
LayerCount: 2
Fore
SplineSet
162 -5 m 0,0,1
 70 -5 70 -5 21.5 26.5 c 128,-1,2
 -27 58 -27 58 -27 115 c 0,3,4
 -27 165 -27 165 6.5 224.5 c 128,-1,5
 40 284 40 284 92.5 339 c 128,-1,6
 145 394 145 394 208.5 435.5 c 128,-1,7
 272 477 272 477 332 491 c 0,8,9
 354 496 354 496 373 498.5 c 128,-1,10
 392 501 392 501 408 501 c 0,11,12
 453 501 453 501 476 480 c 128,-1,13
 499 459 499 459 499 427 c 0,14,15
 499 410 499 410 493.5 393 c 128,-1,16
 488 376 488 376 480 376 c 0,17,18
 471 376 471 376 471 384 c 0,19,20
 471 391 471 391 476 402 c 128,-1,21
 481 413 481 413 481 426 c 0,22,23
 481 452 481 452 462.5 467.5 c 128,-1,24
 444 483 444 483 406 483 c 0,25,26
 371 483 371 483 331 471.5 c 128,-1,27
 291 460 291 460 250 438.5 c 128,-1,28
 209 417 209 417 168.5 385.5 c 128,-1,29
 128 354 128 354 92 314 c 0,30,31
 44 260 44 260 18 208 c 128,-1,32
 -8 156 -8 156 -8 115 c 0,33,34
 -8 81 -8 81 10.5 60.5 c 128,-1,35
 29 40 29 40 55.5 29.5 c 128,-1,36
 82 19 82 19 111.5 16 c 128,-1,37
 141 13 141 13 163 13 c 0,38,39
 177 13 177 13 186 13.5 c 128,-1,40
 195 14 195 14 196 14 c 2,41,42
 196 14 196 14 208.5 15 c 128,-1,43
 221 16 221 16 242.5 19 c 128,-1,44
 264 22 264 22 293 27 c 128,-1,45
 322 32 322 32 356 41 c 0,46,47
 388 49 388 49 428 63.5 c 128,-1,48
 468 78 468 78 512 99.5 c 128,-1,49
 556 121 556 121 603 151 c 128,-1,50
 650 181 650 181 697 220 c 1,51,52
 701 222 701 222 703 222 c 0,53,54
 712 222 712 222 712 213 c 0,55,56
 712 207 712 207 709 206 c 1,57,58
 632 143 632 143 543.5 95 c 128,-1,59
 455 47 455 47 360 23 c 0,60,61
 292 6 292 6 247 1 c 128,-1,62
 202 -4 202 -4 197 -4 c 0,63,64
 195 -4 195 -4 185.5 -4.5 c 128,-1,65
 176 -5 176 -5 162 -5 c 0,0,1
EndSplineSet
EndChar

StartChar: d
Encoding: 100 100 71
Width: 884
VWidth: 1700
GlyphClass: 2
Flags: W
LayerCount: 2
Fore
SplineSet
1107 862 m 2,0,1
 1108 858 1108 858 1108 848 c 0,2,3
 1108 813 1108 813 1067 759.5 c 128,-1,4
 1026 706 1026 706 960.5 641 c 128,-1,5
 895 576 895 576 812 502.5 c 128,-1,6
 729 429 729 429 645 354 c 1,7,8
 602 291 602 291 560.5 225.5 c 128,-1,9
 519 160 519 160 486 99 c 0,10,11
 482 92 482 92 477.5 79 c 128,-1,12
 473 66 473 66 473 53 c 0,13,14
 473 41 473 41 480.5 29.5 c 128,-1,15
 488 18 488 18 519 18 c 0,16,17
 553 18 553 18 590.5 30 c 128,-1,18
 628 42 628 42 664 60 c 128,-1,19
 700 78 700 78 732.5 99.5 c 128,-1,20
 765 121 765 121 789 139 c 0,21,22
 823 165 823 165 842 181.5 c 128,-1,23
 861 198 861 198 871 207 c 128,-1,24
 881 216 881 216 884.5 219.5 c 128,-1,25
 888 223 888 223 890 223 c 0,26,27
 893 223 893 223 896 220.5 c 128,-1,28
 899 218 899 218 899 215 c 0,29,30
 899 213 899 213 883.5 196.5 c 128,-1,31
 868 180 868 180 841 156.5 c 128,-1,32
 814 133 814 133 777 105.5 c 128,-1,33
 740 78 740 78 698 55 c 128,-1,34
 656 32 656 32 610.5 16.5 c 128,-1,35
 565 1 565 1 520 1 c 0,36,37
 511 1 511 1 499.5 2.5 c 128,-1,38
 488 4 488 4 478.5 9.5 c 128,-1,39
 469 15 469 15 462 25 c 128,-1,40
 455 35 455 35 455 52 c 0,41,42
 455 72 455 72 462 88.5 c 128,-1,43
 469 105 469 105 470 107 c 0,44,45
 489 142 489 142 510.5 178 c 128,-1,46
 532 214 532 214 555 250 c 1,47,48
 436 119 436 119 331.5 51.5 c 128,-1,49
 227 -16 227 -16 136 -16 c 0,50,51
 105 -16 105 -16 75 -6.5 c 128,-1,52
 45 3 45 3 22 21.5 c 128,-1,53
 -1 40 -1 40 -15.5 67.5 c 128,-1,54
 -30 95 -30 95 -30 130 c 0,55,56
 -30 232 -30 232 112 353 c 0,57,58
 211 438 211 438 306.5 481 c 128,-1,59
 402 524 402 524 489 524 c 0,60,61
 510 524 510 524 537.5 520.5 c 128,-1,62
 565 517 565 517 589 506.5 c 128,-1,63
 613 496 613 496 630 476.5 c 128,-1,64
 647 457 647 457 647 425 c 0,65,66
 647 401 647 401 638 376 c 1,67,68
 703 472 703 472 765.5 557 c 128,-1,69
 828 642 828 642 880.5 709 c 128,-1,70
 933 776 933 776 972.5 820 c 128,-1,71
 1012 864 1012 864 1030 878 c 0,72,73
 1052 894 1052 894 1068 894 c 0,74,75
 1079 894 1079 894 1086.5 889 c 128,-1,76
 1094 884 1094 884 1098.5 878 c 128,-1,77
 1103 872 1103 872 1105 867 c 128,-1,78
 1107 862 1107 862 1107 862 c 2,0,1
471 190 m 0,79,80
 519 235 519 235 549.5 271.5 c 128,-1,81
 580 308 580 308 598 336.5 c 128,-1,82
 616 365 616 365 623 387 c 128,-1,83
 630 409 630 409 630 425 c 0,84,85
 630 451 630 451 615.5 467 c 128,-1,86
 601 483 601 483 579.5 491.5 c 128,-1,87
 558 500 558 500 533.5 503 c 128,-1,88
 509 506 509 506 489 506 c 0,89,90
 404 506 404 506 312.5 463.5 c 128,-1,91
 221 421 221 421 124 339 c 0,92,93
 103 321 103 321 79 298.5 c 128,-1,94
 55 276 55 276 35 249 c 128,-1,95
 15 222 15 222 1.5 192 c 128,-1,96
 -12 162 -12 162 -12 131 c 0,97,98
 -12 102 -12 102 -0.5 78 c 128,-1,99
 11 54 11 54 31 37 c 128,-1,100
 51 20 51 20 78 10.5 c 128,-1,101
 105 1 105 1 137 1 c 0,102,103
 182 1 182 1 227.5 19 c 128,-1,104
 273 37 273 37 316 65 c 128,-1,105
 359 93 359 93 398.5 126.5 c 128,-1,106
 438 160 438 160 471 190 c 0,79,80
994 698 m 0,107,108
 1091 801 1091 801 1091 849 c 0,109,110
 1091 860 1091 860 1085.5 868 c 128,-1,111
 1080 876 1080 876 1069 876 c 0,112,113
 1056 876 1056 876 1040 863 c 0,114,115
 1028 854 1028 854 996 817.5 c 128,-1,116
 964 781 964 781 917.5 723 c 128,-1,117
 871 665 871 665 812.5 587.5 c 128,-1,118
 754 510 754 510 689 418 c 1,119,120
 774 494 774 494 854.5 564.5 c 128,-1,121
 935 635 935 635 994 698 c 0,107,108
EndSplineSet
EndChar

StartChar: e
Encoding: 101 101 72
Width: 702
VWidth: 1700
GlyphClass: 2
Flags: W
LayerCount: 2
Fore
SplineSet
41 13 m 0,0,1
 6 32 6 32 -8.5 63 c 128,-1,2
 -23 94 -23 94 -23 131 c 0,3,4
 -23 160 -23 160 -15.5 191 c 128,-1,5
 -8 222 -8 222 5 250.5 c 128,-1,6
 18 279 18 279 34 303.5 c 128,-1,7
 50 328 50 328 67 346 c 1,8,9
 51 354 51 354 43.5 358 c 128,-1,10
 36 362 36 362 34 364.5 c 128,-1,11
 32 367 32 367 32.5 368 c 128,-1,12
 33 369 33 369 33 371 c 0,13,14
 33 380 33 380 42 380 c 0,15,16
 46 380 46 380 45 380.5 c 128,-1,17
 44 381 44 381 45 379.5 c 128,-1,18
 46 378 46 378 52.5 374 c 128,-1,19
 59 370 59 370 80 360 c 1,20,21
 164 450 164 450 255.5 503 c 128,-1,22
 347 556 347 556 432 556 c 0,23,24
 461 556 461 556 488 548 c 128,-1,25
 515 540 515 540 536 525.5 c 128,-1,26
 557 511 557 511 569.5 490.5 c 128,-1,27
 582 470 582 470 582 445 c 0,28,29
 582 403 582 403 556.5 371 c 128,-1,30
 531 339 531 339 493.5 318 c 128,-1,31
 456 297 456 297 413 286.5 c 128,-1,32
 370 276 370 276 334 276 c 0,33,34
 290 276 290 276 250 283.5 c 128,-1,35
 210 291 210 291 177.5 300.5 c 128,-1,36
 145 310 145 310 121 320.5 c 128,-1,37
 97 331 97 331 84 337 c 1,38,39
 69 323 69 323 53 299.5 c 128,-1,40
 37 276 37 276 24.5 248.5 c 128,-1,41
 12 221 12 221 3.5 190.5 c 128,-1,42
 -5 160 -5 160 -5 131 c 0,43,44
 -5 74 -5 74 34.5 40 c 128,-1,45
 74 6 74 6 157 6 c 0,46,47
 189 6 189 6 222 10.5 c 128,-1,48
 255 15 255 15 285 21.5 c 128,-1,49
 315 28 315 28 339 35.5 c 128,-1,50
 363 43 363 43 378 49 c 0,51,52
 418 65 418 65 456.5 83.5 c 128,-1,53
 495 102 495 102 534.5 125 c 128,-1,54
 574 148 574 148 616 178.5 c 128,-1,55
 658 209 658 209 706 250 c 1,56,57
 710 252 710 252 712 252 c 0,58,59
 715 252 715 252 718 250 c 128,-1,60
 721 248 721 248 721 243 c 0,61,62
 721 239 721 239 718 236 c 0,63,64
 669 194 669 194 626 163.5 c 128,-1,65
 583 133 583 133 543 109.5 c 128,-1,66
 503 86 503 86 464 68 c 128,-1,67
 425 50 425 50 384 33 c 1,68,69
 362 25 362 25 335 17 c 128,-1,70
 308 9 308 9 278.5 3 c 128,-1,71
 249 -3 249 -3 218 -7 c 128,-1,72
 187 -11 187 -11 157 -11 c 0,73,74
 125 -11 125 -11 95 -5.5 c 128,-1,75
 65 0 65 0 41 13 c 0,0,1
123 339 m 2,76,77
 139 332 139 332 161.5 324 c 128,-1,78
 184 316 184 316 211 309.5 c 128,-1,79
 238 303 238 303 269 298.5 c 128,-1,80
 300 294 300 294 332 294 c 0,81,82
 373 294 373 294 414 306 c 128,-1,83
 455 318 455 318 488 338 c 128,-1,84
 521 358 521 358 542 385.5 c 128,-1,85
 563 413 563 413 563 443 c 0,86,87
 563 464 563 464 552.5 481.5 c 128,-1,88
 542 499 542 499 524 512 c 128,-1,89
 506 525 506 525 482.5 532 c 128,-1,90
 459 539 459 539 434 539 c 0,91,92
 402 539 402 539 364.5 530 c 128,-1,93
 327 521 327 521 284.5 499.5 c 128,-1,94
 242 478 242 478 194.5 442 c 128,-1,95
 147 406 147 406 96 351 c 1,96,-1
 123 339 l 2,76,77
EndSplineSet
EndChar

